<svg width="38" height="38" viewBox="0 0 38 38" fill="none" xmlns="http://www.w3.org/2000/svg">
<path d="M14.8852 7.08345V11.0723C14.8852 11.6898 14.7138 12.1655 14.371 12.4993C14.0336 12.8331 13.5765 13 12.9997 13C12.3957 13 11.9114 12.8248 11.5469 12.4743C11.1823 12.1238 11 11.6259 11 10.9805H12.3876C12.3876 11.2253 12.4365 11.4117 12.5345 11.5396C12.6324 11.662 12.7739 11.7232 12.9589 11.7232C13.1276 11.7232 13.2582 11.6676 13.3507 11.5563C13.4432 11.4451 13.4895 11.2837 13.4895 11.0723V7.08345H14.8852Z" fill="#002BDC"/>
<path d="M18.7225 13C18.1837 13 17.6886 12.872 17.2369 12.6161C16.7907 12.3602 16.4343 12.0042 16.1677 11.548C15.9065 11.0862 15.7759 10.5688 15.7759 9.99583C15.7759 9.42281 15.9065 8.90821 16.1677 8.45202C16.4343 7.99583 16.7907 7.63978 17.2369 7.38387C17.6886 7.12796 18.1837 7 18.7225 7C19.2612 7 19.7536 7.12796 20.1998 7.38387C20.6515 7.63978 21.0051 7.99583 21.2609 8.45202C21.5221 8.90821 21.6527 9.42281 21.6527 9.99583C21.6527 10.5688 21.5221 11.0862 21.2609 11.548C20.9997 12.0042 20.646 12.3602 20.1998 12.6161C19.7536 12.872 19.2612 13 18.7225 13ZM18.7225 11.6982C19.1795 11.6982 19.5441 11.5424 19.8162 11.2309C20.0937 10.9193 20.2325 10.5076 20.2325 9.99583C20.2325 9.47844 20.0937 9.06676 19.8162 8.76078C19.5441 8.44923 19.1795 8.29346 18.7225 8.29346C18.2599 8.29346 17.8899 8.44645 17.6124 8.75243C17.3403 9.05841 17.2043 9.47288 17.2043 9.99583C17.2043 10.5132 17.3403 10.9277 17.6124 11.2392C17.8899 11.5452 18.2599 11.6982 18.7225 11.6982Z" fill="#002BDC"/>
<path d="M25.8981 9.93741C26.23 10.0097 26.4967 10.1794 26.698 10.4465C26.8993 10.7079 27 11.0083 27 11.3477C27 11.8373 26.8313 12.2267 26.4939 12.516C26.162 12.7997 25.6968 12.9416 25.0982 12.9416H22.4292V7.08345H25.0084C25.5907 7.08345 26.045 7.21975 26.3715 7.49235C26.7034 7.76495 26.8694 8.13491 26.8694 8.60222C26.8694 8.94715 26.7796 9.23366 26.6001 9.46175C26.4259 9.68985 26.1919 9.8484 25.8981 9.93741ZM23.8249 9.45341H24.7391C24.9676 9.45341 25.1417 9.40334 25.2615 9.3032C25.3866 9.1975 25.4492 9.04451 25.4492 8.84423C25.4492 8.64395 25.3866 8.49096 25.2615 8.38526C25.1417 8.27955 24.9676 8.2267 24.7391 8.2267H23.8249V9.45341ZM24.8533 11.79C25.0873 11.79 25.2669 11.7371 25.392 11.6314C25.5226 11.5202 25.5879 11.3616 25.5879 11.1558C25.5879 10.9499 25.5199 10.7886 25.3839 10.6718C25.2533 10.5549 25.071 10.4965 24.837 10.4965H23.8249V11.79H24.8533Z" fill="#002BDC"/>
<path d="M25 16H13" stroke="#002BDC" stroke-width="2" stroke-linecap="round" stroke-linejoin="round"/>
<path d="M14.5 4L19 1L23.5 4M8 8.5L1 14.1351V37H37V14.1351L30.5 8.5" stroke="#002BDC" stroke-width="2" stroke-linecap="round" stroke-linejoin="round"/>
<path d="M25 20H13" stroke="#002BDC" stroke-width="2" stroke-linecap="round" stroke-linejoin="round"/>
<path d="M8 20V4H30.5V20" stroke="#002BDC" stroke-width="2" stroke-linecap="round" stroke-linejoin="round"/>
<path d="M2 15L19 31L36 15" stroke="#002BDC" stroke-width="2" stroke-linecap="round" stroke-linejoin="round"/>
<path d="M37 37L24 26.5" stroke="#002BDC" stroke-width="2" stroke-linecap="round"/>
<path d="M1 37L15 26.5" stroke="#002BDC" stroke-width="2"/>
</svg>
