<svg width="34" height="37" viewBox="0 0 34 37" fill="none" xmlns="http://www.w3.org/2000/svg">
<path d="M0 1.5H34M6.18182 1.5V9.22727C6.18182 13.8636 13.9091 14.2268 13.9091 18.5C13.9091 22.7732 6.18182 23.1364 6.18182 27.7727V35.5M27.8182 1.5V9.22727C27.8182 13.8636 20.0909 14.2268 20.0909 18.5C20.0909 22.7732 27.8182 23.1364 27.8182 27.7727V35.5M0 35.5H34M13.9091 6.90909H20.0909V9.22727C20.0909 10.7727 17 12.3182 17 12.3182C17 12.3182 13.9091 10.7727 13.9091 9.22727V6.90909ZM10.8182 32.4091C10.8182 29.3182 17 26.2273 17 26.2273C17 26.2273 23.1818 29.3182 23.1818 32.4091V35.5H10.8182V32.4091Z" stroke="#002BDC" stroke-width="3"/>
</svg>
