<svg width="112" height="112" viewBox="0 0 112 112" fill="none" xmlns="http://www.w3.org/2000/svg">
<rect x="1.5" y="1.5" width="109" height="109" rx="10.5" stroke="#002BDC" stroke-width="3"/>
<path d="M66.9258 42.4142L45.8944 42.4142" stroke="#002BDC" stroke-width="3" stroke-linecap="round" stroke-linejoin="round"/>
<path d="M53.7812 34.5273L45.8945 34.5273" stroke="#002BDC" stroke-width="3" stroke-linecap="round" stroke-linejoin="round"/>
<path d="M39.7617 27.5163L49.4011 17M39.7617 27.5163H49.4011V17M39.7617 27.5163V46.7962M49.4011 17H73.0614V49.4252" stroke="#002BDC" stroke-width="3" stroke-linecap="round" stroke-linejoin="round"/>
<path d="M64.313 23.1074C64.7917 23.8272 65.3514 24.7812 65.4509 25.8485L67.982 25.8485C68.2287 25.8485 68.4286 26.1553 68.4286 26.5338C68.4286 26.9123 68.2287 27.2191 67.982 27.2191L65.4509 27.2191C65.2342 29.5437 63.7 31.3307 62.125 31.3307H59.2347L64.7249 37.4974C64.8993 37.765 64.8993 38.1989 64.7249 38.4665C64.5505 38.7341 64.2677 38.7341 64.0933 38.4665L57.8407 31.13C57.5593 30.6983 57.7586 29.9602 58.1565 29.9602H61.7294C62.8097 29.9602 63.7109 28.783 63.9178 27.2191H58.1565C57.9098 27.2191 57.7099 26.9123 57.7099 26.5338C57.7099 26.1553 57.9098 25.8485 58.1565 25.8485H63.9178C63.7109 24.2846 62.8097 23.1074 61.7294 23.1074H58.1565C57.9098 23.1074 57.7099 22.8006 57.7099 22.4222C57.7099 22.0437 57.9098 21.7369 58.1565 21.7369H61.7294H67.982C68.2287 21.7369 68.4286 22.0437 68.4286 22.4222C68.4286 22.8006 68.2287 23.1074 67.982 23.1074L64.313 23.1074Z" fill="#002BDC" stroke="#002BDC"/>
<path d="M41.1055 49.5923L42.5312 51.073C42.8164 51.3198 43.1016 51.5666 43.957 51.5666H50.9762" stroke="#002BDC" stroke-width="3"/>
<rect x="1.95346" y="0.826937" width="8.94471" height="24.474" rx="2.5" transform="matrix(0.926809 -0.375533 0.375495 0.926824 71.7153 47.0239)" stroke="#002BDC" stroke-width="3"/>
<rect x="-2.10123" y="0.290798" width="8.94486" height="22.9563" rx="2.5" transform="matrix(-0.797349 -0.603518 -0.603474 0.797383 40.3168 47.147)" stroke="#002BDC" stroke-width="3"/>
<rect x="-2.10123" y="0.290798" width="7.43594" height="12.8863" rx="3.71797" transform="matrix(-0.797349 -0.603518 -0.603474 0.797383 40.5492 70.1377)" stroke="#002BDC" stroke-width="3"/>
<rect x="-2.10123" y="0.290798" width="6.97056" height="12.5063" rx="3.48528" transform="matrix(-0.797349 -0.603518 -0.603474 0.797383 46.2231 75.259)" stroke="#002BDC" stroke-width="3"/>
<rect x="-2.10123" y="0.290798" width="6.44615" height="10.8252" rx="3.22307" transform="matrix(-0.797349 -0.603518 -0.603474 0.797383 51.3695 80.1568)" stroke="#002BDC" stroke-width="3"/>
<rect x="-2.10123" y="0.290798" width="5.9011" height="8.66795" rx="2.95055" transform="matrix(-0.797349 -0.603518 -0.603474 0.797383 56.1801 84.4868)" stroke="#002BDC" stroke-width="3"/>
<path d="M74.3429 48.2761L71.3763 50.3731C70.2339 50.9723 69.2996 51.2718 66.5854 50.6727L58.2788 49.1748C57.0922 48.8753 54.1256 48.7554 51.7523 50.6727L46.4123 56.065C45.226 57.2633 45.9378 59.7797 48.7858 60.259C50.1701 60.3589 53.2947 60.3189 54.7187 59.3603L56.202 58.4616C56.8942 58.0621 58.279 57.8624 60.3553 59.3603L72.2218 68.647C74.8922 70.4445 80.3948 70.804 82.0561 67.4487" stroke="#002BDC" stroke-width="3"/>
<path d="M76.0227 70.1649C76.5901 70.7779 77.5547 72.4943 75.739 74.456C75.1716 75.069 73.5262 75.7433 71.4836 74.7625L62.9727 68.0194" stroke="#002BDC" stroke-width="3" stroke-linecap="round"/>
<path d="M71.1995 74.5995C71.7911 75.2352 72.8507 77.4735 70.9577 79.5076C70.2124 80.3084 67.9908 81.0852 66.2107 80.0851L59.6836 75.4657" stroke="#002BDC" stroke-width="3" stroke-linecap="round"/>
<path d="M66.2635 80.194C67.2506 81.1811 67.7092 83.2325 66.2635 84.8006C65.687 85.4911 63.4119 86.3139 61.6771 85.2274L57.0508 81.1503" stroke="#002BDC" stroke-width="3" stroke-linecap="round"/>
<path d="M61.6985 85.1296C62.6015 86.4786 62.6015 88.367 61.0964 89.4462C60.4962 90.0401 58.6883 90.9203 56.8822 89.9857L55.0762 89.0782" stroke="#002BDC" stroke-width="3"/>
<path d="M29.4121 65.3871C30.7293 65.6613 34.0185 68.0194 32.0443 72.297" stroke="#002BDC" stroke-width="3"/>
</svg>
