<svg width="36" height="41" viewBox="0 0 36 41" fill="none" xmlns="http://www.w3.org/2000/svg">
<path d="M24 24L6 24" stroke="#002BDC" stroke-width="2" stroke-linecap="round" stroke-linejoin="round"/>
<path d="M24 9L14 9" stroke="#002BDC" stroke-width="2" stroke-linecap="round" stroke-linejoin="round"/>
<path d="M24 19L6 19" stroke="#002BDC" stroke-width="2" stroke-linecap="round" stroke-linejoin="round"/>
<path d="M24 14L6 14" stroke="#002BDC" stroke-width="2" stroke-linecap="round" stroke-linejoin="round"/>
<path d="M1 9V40H29V37M1 9L9.5 1M1 9H9.5V1M9.5 1H29V10.75V17" stroke="#002BDC" stroke-width="2" stroke-linecap="round" stroke-linejoin="round"/>
<path d="M6.45632 30.8817L6.75692 30.5926C6.98191 30.3749 7.10702 30.0747 7.10251 29.7629C6.99092 28.8278 7.64251 27.9909 8.62348 27.9981H8.96548C9.41907 28.0231 9.75746 27.7233 10.0455 27.4199C10.6381 26.8511 11.5822 26.8614 12.1622 27.4431C12.4592 27.7643 12.785 28.0927 13.2566 28.082H13.5914C14.4189 28.0976 15.0791 28.7712 15.071 29.5916V30.0467C15.0512 30.4464 15.2924 30.7836 15.5786 31.0406C16.1523 31.6321 16.1384 32.5711 15.548 33.1463L15.2636 33.4282C14.9504 33.7102 14.9036 34.1313 14.9126 34.5292C14.8968 35.3496 14.2173 36.004 13.3898 35.996C13.0046 35.9363 12.6131 36.0527 12.3242 36.3119L12.0452 36.5796C11.759 36.8552 11.3743 37.0065 10.9751 36.9998C10.5764 36.9935 10.1966 36.8303 9.91943 36.5456L9.61703 36.2369C9.30924 35.8961 8.85025 35.8801 8.42185 35.8801C7.59297 35.8671 6.93142 35.1922 6.94225 34.3704C6.96745 33.9457 6.95485 33.4996 6.62545 33.1855C5.89826 32.586 5.75787 31.5689 6.45625 30.8818L6.45632 30.8817ZM6.67952 32.7375C7.06876 33.0449 7.29871 33.5093 7.30591 34.0027V34.381C7.29691 35.006 7.80045 35.5203 8.43089 35.5301H8.82328C9.22196 35.5354 9.60221 35.6978 9.87986 35.9815L10.1823 36.292C10.6232 36.7413 11.3482 36.752 11.8022 36.3152L12.0794 36.0511C12.4349 35.7233 12.9195 35.5707 13.4006 35.6354C14.0306 35.6434 14.548 35.1447 14.558 34.5201V34.215C14.5625 33.8202 14.7263 33.4432 15.0134 33.1693L15.2924 32.9016C15.7428 32.4631 15.7531 31.7471 15.3158 31.2957C14.9333 30.9914 14.7096 30.5328 14.7056 30.0465V29.5915C14.7119 29.2926 14.598 29.004 14.3888 28.7885C14.0972 28.4691 13.6688 28.4316 13.2548 28.4405C12.8601 28.4365 12.4826 28.2782 12.2054 27.9998L11.8994 27.6982C11.458 27.2575 10.7415 27.2494 10.2902 27.6804L10.022 27.9391C9.73626 28.2148 9.35152 28.366 8.95283 28.3602H8.61083C8.30168 28.3544 8.00379 28.4744 7.78645 28.6921C7.51645 28.9799 7.39496 29.3747 7.45705 29.7628C7.462 30.1728 7.29775 30.5667 7.00166 30.8531L6.69927 31.1422C6.25512 31.5798 6.24617 32.2892 6.67952 32.7375Z" fill="#002BDC" stroke="#002BDC" stroke-width="1.5"/>
<path d="M32.1172 37H25.1172" stroke="#002BDC" stroke-width="2" stroke-linecap="round" stroke-linejoin="round"/>
<path d="M23.1181 33.9996L34.1181 34C34.6527 32 33.3861 31 32.6181 31H24.6181C23.1181 31 22.7848 32.9997 23.1181 33.9996Z" stroke="#002BDC" stroke-width="2" stroke-linecap="round" stroke-linejoin="round"/>
<path d="M32.0376 31C32.3704 29 31.582 28 31.104 28H26.1244C25.1907 28 24.9832 29.9997 25.1907 30.9996" stroke="#002BDC" stroke-width="2" stroke-linecap="round" stroke-linejoin="round"/>
<path d="M28.5 17C29.8055 17 30.8345 18.1115 30.7344 19.4131L30.0742 28H26.9258L26.2656 19.4131C26.1655 18.1115 27.1945 17 28.5 17Z" stroke="#002BDC" stroke-width="2"/>
<circle cx="11" cy="32" r="1" stroke="#002BDC" stroke-width="2"/>
</svg>
