<svg width="43" height="47" viewBox="0 0 43 47" fill="none" xmlns="http://www.w3.org/2000/svg">
<path d="M36 24H25" stroke="#144BCC" stroke-width="2" stroke-linecap="round" stroke-linejoin="round"/>
<path d="M25 14H20" stroke="#144BCC" stroke-width="2" stroke-linecap="round" stroke-linejoin="round"/>
<path d="M36 19H25" stroke="#144BCC" stroke-width="2" stroke-linecap="round" stroke-linejoin="round"/>
<path d="M29 5L36 5" stroke="#144BCC" stroke-width="2" stroke-linecap="round" stroke-linejoin="round"/>
<path d="M29 9L36 9" stroke="#144BCC" stroke-width="2" stroke-linecap="round" stroke-linejoin="round"/>
<path d="M31 5C34 5 36.5 11.5 29 12.5L34 16" stroke="#144BCC" stroke-width="2" stroke-linecap="round" stroke-linejoin="round"/>
<path d="M15 9L23.5 1M15 9H23.5V1M15 9V14.5M23.5 1H41V10V19V28" stroke="#144BCC" stroke-width="2" stroke-linecap="round" stroke-linejoin="round"/>
<path d="M7.31348 31.7524L13.2339 28.2691C14.3851 27.6056 17.2796 26.4777 19.6478 27.2738L28.5284 30.2598C29.4066 30.5915 31.0307 31.7527 30.5019 33.7431C30.0085 34.7384 29.0218 35.7336 26.5549 34.7384L19.6478 32.2503" stroke="#144BCC" stroke-width="2" stroke-linecap="round" stroke-linejoin="round"/>
<path d="M12.7412 40.7094C13.728 40.2118 15.2081 39.2165 18.6617 40.2118C20.219 40.6606 22.6086 42.2022 25.5689 40.7094L40.37 32.7475C42.7382 31.4736 42.0146 29.5627 41.3567 28.7665C40.37 27.5722 38.7254 27.9371 37.9031 28.2689L30.5026 32.2498" stroke="#144BCC" stroke-width="2" stroke-linecap="round" stroke-linejoin="round"/>
<path d="M28.0352 29.762L31.4888 28.096C32.311 27.7643 33.9556 27.3994 34.9424 28.5937" stroke="#144BCC" stroke-width="2" stroke-linecap="round" stroke-linejoin="round"/>
<rect x="1.36095" y="0.364653" width="4.92211" height="15.8139" rx="1" transform="matrix(0.864159 -0.503219 0.496788 0.867872 0.00371685 32.2731)" stroke="#144BCC" stroke-width="2"/>
<path d="M4 20L13 13L22 20" stroke="#144BCC" stroke-width="2" stroke-linecap="round" stroke-linejoin="round"/>
<path d="M7 17V14H9V15.7143" stroke="#144BCC" stroke-width="2" stroke-linejoin="round"/>
<path d="M11 29V21H16V27" stroke="#144BCC" stroke-width="2" stroke-linecap="round" stroke-linejoin="round"/>
<path d="M7 17V31.5M20 27V18" stroke="#144BCC" stroke-width="2"/>
</svg>
