<svg width="112" height="112" viewBox="0 0 112 112" fill="none" xmlns="http://www.w3.org/2000/svg">
<rect x="1.5" y="1.5" width="109" height="109" rx="10.5" fill="white"/>
<rect x="1.5" y="1.5" width="109" height="109" rx="10.5" stroke="#002BDC" stroke-width="3"/>
<path d="M39.0862 45.4274L23.6052 43.3017C21.3936 42.9474 20.7617 40.3246 20.7617 39.2617L20.8464 31.3314C20.8464 28.6886 22.769 27.8093 24.2855 27.8093H57.7618" stroke="#002BDC" stroke-width="3"/>
<path d="M22.5239 43.6664V70.095" stroke="#002BDC" stroke-width="3"/>
<path d="M54.2383 27.8094H31.3335V17.4761C31.3335 16.3715 32.2313 15.4761 33.3359 15.4761C40.4285 15.4761 45.1433 15.4761 52.2359 15.4761C53.3405 15.4761 54.2383 16.3715 54.2383 17.4761V20.7618" stroke="#002BDC" stroke-width="3"/>
<path d="M47.4524 22.2617V26.3096H38.1194V22.2617H47.4524Z" stroke="#002BDC" stroke-width="3"/>
<rect x="39.8811" y="38.1188" width="4.04764" height="11.0953" rx="1.5" stroke="#002BDC" stroke-width="3"/>
<path d="M31.8867 69.6589L42.318 63.5215C44.3463 62.3525 49.4461 60.3652 53.6186 61.768L69.2655 67.029C70.8128 67.6135 73.6743 69.6593 72.7426 73.1663C71.8734 74.9198 70.1348 76.6733 65.7884 74.9198L53.6186 70.536" stroke="#002BDC" stroke-width="3" stroke-linecap="round" stroke-linejoin="round"/>
<path d="M41.448 85.4404C43.1865 84.5637 45.7944 82.8101 51.8793 84.5637C54.6233 85.3544 58.8335 88.0707 64.0491 85.4404L90.1274 71.4123C94.2999 69.1677 93.025 65.801 91.8659 64.3982C90.1274 62.294 87.2298 62.9369 85.781 63.5214L72.7419 70.5355" stroke="#002BDC" stroke-width="3" stroke-linecap="round" stroke-linejoin="round"/>
<path d="M68.3958 66.1519L74.4807 63.2167C75.9295 62.6322 78.827 61.9893 80.5656 64.0935" stroke="#002BDC" stroke-width="3" stroke-linecap="round" stroke-linejoin="round"/>
<mask id="path-10-inside-1_3934_55" fill="white">
<rect width="12.1961" height="31.3865" rx="2" transform="matrix(0.864159 -0.503219 0.496788 0.867872 19 69.2845)"/>
</mask>
<rect width="12.1961" height="31.3865" rx="2" transform="matrix(0.864159 -0.503219 0.496788 0.867872 19 69.2845)" stroke="#002BDC" stroke-width="6" mask="url(#path-10-inside-1_3934_55)"/>
<path d="M59.5244 29.5714H73.4662C82.1742 29.5714 98.7357 47.9834 87.408 63.0477" stroke="#002BDC" stroke-width="3" stroke-linecap="round" stroke-linejoin="round"/>
<path d="M59.5237 29.5714C47.2501 32.1498 38.2115 48.9524 47.4777 61.2858" stroke="#002BDC" stroke-width="3" stroke-linecap="round" stroke-linejoin="round"/>
<path d="M63.2996 23.6559L64.9356 28.5641" stroke="#002BDC" stroke-width="3" stroke-linecap="round" stroke-linejoin="round"/>
<path d="M69.8447 23.6559L68.2087 28.5641" stroke="#002BDC" stroke-width="3" stroke-linecap="round" stroke-linejoin="round"/>
<path d="M78.9055 38.3807C80.7753 39.9672 84.7018 44.806 85.4497 51.4692" stroke="#002BDC" stroke-width="3" stroke-linecap="round" stroke-linejoin="round"/>
<path d="M59.9552 29.5713L54.483 21.3681C53.1963 17.8518 57.1622 13.096 62.4203 16.8495C63.5147 18.0214 67.0819 19.7024 70.584 17.8274C72.147 16.9906 75.2887 15.5532 77.8408 16.8495C78.8628 17.3687 82.3762 19.7845 79.6549 23.6994L73.0883 29.5713" stroke="#002BDC" stroke-width="3" stroke-linecap="round" stroke-linejoin="round"/>
<path d="M59.5237 38.3807H71.857" stroke="#002BDC" stroke-width="3" stroke-linecap="round" stroke-linejoin="round"/>
<path d="M59.5237 45.4283H71.857" stroke="#002BDC" stroke-width="3" stroke-linecap="round" stroke-linejoin="round"/>
<path d="M63.0475 38.3807C68.3332 38.3807 72.738 49.8331 59.5237 51.5951L68.3332 57.7617" stroke="#002BDC" stroke-width="3" stroke-linecap="round" stroke-linejoin="round"/>
</svg>
