<svg width="112" height="112" viewBox="0 0 112 112" fill="none" xmlns="http://www.w3.org/2000/svg">
<rect x="1.5" y="1.5" width="109" height="109" rx="10.5" stroke="#0B0B1E" stroke-width="3"/>
<path d="M88.7793 38.7303L69.4057 38.7303" stroke="#0B0B1E" stroke-width="3" stroke-linecap="round" stroke-linejoin="round"/>
<path d="M88.7793 46.4801H61.6562" stroke="#0B0B1E" stroke-width="3" stroke-linecap="round" stroke-linejoin="round"/>
<path d="M88.7793 69.7295L78.4467 69.7295" stroke="#0B0B1E" stroke-width="3" stroke-linecap="round" stroke-linejoin="round"/>
<path d="M88.7793 54.2299H70.6972" stroke="#0B0B1E" stroke-width="3" stroke-linecap="round" stroke-linejoin="round"/>
<path d="M88.7793 77.4802H75.8635" stroke="#0B0B1E" stroke-width="3" stroke-linecap="round" stroke-linejoin="round"/>
<path d="M88.7793 61.9786H78.4467" stroke="#0B0B1E" stroke-width="3" stroke-linecap="round" stroke-linejoin="round"/>
<path d="M88.7793 30.9805L69.4057 30.9805" stroke="#0B0B1E" stroke-width="3" stroke-linecap="round" stroke-linejoin="round"/>
<path d="M50.0352 36.4829L63.3661 23.0002M50.0352 36.4829H63.3661V23.0002M50.0352 36.4829V44.6689M50.0352 88.873H93.9487V23.0002H63.3661" stroke="#0B0B1E" stroke-width="3" stroke-linecap="round" stroke-linejoin="round"/>
<path d="M18.0527 60.9248L45.2522 41.6212L64.5551 56.5376" stroke="#0B0B1E" stroke-width="3" stroke-linecap="round" stroke-linejoin="round"/>
<path d="M25.0742 55.6534V42.4918H33.8483V50.3888" stroke="#0B0B1E" stroke-width="3" stroke-linejoin="round"/>
<path d="M38.2344 88.1231V69.6969H52.2728V88.1231" stroke="#0B0B1E" stroke-width="3" stroke-linecap="round" stroke-linejoin="round"/>
<path d="M25.0742 56.5349V88.9967H45.44L67.1896 89" stroke="#0B0B1E" stroke-width="3"/>
<path d="M44.8164 52.7719C47.1376 52.7719 49.0194 54.6536 49.0195 56.975C49.0195 59.2965 47.1377 61.1781 44.8164 61.1781C42.4951 61.1781 40.6133 59.2965 40.6133 56.975C40.6134 54.6536 42.4952 52.7719 44.8164 52.7719Z" stroke="#0B0B1E" stroke-width="3"/>
<path d="M67.1733 65.5829C67.7833 66.4218 68.4117 67.5338 68.5385 68.7779H72.1291C72.4434 68.7779 72.6982 69.1355 72.6982 69.5766C72.6982 70.0178 72.4434 70.3754 72.1291 70.3754H68.5385C68.2623 73.0849 66.1539 75.1678 64.1467 75.1678H60.9815L67.9782 82.3554C68.2005 82.6674 68.2005 83.1731 67.9782 83.485C67.7559 83.797 67.3956 83.797 67.1733 83.485L59.205 74.9338C58.8464 74.4307 59.1003 73.5703 59.6074 73.5703H64.1607C65.5375 73.5703 66.686 72.1983 66.9497 70.3754H59.6074C59.2931 70.3754 59.0383 70.0178 59.0383 69.5766C59.0383 69.1355 59.2931 68.7779 59.6074 68.7779H66.9497C66.686 66.955 65.5375 65.5829 64.1607 65.5829H59.6074C59.2931 65.5829 59.0383 65.2253 59.0383 64.7842C59.0383 64.3431 59.2931 63.9855 59.6074 63.9855H64.1607H72.1291C72.4434 63.9855 72.6982 64.3431 72.6982 64.7842C72.6982 65.2253 72.4434 65.5829 72.1291 65.5829H67.1733Z" fill="#0B0B1E" stroke="#0B0B1E"/>
</svg>
