<svg width="112" height="112" viewBox="0 0 112 112" fill="none" xmlns="http://www.w3.org/2000/svg">
<rect x="1.5" y="1.5" width="109" height="109" rx="10.5" stroke="#002BDC" stroke-width="3"/>
<path d="M88.7773 38.7301L69.4037 38.7301" stroke="#002BDC" stroke-width="3" stroke-linecap="round" stroke-linejoin="round"/>
<path d="M88.7773 46.4799H61.6543" stroke="#002BDC" stroke-width="3" stroke-linecap="round" stroke-linejoin="round"/>
<path d="M88.7773 69.7292L78.4447 69.7292" stroke="#002BDC" stroke-width="3" stroke-linecap="round" stroke-linejoin="round"/>
<path d="M88.7773 54.2296H70.6953" stroke="#002BDC" stroke-width="3" stroke-linecap="round" stroke-linejoin="round"/>
<path d="M88.7773 77.48H75.8616" stroke="#002BDC" stroke-width="3" stroke-linecap="round" stroke-linejoin="round"/>
<path d="M88.7773 61.9784H78.4447" stroke="#002BDC" stroke-width="3" stroke-linecap="round" stroke-linejoin="round"/>
<path d="M88.7773 30.9802L69.4037 30.9802" stroke="#002BDC" stroke-width="3" stroke-linecap="round" stroke-linejoin="round"/>
<path d="M50.0332 36.4827L63.3641 22.9999M50.0332 36.4827H63.3641V22.9999M50.0332 36.4827V44.6686M50.0332 88.8728H93.9468V22.9999H63.3641" stroke="#002BDC" stroke-width="3" stroke-linecap="round" stroke-linejoin="round"/>
<path d="M18.0508 60.9246L45.2503 41.621L64.5532 56.5374" stroke="#002BDC" stroke-width="3" stroke-linecap="round" stroke-linejoin="round"/>
<path d="M25.0723 55.6531V42.4916H33.8463V50.3885" stroke="#002BDC" stroke-width="3" stroke-linejoin="round"/>
<path d="M38.2324 88.1228V69.6967H52.2709V88.1228" stroke="#002BDC" stroke-width="3" stroke-linecap="round" stroke-linejoin="round"/>
<path d="M25.0723 56.5347V88.9964H45.438L67.1876 88.9997" stroke="#002BDC" stroke-width="3"/>
<path d="M44.8145 52.7716C47.1356 52.7716 49.0175 54.6533 49.0176 56.9747C49.0176 59.2962 47.1357 61.1779 44.8145 61.1779C42.4932 61.1779 40.6113 59.2962 40.6113 56.9747C40.6114 54.6533 42.4933 52.7716 44.8145 52.7716Z" stroke="#002BDC" stroke-width="3"/>
<path d="M67.1713 65.5827C67.7814 66.4216 68.4097 67.5336 68.5365 68.7777H72.1271C72.4415 68.7777 72.6963 69.1353 72.6963 69.5764C72.6963 70.0175 72.4415 70.3751 72.1271 70.3751H68.5365C68.2603 73.0847 66.1519 75.1675 64.1448 75.1675H60.9796L67.9763 82.3552C68.1985 82.6671 68.1985 83.1729 67.9763 83.4848C67.754 83.7967 67.3936 83.7967 67.1713 83.4848L59.203 74.9336C58.8444 74.4304 59.0984 73.5701 59.6055 73.5701H64.1588C65.5356 73.5701 66.684 72.198 66.9477 70.3751H59.6055C59.2911 70.3751 59.0363 70.0175 59.0363 69.5764C59.0363 69.1353 59.2911 68.7777 59.6055 68.7777H66.9477C66.684 66.9547 65.5356 65.5827 64.1588 65.5827H59.6055C59.2911 65.5827 59.0363 65.2251 59.0363 64.784C59.0363 64.3428 59.2911 63.9852 59.6055 63.9852H64.1588H72.1271C72.4415 63.9852 72.6963 64.3428 72.6963 64.784C72.6963 65.2251 72.4415 65.5827 72.1271 65.5827H67.1713Z" fill="#002BDC" stroke="#002BDC"/>
</svg>
