<svg width="444" height="422" viewBox="0 0 444 422" fill="none" xmlns="http://www.w3.org/2000/svg">
<path d="M254.616 421.905C359.21 421.905 444 416.488 444 409.805C444 403.123 359.21 397.706 254.616 397.706C150.023 397.706 65.2327 403.123 65.2327 409.805C65.2327 416.488 150.023 421.905 254.616 421.905Z" fill="#D3DCE2"/>
<path d="M63.4562 97.3839C47.5785 144.345 54.815 197.996 80.3366 240.494C105.859 282.99 148.726 314.149 196.343 327.937C230.298 337.769 267.517 338.944 300.53 326.304C338.351 311.822 368.636 278.962 379.988 240.087C391.341 201.211 383.501 157.218 359.418 124.657C345.533 105.885 326.964 91.1626 311.225 73.9171C297.429 58.8011 285.727 41.6608 270.18 28.3514C216.237 -17.8288 135.453 -4.93074 91.4271 47.7642C79.1887 62.4141 69.5743 79.2893 63.4562 97.3839Z" fill="#EAEAED"/>
<path d="M430.955 208.562H148.385V215.752H430.955V208.562Z" fill="#00A6E7"/>
<path d="M377.948 224.705L157.381 339.866L157.816 340.698L378.383 225.537L377.948 224.705Z" fill="#051028"/>
<path d="M420.249 215.752H159.091V219.347H420.249V215.752Z" fill="#0478A6"/>
<path d="M381.325 219.347H373.655L398.264 371.353H401.459L381.325 219.347Z" fill="#00A6E7"/>
<path d="M408.077 219.347H400.407L425.014 371.353H428.21L408.077 219.347Z" fill="#00A6E7"/>
<path d="M198.014 219.347H205.684L181.076 371.353H177.88L198.014 219.347Z" fill="#308983"/>
<path d="M171.263 219.347H178.933L154.324 371.353H151.129L171.263 219.347Z" fill="#308983"/>
<path d="M175.178 224.638L174.744 225.47L395.261 340.755L395.696 339.923L175.178 224.638Z" fill="#051028"/>
<path d="M104.161 2.10449H47.3459V71.9795H104.161V2.10449Z" fill="#B1B1B1"/>
<path d="M93.5393 11.8997H57.9636V62.1836H93.5393V11.8997Z" fill="#EAEAED"/>
<path d="M399.81 116.787H342.995V186.662H399.81V116.787Z" fill="#B1B1B1"/>
<path d="M389.189 126.582H353.613V176.866H389.189V126.582Z" fill="#EAEAED"/>
<path d="M349.308 42.0852H292.493V101.439H349.308V42.0852Z" fill="#B1B1B1"/>
<path d="M340.891 50.5029H300.91V92.5882H340.891V50.5029Z" fill="#EAEAED"/>
<path d="M20.9284 218.098H57.7961L51.4002 251.553H9.09082L14.4641 223.444C15.0575 220.341 17.7699 218.098 20.9284 218.098Z" fill="#00A6E7"/>
<path d="M38.938 251.552H108.471L121.111 184.24C121.871 180.189 118.764 176.444 114.642 176.444H58.5013C55.3344 176.444 52.6178 178.699 52.0328 181.811L38.938 251.552Z" fill="#00A6E7"/>
<path d="M77.9984 218.098H114.866L108.47 251.553H66.1609L71.5341 223.444C72.1275 220.341 74.8399 218.098 77.9984 218.098Z" fill="#0478A6"/>
<path d="M99.3012 251.553L119.312 370.909H116.31L90.5127 251.553H99.3012Z" fill="#308983"/>
<path d="M68.2846 251.552L48.2751 370.908H51.2758L77.073 251.552H68.2846Z" fill="#00A6E7"/>
<path d="M55.1038 278.423L9.03857 329.546L9.76627 330.202L55.8315 279.079L55.1038 278.423Z" fill="#051028"/>
<path d="M16.9601 278.459L16.2329 279.116L62.3395 330.205L63.0667 329.548L16.9601 278.459Z" fill="#051028"/>
<path d="M51.0265 251.552L71.037 370.908H68.0353L42.238 251.552H51.0265Z" fill="#00A6E7"/>
<path d="M20.0094 251.552L0 370.908H3.00068L28.7979 251.552H20.0094Z" fill="#00A6E7"/>
<path d="M103.506 278.42L57.4404 329.544L58.1681 330.199L104.233 279.076L103.506 278.42Z" fill="#308983"/>
<path d="M65.3375 278.45L64.6104 279.107L110.717 330.189L111.444 329.532L65.3375 278.45Z" fill="#308983"/>
<path d="M108.47 251.553H9.02979V257.183H108.47V251.553Z" fill="#0478A6"/>
<path d="M38.8347 59.6265C0.727537 59.6265 4.28901 146.348 4.28901 146.348H94.3936V59.6265H38.8347Z" fill="#002BDC"/>
<path d="M215.219 59.6262H38.8342C104.543 59.6262 24.4105 371.61 122.173 371.61H298.556C200.794 371.61 280.928 59.6262 215.219 59.6262Z" fill="white"/>
<path d="M248.249 287.203C193.136 287.203 175.595 371.61 122.173 371.61H298.557C351.979 371.61 369.52 287.203 424.633 287.203H248.249Z" fill="#002BDC"/>
<path d="M97.2411 124.154L96.1351 110.198L101.595 110.198C102.822 110.198 103.884 110.391 104.781 110.776C105.678 111.162 106.389 111.72 106.914 112.451C107.438 113.182 107.741 114.052 107.821 115.063C107.901 116.073 107.736 116.943 107.328 117.674C106.918 118.392 106.295 118.944 105.459 119.329C104.623 119.715 103.591 119.907 102.365 119.907L98.0046 119.907L98.8319 118.99L99.2411 124.154L97.2411 124.154ZM106.601 124.154L102.64 119.09L104.78 119.09L108.781 124.154L106.601 124.154ZM98.8477 119.189L97.8703 118.212L102.17 118.213C103.45 118.213 104.395 117.94 105.005 117.395C105.628 116.837 105.9 116.059 105.821 115.063C105.742 114.066 105.347 113.295 104.637 112.75C103.941 112.205 102.953 111.932 101.673 111.932L97.3726 111.932L98.1936 110.935L98.8477 119.189ZM116.222 124.274C115.088 124.274 114.07 124.041 113.167 123.576C112.276 123.111 111.559 122.473 111.015 121.662C110.484 120.851 110.177 119.921 110.094 118.871C110.01 117.821 110.163 116.89 110.552 116.08C110.955 115.269 111.538 114.637 112.302 114.186C113.079 113.72 113.974 113.488 114.987 113.488C116.014 113.488 116.938 113.714 117.761 114.166C118.583 114.618 119.247 115.256 119.752 116.08C120.27 116.891 120.572 117.841 120.658 118.931C120.665 119.011 120.665 119.104 120.661 119.21C120.669 119.316 120.67 119.416 120.664 119.509L111.644 119.509L111.535 118.133L119.555 118.133L118.813 118.612C118.773 117.934 118.585 117.329 118.249 116.798C117.914 116.266 117.475 115.854 116.931 115.561C116.4 115.256 115.795 115.103 115.115 115.103C114.448 115.103 113.867 115.256 113.371 115.561C112.875 115.854 112.501 116.272 112.251 116.817C112 117.349 111.902 117.96 111.956 118.652L111.982 118.971C112.037 119.675 112.247 120.306 112.612 120.865C112.988 121.41 113.482 121.835 114.093 122.141C114.704 122.446 115.389 122.599 116.149 122.599C116.776 122.599 117.334 122.493 117.824 122.28C118.327 122.068 118.755 121.749 119.108 121.323L120.266 122.56C119.83 123.118 119.264 123.543 118.567 123.835C117.884 124.128 117.102 124.274 116.222 124.274ZM128.128 124.274C127.101 124.274 126.163 124.048 125.314 123.596C124.478 123.144 123.795 122.513 123.264 121.702C122.733 120.891 122.425 119.948 122.34 118.871C122.254 117.795 122.414 116.857 122.817 116.06C123.219 115.249 123.803 114.618 124.567 114.166C125.344 113.714 126.246 113.488 127.273 113.488C128.193 113.488 129.029 113.688 129.781 114.086C130.532 114.485 131.146 115.083 131.623 115.881C132.113 116.678 132.405 117.675 132.5 118.871C132.595 120.068 132.454 121.065 132.077 121.862C131.713 122.66 131.188 123.264 130.501 123.676C129.812 124.075 129.021 124.274 128.128 124.274ZM128.155 122.6C128.822 122.6 129.41 122.447 129.919 122.141C130.441 121.835 130.834 121.403 131.096 120.845C131.371 120.274 131.479 119.616 131.42 118.871C131.36 118.114 131.148 117.462 130.785 116.918C130.434 116.359 129.973 115.927 129.402 115.622C128.845 115.316 128.233 115.163 127.566 115.163C126.886 115.163 126.291 115.316 125.782 115.621C125.273 115.927 124.881 116.359 124.605 116.917C124.328 117.462 124.22 118.114 124.28 118.871C124.339 119.616 124.551 120.273 124.916 120.845C125.28 121.403 125.741 121.835 126.299 122.141C126.856 122.447 127.475 122.6 128.155 122.6ZM132.125 128.023L131.596 121.344L131.601 118.891L131.287 116.439L131.061 113.588L132.901 113.588L134.045 128.023L132.125 128.023ZM141.841 124.275C140.934 124.275 140.121 124.109 139.401 123.776C138.695 123.444 138.122 122.939 137.681 122.261C137.253 121.57 136.998 120.706 136.916 119.669L136.434 113.588L138.354 113.588L138.818 119.45C138.901 120.487 139.209 121.264 139.743 121.783C140.291 122.301 141.018 122.56 141.925 122.56C142.592 122.56 143.161 122.427 143.633 122.161C144.104 121.882 144.453 121.484 144.678 120.965C144.903 120.434 144.986 119.796 144.927 119.051L144.494 113.588L146.414 113.588L147.251 124.155L145.431 124.155L145.205 121.304L145.565 122.062C145.275 122.766 144.798 123.311 144.135 123.697C143.472 124.082 142.707 124.275 141.841 124.275ZM150.906 124.155L150.069 113.589L151.989 113.589L152.826 124.155L150.906 124.155ZM150.868 111.555C150.495 111.555 150.172 111.435 149.899 111.196C149.64 110.957 149.497 110.664 149.47 110.319C149.441 109.96 149.538 109.661 149.759 109.422C149.993 109.182 150.297 109.063 150.67 109.063C151.044 109.063 151.36 109.182 151.619 109.422C151.89 109.648 152.039 109.933 152.067 110.279C152.095 110.638 151.999 110.944 151.779 111.196C151.558 111.435 151.255 111.555 150.868 111.555ZM156.492 124.156L155.655 113.589L157.495 113.589L157.722 116.46L157.486 115.742C157.721 115.011 158.17 114.453 158.833 114.067C159.496 113.682 160.334 113.489 161.347 113.489L161.494 115.343C161.413 115.33 161.332 115.323 161.252 115.323C161.186 115.323 161.119 115.323 161.052 115.323C160.026 115.323 159.237 115.629 158.685 116.24C158.134 116.852 157.904 117.736 157.995 118.892L158.412 124.156L156.492 124.156ZM169.191 124.276C168.057 124.276 167.039 124.043 166.135 123.578C165.245 123.112 164.528 122.474 163.984 121.664C163.453 120.853 163.146 119.922 163.062 118.872C162.979 117.822 163.132 116.892 163.521 116.081C163.924 115.27 164.507 114.639 165.271 114.187C166.048 113.722 166.942 113.489 167.956 113.489C168.982 113.489 169.907 113.715 170.73 114.167C171.552 114.619 172.216 115.257 172.721 116.081C173.239 116.892 173.541 117.843 173.627 118.932C173.633 119.012 173.634 119.105 173.629 119.212C173.638 119.318 173.639 119.418 173.633 119.511L164.613 119.51L164.504 118.135L172.524 118.135L171.782 118.613C171.741 117.936 171.554 117.331 171.218 116.799C170.883 116.267 170.443 115.855 169.9 115.563C169.369 115.257 168.764 115.104 168.084 115.104C167.417 115.104 166.836 115.257 166.34 115.563C165.843 115.855 165.47 116.274 165.22 116.819C164.968 117.351 164.87 117.962 164.925 118.653L164.95 118.972C165.006 119.677 165.216 120.308 165.58 120.866C165.957 121.411 166.451 121.837 167.062 122.142C167.672 122.448 168.358 122.601 169.118 122.601C169.745 122.601 170.303 122.495 170.793 122.282C171.296 122.069 171.724 121.75 172.077 121.325L173.235 122.561C172.799 123.119 172.233 123.545 171.536 123.837C170.852 124.129 170.071 124.276 169.191 124.276ZM181.097 124.276C180.07 124.276 179.132 124.05 178.283 123.598C177.447 123.146 176.764 122.515 176.233 121.704C175.702 120.893 175.394 119.949 175.309 118.873C175.223 117.796 175.382 116.859 175.786 116.062C176.188 115.251 176.771 114.619 177.536 114.168C178.313 113.716 179.215 113.49 180.242 113.49C181.135 113.49 181.958 113.689 182.709 114.088C183.461 114.487 184.082 115.085 184.572 115.882C185.075 116.68 185.374 117.677 185.469 118.873C185.563 120.069 185.429 121.066 185.065 121.864C184.715 122.661 184.197 123.266 183.509 123.678C182.821 124.077 182.017 124.276 181.097 124.276ZM181.124 122.601C181.791 122.601 182.379 122.448 182.888 122.143C183.41 121.837 183.802 121.405 184.065 120.847C184.34 120.275 184.447 119.617 184.389 118.873C184.328 118.115 184.117 117.464 183.754 116.919C183.403 116.361 182.942 115.929 182.371 115.623C181.813 115.317 181.201 115.165 180.535 115.165C179.855 115.165 179.26 115.317 178.751 115.623C178.242 115.929 177.849 116.361 177.574 116.919C177.297 117.464 177.188 118.115 177.249 118.873C177.307 119.617 177.52 120.275 177.885 120.847C178.249 121.405 178.71 121.837 179.268 122.143C179.825 122.448 180.444 122.601 181.124 122.601ZM184.867 124.156L184.641 121.305L184.567 118.853L184.173 116.401L183.615 109.363L185.535 109.363L186.707 124.157L184.867 124.156Z" fill="#002BDC"/>
<path d="M94.6343 97.4272L92.7374 83.5563L99.0974 83.5568C100.617 83.5569 101.997 83.8477 103.237 84.429C104.474 84.9972 105.49 85.7965 106.285 86.8269C107.079 87.8574 107.573 89.0794 107.766 90.4929C107.957 91.8932 107.798 93.1151 107.287 94.1587C106.775 95.189 105.978 95.9948 104.898 96.576C103.816 97.1439 102.514 97.4278 100.994 97.4277L94.6343 97.4272ZM97.5139 94.792L100.474 94.7922C101.407 94.7923 102.19 94.6206 102.823 94.2772C103.468 93.9206 103.933 93.4186 104.218 92.7714C104.516 92.1241 104.605 91.3645 104.486 90.4926C104.365 89.6075 104.068 88.8479 103.594 88.2138C103.132 87.5665 102.531 87.071 101.791 86.7275C101.062 86.3708 100.231 86.1924 99.2978 86.1923L96.3378 86.192L97.5139 94.792ZM116.079 97.5874C114.933 97.5874 113.88 97.3495 112.922 96.8738C111.977 96.3982 111.188 95.7508 110.556 94.9317C109.936 94.0995 109.553 93.1549 109.409 92.0981C109.262 91.028 109.387 90.0835 109.781 89.2645C110.187 88.4323 110.799 87.785 111.616 87.3227C112.444 86.8472 113.431 86.6095 114.578 86.6096C115.711 86.6097 116.757 86.8476 117.716 87.3232C118.672 87.7857 119.46 88.4264 120.079 89.2455C120.697 90.0646 121.081 91.0158 121.229 92.099C121.373 93.1558 121.249 94.1004 120.856 94.9326C120.462 95.7516 119.85 96.3988 119.022 96.8743C118.194 97.3498 117.213 97.5875 116.079 97.5874ZM115.733 95.0511C116.253 95.0511 116.703 94.9322 117.084 94.6945C117.465 94.4567 117.745 94.1199 117.926 93.684C118.104 93.2348 118.152 92.7064 118.069 92.0988C117.984 91.4779 117.792 90.9494 117.492 90.5135C117.192 90.0775 116.82 89.7406 116.374 89.5028C115.928 89.265 115.445 89.1461 114.925 89.146C114.405 89.146 113.955 89.2648 113.574 89.5026C113.193 89.7403 112.906 90.0772 112.712 90.5131C112.532 90.949 112.484 91.4774 112.569 92.0983C112.652 92.706 112.844 93.2344 113.146 93.6836C113.459 94.1195 113.838 94.4564 114.284 94.6943C114.73 94.9321 115.213 95.051 115.733 95.0511ZM129.265 97.5885C128.105 97.5884 127.04 97.3571 126.07 96.8947C125.098 96.4191 124.296 95.7651 123.662 94.9328C123.041 94.1005 122.659 93.1559 122.514 92.0991C122.368 91.0291 122.492 90.0845 122.887 89.2655C123.293 88.4333 123.918 87.7861 124.761 87.3238C125.603 86.8483 126.604 86.6106 127.764 86.6107C128.897 86.6108 129.916 86.8486 130.821 87.3243C131.724 87.7867 132.436 88.4539 132.955 89.3258L130.711 90.6136C130.362 90.1116 129.958 89.7417 129.499 89.5039C129.053 89.266 128.584 89.1471 128.09 89.1471C127.557 89.147 127.093 89.2659 126.699 89.5036C126.305 89.7414 126.011 90.0782 125.817 90.5141C125.637 90.9501 125.589 91.4785 125.674 92.0994C125.759 92.7202 125.951 93.2487 126.251 93.6846C126.564 94.1206 126.95 94.4575 127.409 94.6953C127.868 94.9331 128.365 95.0521 128.898 95.0521C129.391 95.0521 129.829 94.9399 130.212 94.7154C130.606 94.4776 130.908 94.1011 131.118 93.5859L133.716 94.894C133.434 95.7526 132.905 96.4197 132.13 96.8952C131.353 97.3575 130.398 97.5886 129.265 97.5885ZM140.421 97.5894C139.528 97.5893 138.705 97.4175 137.951 97.074C137.211 96.7305 136.599 96.2086 136.117 95.5084C135.633 94.795 135.315 93.8901 135.166 92.7937L134.342 86.7697L137.462 86.77L138.223 92.3382C138.344 93.2232 138.62 93.8772 139.051 94.2999C139.494 94.7095 140.062 94.9143 140.755 94.9143C141.235 94.9144 141.649 94.8153 141.995 94.6172C142.339 94.4059 142.589 94.0889 142.745 93.6661C142.898 93.2302 142.931 92.6886 142.843 92.0413L142.122 86.7704L145.242 86.7706L146.7 97.4314L143.74 97.4311L143.339 94.4984L143.995 95.3505C143.736 96.0903 143.28 96.6517 142.625 97.0347C141.983 97.4046 141.248 97.5895 140.421 97.5894ZM161.89 86.6134C162.744 86.6135 163.521 86.7853 164.221 87.1288C164.933 87.4591 165.523 87.9744 165.992 88.6745C166.473 89.3615 166.787 90.2466 166.935 91.3299L167.77 97.4331L164.65 97.4328L163.881 91.8052C163.763 90.9465 163.496 90.3124 163.08 89.9029C162.664 89.4933 162.13 89.2885 161.476 89.2884C161.023 89.2884 160.631 89.3941 160.3 89.6054C159.967 89.8035 159.728 90.1073 159.584 90.5168C159.44 90.9264 159.412 91.4482 159.498 92.0823L160.23 97.4325L157.11 97.4322L156.341 91.8046C156.223 90.9459 155.956 90.3118 155.54 89.9022C155.138 89.4927 154.61 89.2879 153.956 89.2878C153.503 89.2878 153.111 89.3935 152.78 89.6048C152.447 89.8029 152.208 90.1067 152.064 90.5162C151.92 90.9258 151.892 91.4476 151.978 92.0817L152.71 97.4319L149.59 97.4316L148.132 86.7708L151.112 86.7711L151.511 89.684L150.834 88.8318C151.108 88.1053 151.56 87.5571 152.189 87.1873C152.83 86.8042 153.59 86.6127 154.47 86.6128C155.457 86.6129 156.351 86.864 157.153 87.366C157.967 87.8549 158.563 88.6079 158.942 89.6251L157.802 89.3278C158.048 88.4956 158.531 87.8351 159.251 87.3464C159.984 86.8576 160.864 86.6133 161.89 86.6134ZM176.006 97.5922C174.78 97.5921 173.667 97.3543 172.669 96.8786C171.684 96.403 170.882 95.7556 170.263 94.9365C169.643 94.1042 169.26 93.1597 169.116 92.1028C168.97 91.0328 169.087 90.0883 169.468 89.2693C169.861 88.4371 170.459 87.7898 171.263 87.3275C172.064 86.852 173.012 86.6143 174.105 86.6144C175.159 86.6145 176.136 86.8391 177.037 87.2883C177.95 87.7244 178.71 88.3585 179.317 89.1908C179.923 90.0099 180.304 90.9941 180.461 92.1434C180.478 92.2623 180.49 92.401 180.498 92.5595C180.505 92.7048 180.51 92.8435 180.515 92.9756L171.775 92.9749L171.528 91.1717L178.628 91.1723L177.502 91.7072C177.426 91.1524 177.246 90.6702 176.964 90.2606C176.681 89.8511 176.324 89.534 175.894 89.3094C175.461 89.0716 174.978 88.9527 174.445 88.9526C173.912 88.9526 173.455 89.0714 173.074 89.3092C172.704 89.5337 172.435 89.8574 172.267 90.2801C172.096 90.6896 172.049 91.1784 172.127 91.7464L172.192 92.222C172.272 92.8032 172.469 93.3184 172.783 93.7676C173.11 94.2036 173.522 94.5405 174.022 94.7783C174.532 95.0029 175.108 95.1152 175.748 95.1153C176.321 95.1153 176.809 95.0295 177.213 94.8578C177.629 94.6861 177.994 94.4285 178.307 94.0851L180.211 95.8686C179.793 96.4234 179.232 96.8527 178.527 97.1565C177.82 97.4471 176.98 97.5923 176.006 97.5922ZM188.322 86.6155C189.176 86.6156 189.959 86.7874 190.673 87.1309C191.398 87.4612 192.002 87.9765 192.484 88.6767C192.965 89.3636 193.279 90.2487 193.427 91.332L194.262 97.4352L191.142 97.4349L190.372 91.8073C190.255 90.9486 189.975 90.3145 189.532 89.905C189.103 89.4954 188.542 89.2906 187.848 89.2906C187.355 89.2905 186.923 89.3962 186.552 89.6075C186.192 89.8056 185.928 90.116 185.759 90.5388C185.603 90.9615 185.571 91.5031 185.661 92.1636L186.382 97.4345L183.262 97.4343L181.804 86.7735L184.784 86.7738L185.188 89.7263L184.506 88.8345C184.795 88.1212 185.273 87.573 185.941 87.19C186.609 86.8069 187.402 86.6155 188.322 86.6155ZM201.512 97.5943C200.245 97.5942 199.215 97.277 198.422 96.6429C197.627 95.9955 197.142 95.0378 196.969 93.7696L195.69 84.4166L198.81 84.4169L200.083 93.7302C200.145 94.1793 200.313 94.5294 200.587 94.7804C200.86 95.0182 201.202 95.1372 201.616 95.1372C202.109 95.1372 202.511 95.0052 202.822 94.741L203.96 96.9208C203.67 97.1453 203.307 97.317 202.87 97.4359C202.445 97.5415 201.992 97.5943 201.512 97.5943ZM194.71 89.3902L194.385 87.0123L201.845 87.0129L202.17 89.3908L194.71 89.3902Z" fill="#002BDC"/>
<path d="M135.917 151.425H220.087" stroke="#9EAFAE" stroke-width="6" stroke-miterlimit="10" stroke-linecap="round" stroke-linejoin="round"/>
<path d="M135.917 188.25H220.087" stroke="#9EAFAE" stroke-width="6" stroke-miterlimit="10" stroke-linecap="round" stroke-linejoin="round"/>
<path d="M135.917 226.127H220.087" stroke="#9EAFAE" stroke-width="6" stroke-miterlimit="10" stroke-linecap="round" stroke-linejoin="round"/>
<path d="M135.917 164.051H162.22" stroke="#9EAFAE" stroke-width="6" stroke-miterlimit="10" stroke-linecap="round" stroke-linejoin="round"/>
<path d="M135.917 200.875H162.22" stroke="#9EAFAE" stroke-width="6" stroke-miterlimit="10" stroke-linecap="round" stroke-linejoin="round"/>
<path d="M135.917 238.752H162.22" stroke="#9EAFAE" stroke-width="6" stroke-miterlimit="10" stroke-linecap="round" stroke-linejoin="round"/>
<path d="M91.5361 157.294L99.9532 164.133L116.787 149.403" stroke="#9EAFAE" stroke-width="6" stroke-linecap="round"/>
<path d="M91.5361 194.119L99.9532 200.958L116.787 186.228" stroke="#9EAFAE" stroke-width="6" stroke-linecap="round"/>
<path d="M91.5361 231.996L99.9532 238.835L116.787 224.105" stroke="#9EAFAE" stroke-width="6" stroke-linecap="round"/>
<path d="M299.194 414.917L299.148 415.246C299.103 415.735 299.048 416.205 298.963 416.714C298.867 417.134 298.791 417.594 298.706 418.063L248.397 418.556C248.397 418.556 248.312 418.039 248.305 417.221C248.32 416.802 248.346 416.313 248.43 415.744C248.449 415.644 248.457 415.524 248.496 415.415C249.017 412.577 251.042 408.648 257.901 407.324C258.229 407.241 258.578 407.197 258.956 407.144H258.986C259.524 407.059 260.061 407.004 260.64 406.948C260.829 406.937 261.019 406.914 261.208 406.903C274.958 405.691 281.007 401.014 281.007 401.014C281.007 401.014 289 402.531 296.464 400.863C296.464 400.863 297.355 402.31 298.158 404.835C298.282 405.263 298.416 405.72 298.541 406.207C298.571 406.297 298.592 406.397 298.623 406.506C298.674 406.696 298.717 406.914 298.759 407.133C298.769 407.193 298.79 407.272 298.79 407.332C298.791 407.382 298.821 407.402 298.821 407.442C299.03 408.477 299.191 409.612 299.263 410.838C299.336 412.113 299.339 413.48 299.194 414.917Z" fill="#0B0B1E"/>
<path d="M276.017 401.897C276.186 401.738 276.411 401.619 276.65 401.628C276.904 401.636 277.09 401.73 277.289 401.885C277.619 402.14 277.952 402.39 278.28 402.648C278.749 403.018 279.254 403.338 279.748 403.675C279.945 403.81 280.099 403.973 280.167 404.209C280.228 404.423 280.205 404.711 280.082 404.902C279.84 405.286 279.271 405.521 278.856 405.237C277.893 404.577 276.951 403.885 276.031 403.168C275.861 403.037 275.763 402.739 275.761 402.535C275.757 402.315 275.853 402.051 276.017 401.897Z" fill="white"/>
<path d="M272.471 403.533C272.805 403.221 273.412 403.143 273.743 403.52C274.409 404.28 275.15 404.968 275.953 405.582C276.081 405.676 276.209 405.771 276.341 405.862C276.538 405.998 276.691 406.159 276.76 406.396C276.821 406.611 276.797 406.898 276.676 407.09C276.435 407.472 275.863 407.711 275.45 407.425C274.361 406.672 273.358 405.801 272.485 404.805C272.325 404.623 272.218 404.421 272.215 404.172C272.211 403.952 272.307 403.688 272.471 403.533Z" fill="white"/>
<path d="M269.209 404.729C269.378 404.57 269.602 404.451 269.842 404.459C270.063 404.467 270.337 404.535 270.481 404.716L272.546 407.318C272.701 407.514 272.814 407.69 272.816 407.951C272.818 408.172 272.722 408.436 272.558 408.59C272.388 408.749 272.164 408.868 271.924 408.859C271.704 408.852 271.43 408.784 271.286 408.602L269.221 406.001C269.066 405.805 268.953 405.628 268.951 405.367C268.95 405.146 269.045 404.882 269.209 404.729Z" fill="white"/>
<path d="M265.586 405.611C266.176 405.292 266.99 405.621 266.967 406.542C267.271 407.041 267.494 407.407 267.797 407.905C268.499 408.162 268.477 409.159 267.896 409.473C267.306 409.792 266.495 409.464 266.515 408.546C266.211 408.047 265.987 407.678 265.683 407.18C264.983 406.92 265.005 405.925 265.586 405.611Z" fill="white"/>
<path d="M299.155 415.679C299.101 416.155 299.047 416.638 298.956 417.134C298.873 417.571 298.8 418.026 298.698 418.492L248.401 418.986C248.401 418.986 248.308 418.473 248.301 417.65C248.317 417.223 248.341 416.729 248.431 416.177L299.155 415.679Z" fill="#FFD44D"/>
<path d="M340.912 414.917L340.959 415.246C341.004 415.735 341.059 416.205 341.144 416.714C341.24 417.134 341.314 417.594 341.401 418.063L391.709 418.556C391.709 418.556 391.795 418.039 391.802 417.221C391.786 416.802 391.761 416.313 391.677 415.744C391.658 415.644 391.649 415.524 391.61 415.415C391.09 412.577 389.064 408.648 382.205 407.324C381.877 407.241 381.529 407.197 381.15 407.144H381.121C380.583 407.059 380.045 407.004 379.467 406.948C379.277 406.937 379.088 406.914 378.899 406.903C365.148 405.691 359.1 401.014 359.1 401.014C359.1 401.014 351.106 402.531 343.643 400.863C343.643 400.863 342.751 402.31 341.949 404.835C341.825 405.263 341.691 405.72 341.566 406.207C341.535 406.297 341.514 406.397 341.484 406.506C341.432 406.696 341.39 406.914 341.348 407.133C341.337 407.193 341.316 407.272 341.316 407.332C341.316 407.382 341.286 407.402 341.286 407.442C341.076 408.477 340.916 409.612 340.844 410.838C340.769 412.113 340.766 413.48 340.912 414.917Z" fill="#0B0B1E"/>
<path d="M364.089 401.897C363.92 401.738 363.696 401.619 363.456 401.628C363.202 401.636 363.016 401.73 362.817 401.885C362.487 402.14 362.154 402.39 361.826 402.648C361.357 403.018 360.852 403.338 360.358 403.675C360.161 403.81 360.007 403.973 359.939 404.209C359.878 404.423 359.902 404.711 360.024 404.902C360.266 405.286 360.835 405.521 361.25 405.237C362.213 404.577 363.155 403.885 364.075 403.168C364.245 403.037 364.343 402.739 364.345 402.535C364.348 402.315 364.252 402.051 364.089 401.897Z" fill="white"/>
<path d="M367.635 403.533C367.301 403.221 366.694 403.143 366.362 403.52C365.696 404.28 364.956 404.968 364.153 405.582C364.025 405.676 363.895 405.771 363.765 405.862C363.568 405.998 363.414 406.159 363.346 406.396C363.285 406.611 363.308 406.898 363.429 407.09C363.671 407.472 364.242 407.711 364.656 407.425C365.745 406.672 366.748 405.801 367.621 404.805C367.78 404.623 367.888 404.421 367.89 404.172C367.894 403.952 367.799 403.688 367.635 403.533Z" fill="white"/>
<path d="M370.897 404.729C370.728 404.57 370.504 404.451 370.264 404.459C370.043 404.467 369.769 404.535 369.625 404.716L367.56 407.318C367.405 407.514 367.292 407.69 367.29 407.951C367.288 408.172 367.384 408.436 367.548 408.59C367.717 408.749 367.942 408.868 368.181 408.859C368.402 408.852 368.676 408.784 368.82 408.602L370.885 406.001C371.04 405.805 371.153 405.628 371.155 405.367C371.156 405.146 371.061 404.882 370.897 404.729Z" fill="white"/>
<path d="M374.519 405.611C373.928 405.291 373.113 405.623 373.139 406.547C372.827 407.046 372.596 407.417 372.284 407.914C371.607 408.186 371.634 409.163 372.208 409.473C372.799 409.793 373.613 409.463 373.589 408.539C373.9 408.04 374.132 407.669 374.443 407.17C375.121 406.899 375.094 405.923 374.519 405.611Z" fill="white"/>
<path d="M340.952 415.679C341.006 416.155 341.059 416.638 341.151 417.134C341.234 417.571 341.307 418.026 341.409 418.492L391.706 418.986C391.706 418.986 391.799 418.473 391.806 417.65C391.79 417.223 391.766 416.729 391.675 416.177L340.952 415.679Z" fill="#FFD44D"/>
<path d="M367.892 221.306C368.157 282.792 359.099 401.441 359.099 401.441C359.099 401.441 354.751 404.371 343.642 401.289L331.417 221.306H367.892Z" fill="#E0AA8F"/>
<path d="M302.65 221.306L281.008 401.441C281.008 401.441 284.439 403.341 296.465 401.289L341.637 221.306H302.65Z" fill="#E0AA8F"/>
<path d="M368.532 216.468L301.226 220.446C297.025 255.612 280.198 388.159 280.198 388.159C285.303 391.251 306.065 390.216 306.065 390.216L333.222 257.673L337.344 390.304C341.337 391.379 362.128 390.304 362.128 390.304C362.128 390.304 370.353 245.294 368.532 216.468Z" fill="#F5BA01"/>
<path d="M333.047 229.629C333.1 233.077 333.152 236.525 333.205 239.974C333.258 243.423 333.31 246.871 333.363 250.32C333.392 252.262 333.422 254.204 333.451 256.147C333.454 256.338 333.751 256.338 333.749 256.147C333.696 252.698 333.644 249.25 333.591 245.801C333.538 242.352 333.486 238.904 333.433 235.455C333.404 233.513 333.374 231.571 333.345 229.629C333.342 229.438 333.044 229.437 333.047 229.629Z" fill="#89496B"/>
<path d="M328.583 229.376C328.766 232.15 328.949 234.926 329.133 237.7C329.223 239.054 329.286 240.412 329.41 241.762C329.516 242.916 329.724 244.127 330.393 245.102C331.034 246.039 332.086 246.766 333.26 246.688C333.45 246.675 333.451 246.378 333.26 246.39C332.222 246.458 331.286 245.84 330.698 245.021C330.015 244.069 329.808 242.87 329.704 241.728C329.588 240.438 329.526 239.142 329.44 237.849C329.353 236.529 329.266 235.211 329.179 233.892C329.08 232.386 328.981 230.881 328.881 229.375C328.868 229.186 328.57 229.185 328.583 229.376Z" fill="#89496B"/>
<path d="M354.632 229.459C354.727 231.832 355.593 234.141 357.057 236.009C358.541 237.903 360.644 239.255 362.967 239.873C364.285 240.223 365.664 240.338 367.02 240.196C367.209 240.176 367.211 239.878 367.02 239.898C364.678 240.143 362.283 239.615 360.254 238.42C358.244 237.235 356.672 235.394 355.773 233.244C355.271 232.043 354.982 230.758 354.93 229.458C354.922 229.269 354.624 229.268 354.632 229.459Z" fill="#89496B"/>
<path d="M362.788 239.161C362.47 258.667 362.152 278.175 361.835 297.682C361.519 317.089 361.202 336.496 360.887 355.903C360.709 366.851 360.53 377.799 360.352 388.747C360.349 388.938 360.646 388.938 360.649 388.747C360.967 369.24 361.284 349.733 361.602 330.226C361.918 310.819 362.234 291.411 362.55 272.004C362.728 261.057 362.907 250.108 363.084 239.161C363.088 238.969 362.791 238.969 362.788 239.161Z" fill="#89496B"/>
<path d="M330.421 245.576C328.107 254.872 325.848 264.18 323.647 273.503C321.459 282.775 319.327 292.062 317.256 301.362C315.203 310.582 313.208 319.816 311.271 329.062C309.329 338.334 307.446 347.619 305.621 356.915C303.779 366.299 301.995 375.694 300.269 385.1C300.048 386.303 299.828 387.505 299.609 388.708C299.575 388.895 299.861 388.975 299.895 388.787C301.611 379.363 303.382 369.949 305.213 360.547C307.033 351.194 308.912 341.853 310.851 332.525C312.773 323.277 314.753 314.04 316.793 304.816C318.839 295.566 320.943 286.329 323.105 277.105C325.287 267.795 327.528 258.497 329.824 249.214C330.118 248.027 330.412 246.841 330.707 245.655C330.753 245.47 330.467 245.391 330.421 245.576Z" fill="#89496B"/>
<path d="M314.865 118.334C302.306 122.035 277.832 150.76 277.832 150.76L254.002 109.927L243.053 115.662C243.053 115.662 258.124 151.147 263.02 162.482C267.914 173.818 279.465 176.651 291.401 167.892C302.617 159.662 311.004 150.965 311.004 150.965L314.865 118.334Z" fill="#E0AA8F"/>
<path d="M314.866 118.335L310.814 153.08L308.236 155.907L304.698 159.785L300.117 164.804C300.117 164.804 287.106 155.272 281.436 143.547C281.436 143.547 283.107 141.627 285.867 138.831C286.97 137.712 288.24 136.45 289.654 135.119C296.367 128.774 306.141 120.769 314.866 118.335Z" fill="#002BDC"/>
<path d="M308.236 155.906L304.698 159.784C297.539 153.653 291.529 146.388 285.866 138.828C286.97 137.71 288.24 136.447 289.654 135.116C295.218 142.609 301.13 149.888 308.236 155.906Z" fill="#1738CA"/>
<path d="M234.654 86.7382L250.856 102.832L248.126 105.579L231.925 89.4853L231.172 87.7545L230.206 85.5251C230.074 85.221 230.382 84.9106 230.687 85.0411L232.918 85.9975L234.654 86.7382Z" fill="#583D71"/>
<path d="M232.918 85.9975C232.706 86.3373 232.443 86.6593 232.14 86.9644C231.837 87.2695 231.511 87.5294 231.172 87.7545L230.206 85.5251C230.074 85.221 230.382 84.9106 230.687 85.0411L232.918 85.9975Z" fill="#BFA4E0"/>
<path d="M253.396 102.023C253.149 99.5988 248.77 94.1867 246.928 93.7911C244.153 93.1956 244.299 96.8423 244.299 96.8423C244.299 96.8423 235.829 104.582 236.917 107.648C238.005 110.715 241.663 113.361 243.048 115.662L254.121 110.129C252.996 107.317 253.643 104.447 253.396 102.023Z" fill="#E0AA8F"/>
<path d="M249.478 100.008C248.84 99.4359 248.108 98.9834 247.308 98.6741C246.913 98.5205 246.502 98.4037 246.085 98.3269C245.713 98.2585 245.331 98.2122 244.957 98.2827C244.176 98.4279 243.806 99.1886 244.003 99.9272C244.213 100.709 244.96 101.258 245.598 101.685C246.425 102.238 247.353 102.632 248.322 102.854C248.509 102.897 248.588 102.61 248.401 102.568C247.644 102.394 246.915 102.116 246.238 101.731C245.604 101.37 244.889 100.911 244.49 100.284C244.117 99.6989 244.148 98.7993 244.93 98.5931C245.27 98.5037 245.635 98.5468 245.976 98.6078C246.343 98.6741 246.704 98.7699 247.056 98.8951C247.871 99.1865 248.624 99.64 249.268 100.219C249.409 100.346 249.621 100.137 249.478 100.008Z" fill="#B85C4B"/>
<path d="M247.171 102.474C246.482 104.211 246.915 106.299 248.222 107.63C248.357 107.766 248.566 107.556 248.433 107.419C247.193 106.158 246.807 104.194 247.459 102.552C247.528 102.375 247.241 102.298 247.171 102.474Z" fill="#B85C4B"/>
<path d="M237.868 107.01C238.383 108.712 240.072 109.85 241.849 109.63C242.64 109.532 243.565 109.073 243.543 108.149C243.521 107.214 242.664 106.68 241.981 106.205C241.129 105.612 240.443 104.82 239.975 103.894C239.889 103.723 239.632 103.872 239.718 104.044C240.078 104.757 240.568 105.404 241.163 105.938C241.454 106.199 241.772 106.422 242.094 106.643C242.429 106.872 242.777 107.116 243.004 107.461C243.226 107.799 243.336 108.227 243.138 108.603C242.939 108.978 242.544 109.182 242.145 109.278C241.344 109.472 240.46 109.331 239.743 108.93C238.975 108.501 238.406 107.773 238.153 106.933C238.1 106.749 237.813 106.827 237.868 107.01Z" fill="#B85C4B"/>
<path d="M242.849 107.1C243.47 107.195 244.126 107.284 244.711 106.996C245.195 106.758 245.473 106.273 245.535 105.749C245.688 104.473 244.615 103.55 243.836 102.707C243.34 102.169 242.879 101.532 242.869 100.772C242.867 100.58 242.569 100.58 242.571 100.772C242.587 101.966 243.519 102.785 244.269 103.594C244.659 104.013 245.03 104.484 245.186 105.045C245.319 105.528 245.261 106.11 244.905 106.49C244.402 107.027 243.578 106.913 242.927 106.814C242.741 106.785 242.661 107.071 242.849 107.1Z" fill="#B85C4B"/>
<path d="M244.983 104.296C245.474 104.43 245.993 104.258 246.365 103.925C246.755 103.576 246.965 103.065 247.071 102.562C247.11 102.375 246.823 102.295 246.784 102.483C246.693 102.92 246.526 103.358 246.197 103.675C245.902 103.961 245.467 104.12 245.062 104.008C244.878 103.958 244.799 104.244 244.983 104.296Z" fill="#B85C4B"/>
<path d="M245.037 98.0606C245.093 98.1216 245.149 98.1827 245.206 98.2437C245.219 98.2584 245.235 98.2679 245.254 98.2742C245.272 98.2837 245.291 98.2879 245.311 98.2868C245.331 98.2879 245.351 98.2837 245.368 98.2742C245.386 98.2679 245.402 98.2584 245.416 98.2437C245.442 98.2153 245.461 98.1784 245.459 98.1385C245.457 98.1258 245.456 98.1122 245.454 98.0985C245.447 98.0732 245.434 98.0511 245.416 98.0333C245.36 97.9722 245.305 97.9112 245.248 97.8502C245.234 97.8355 245.218 97.826 245.2 97.8197C245.183 97.8102 245.164 97.806 245.144 97.807C245.123 97.806 245.104 97.8102 245.086 97.8197C245.067 97.826 245.051 97.8365 245.038 97.8502C245.012 97.8786 244.993 97.9154 244.995 97.9554C244.997 97.9691 244.998 97.9817 245.001 97.9954C245.006 98.0196 245.019 98.0417 245.037 98.0606Z" fill="#B85C4B"/>
<path d="M238.223 108.927C238.656 109.074 239.111 109.151 239.567 109.157C239.758 109.159 239.758 108.862 239.567 108.859C239.136 108.854 238.711 108.779 238.302 108.64C238.227 108.614 238.14 108.669 238.119 108.744C238.097 108.826 238.148 108.902 238.223 108.927Z" fill="#B85C4B"/>
<path d="M369.029 221.304C354.075 228.479 304.341 225.784 301.222 220.447L308.81 163.628C308.81 163.628 308.81 163.618 308.821 163.598L314.865 118.333L328.87 114.125L342.785 114.095L345.438 114.781L357.385 117.838C358.424 123.549 360.816 144.366 363.157 165.827C363.166 165.827 363.166 165.827 363.166 165.827L363.278 166.927C365.669 188.843 367.99 211.192 368.756 218.679C368.796 219.073 368.837 219.416 368.868 219.728L368.898 220.02L368.949 220.515L369.029 221.304Z" fill="#002BDC"/>
<path d="M310.527 152.096C310.999 148.082 311.472 144.069 311.943 140.056C312.412 136.068 312.881 132.079 313.351 128.091C313.616 125.836 313.881 123.582 314.146 121.327C314.168 121.138 313.87 121.139 313.848 121.327C313.376 125.34 312.903 129.354 312.432 133.367C311.963 137.356 311.494 141.344 311.024 145.333C310.759 147.588 310.494 149.841 310.229 152.096C310.207 152.285 310.505 152.284 310.527 152.096Z" fill="#362549"/>
<path d="M358.65 75.5772C360.067 72.6375 359.651 68.994 358.384 65.9859C357.118 62.9779 354.517 60.5622 351.424 59.5206C350.119 59.0818 348.739 58.8767 347.467 58.3516C345.787 57.6604 344.385 56.4515 342.887 55.4257C338.016 52.0883 331.889 50.6342 326.039 51.4286C323.713 51.7442 321.319 52.4692 319.693 54.162C317.297 56.6577 317.18 60.5085 317.305 63.9669C315.321 64.6055 314.074 66.5625 313.28 68.49C310.233 75.877 311.694 84.9222 316.913 90.9741L345.888 101.952C349.582 98.4526 353.105 94.6828 355.588 90.2418C358.071 85.8007 359.459 80.6 358.65 75.5772Z" fill="#362549"/>
<path d="M350.015 94.2453C350.015 94.2453 343.675 104.652 342.092 119.198C338.406 125.497 329.592 123.622 327.987 117.487C328.651 111.963 327.938 109.271 326.368 107.191C326.238 107.016 326.106 106.861 325.969 106.694C325.876 106.575 325.782 106.47 325.675 106.356C325.486 106.145 325.264 105.945 325.056 105.726C324.758 105.442 324.448 105.157 324.124 104.864H324.118C322.841 103.717 321.336 102.488 319.702 100.718C317.318 98.1571 315.682 94.7987 315.395 89.7674C315.386 89.7064 315.382 89.6464 315.38 89.5801C315.37 89.5065 315.368 89.4328 315.366 89.3592C315.361 89.2256 315.361 89.1046 315.362 88.9783C315.352 88.9173 315.354 88.8647 315.351 88.811C315.246 83.9039 316.322 77.468 319.088 68.7132C321.96 59.6365 344.855 58.3728 349.822 70.8375C351.863 75.9813 350.015 94.2453 350.015 94.2453Z" fill="#E0AA8F"/>
<path d="M317.208 71.2784C320.422 72.946 324.476 72.8745 327.63 71.0942C332.042 73.0039 337.103 73.3679 341.743 72.1106C340.549 74.6494 340.962 77.8626 342.757 80.0174C343.469 80.8707 344.381 81.5787 344.879 82.5709C345.466 83.7398 345.39 85.1192 345.669 86.3975C346.23 88.9637 348.376 91.1121 350.941 91.675C352.437 87.4728 353.461 83.0949 353.395 78.6349C353.328 74.1749 352.003 69.6286 349.093 66.2471C346.642 63.3968 343.187 61.5125 339.545 60.5782C335.904 59.6439 332.076 59.6134 328.343 60.0584C326.135 60.3215 323.865 60.7823 322.067 62.0912C319.222 64.1628 318.079 67.8663 317.208 71.2784Z" fill="#362549"/>
<path d="M326.209 88.2597C325.899 88.064 325.562 87.9336 325.2 87.8778C324.877 87.8283 324.514 87.8389 324.226 88.0104C323.916 88.1945 323.741 88.507 323.681 88.8563C323.623 89.1898 323.702 89.5307 323.798 89.8484C323.85 90.0189 323.995 90.1714 324.193 90.1294C324.355 90.0946 324.53 89.9189 324.474 89.7348C324.403 89.5023 324.326 89.2498 324.351 89.0046C324.363 88.8784 324.409 88.7532 324.493 88.6585C324.489 88.6648 324.483 88.6711 324.479 88.6764C324.558 88.5743 324.695 88.547 324.816 88.5364C324.825 88.5354 324.835 88.5354 324.848 88.5343C324.874 88.5364 324.9 88.5354 324.926 88.5364C324.995 88.5396 325.063 88.5469 325.13 88.5575C325.165 88.5627 325.199 88.5691 325.233 88.5754C325.251 88.5785 325.254 88.5785 325.259 88.5796C325.264 88.5817 325.265 88.5817 325.28 88.5859C325.488 88.6437 325.662 88.7468 325.855 88.8363C326.002 88.9036 326.191 88.8763 326.285 88.7363C326.38 88.5933 326.371 88.3618 326.209 88.2597Z" fill="#B85C4B"/>
<path d="M319.454 79.0105C321.332 78.2056 323.512 78.3108 325.252 79.4219C325.679 79.6944 325.872 80.3088 325.577 80.7497C325.194 81.322 324.605 81.2673 324.076 80.9675C323.604 80.7002 323.085 80.515 322.551 80.4224C322.555 80.393 322.596 80.4487 322.566 80.4445C321.879 80.3435 321.184 80.4214 320.529 80.6476C320.49 80.6613 320.453 80.675 320.391 80.6981C319.929 80.8917 319.336 80.8223 319.085 80.3257C318.869 79.9016 318.958 79.223 319.454 79.0105Z" fill="#362549"/>
<path d="M331.057 80.1467C333.02 79.5796 335.171 79.9542 336.76 81.2725C337.15 81.5955 337.265 82.2299 336.918 82.6308C336.583 83.019 335.976 83.1337 335.56 82.7886C335.4 82.6561 335.233 82.5382 335.061 82.4204C335.044 82.4098 335.047 82.412 335.037 82.4046C335.005 82.3867 334.975 82.3688 334.943 82.352C334.875 82.3152 334.807 82.2794 334.736 82.2457C334.55 82.1563 334.358 82.0774 334.163 82.01C334.113 81.9932 333.802 81.8669 334.042 81.9679C333.962 81.9343 333.862 81.9238 333.778 81.9059C333.588 81.8659 333.396 81.8364 333.203 81.8185C333.1 81.808 332.997 81.8049 332.894 81.7975C332.882 81.7965 332.879 81.7965 332.871 81.7954C332.856 81.7965 332.835 81.7965 332.804 81.7975C332.611 81.8038 332.418 81.8196 332.227 81.848C332.125 81.8627 332.023 81.8817 331.922 81.9027C331.882 81.9111 331.842 81.9206 331.802 81.9301C331.794 81.9322 331.797 81.9311 331.789 81.9343C331.786 81.9353 331.783 81.9343 331.781 81.9353C331.777 81.9364 331.774 81.9364 331.771 81.9374C331.775 81.9364 331.773 81.9364 331.777 81.9364C331.296 82.0711 330.716 81.929 330.529 81.4061C330.367 80.959 330.538 80.2961 331.057 80.1467Z" fill="#362549"/>
<path d="M324.701 93.9297C324.891 93.9055 325.106 93.9802 325.296 94.0002C325.545 94.0275 325.794 94.0401 326.043 94.037C327.139 94.0244 328.229 93.7108 329.159 93.1332C329.164 93.13 329.169 93.13 329.174 93.1269C329.18 93.1227 329.183 93.1174 329.189 93.1143C329.466 92.9607 329.823 93.1111 329.906 93.4194C330.014 93.8266 329.526 94.0117 329.241 94.1622C328.392 94.6094 327.448 94.8829 326.49 94.9555C326.014 94.9913 325.533 94.9808 325.059 94.9187C324.76 94.8797 324.39 94.8503 324.326 94.4894C324.281 94.2379 324.434 93.9644 324.701 93.9297Z" fill="#C16B5B"/>
<path d="M334.218 87.0184C334.169 87.8801 333.429 88.5398 332.567 88.4903C331.706 88.4409 331.046 87.7023 331.095 86.8395C331.145 85.9768 331.883 85.3182 332.746 85.3676C333.609 85.4171 334.268 86.1567 334.218 87.0184Z" fill="black"/>
<path d="M332.595 86.4251C332.58 86.6766 332.364 86.8681 332.114 86.8544C331.862 86.8397 331.671 86.624 331.685 86.3736C331.698 86.1232 331.914 85.9306 332.165 85.9443C332.417 85.958 332.608 86.1737 332.595 86.4251Z" fill="white"/>
<path d="M322.885 85.6724C322.836 86.5341 322.096 87.1938 321.235 87.1444C320.372 87.0949 319.713 86.3563 319.763 85.4936C319.812 84.6319 320.552 83.9722 321.413 84.0217C322.276 84.0711 322.935 84.8097 322.885 85.6724Z" fill="black"/>
<path d="M321.261 85.078C321.247 85.3294 321.032 85.5209 320.781 85.5072C320.529 85.4925 320.338 85.2779 320.351 85.0264C320.366 84.7749 320.581 84.5834 320.832 84.5971C321.084 84.6108 321.276 84.8265 321.261 85.078Z" fill="white"/>
<path d="M354.876 95.2563C352.675 97.3143 349.567 97.5668 347.933 95.8202C346.299 94.0737 346.759 90.9888 348.96 88.9309C351.161 86.8729 354.269 86.6204 355.902 88.3669C357.536 90.1135 357.077 93.1983 354.876 95.2563Z" fill="#E0AA8F"/>
<path d="M354.512 89.3362C353.747 88.8049 352.655 88.6923 351.593 89.0384C351.062 89.2099 350.665 89.4498 350.373 89.7697C349.988 90.1926 349.826 90.765 349.951 91.2595C350.062 91.7035 350.367 92.0212 350.636 92.3011C350.831 92.5031 351.016 92.6946 351.108 92.9071C351.247 93.2343 351.152 93.6562 350.881 93.8888C350.613 94.1213 350.182 94.1539 349.879 93.9666C349.7 93.8562 349.467 93.9119 349.358 94.0897C349.248 94.2665 349.303 94.5011 349.481 94.6105C349.676 94.7305 349.893 94.8041 350.119 94.8315C350.565 94.8851 351.033 94.7589 351.378 94.4611C351.896 94.014 352.074 93.2354 351.803 92.6073C351.658 92.2685 351.405 92.0065 351.182 91.7761C350.959 91.5446 350.748 91.3247 350.686 91.0754C350.624 90.826 350.72 90.5135 350.935 90.2779C351.021 90.1832 351.133 90.1022 351.255 90.0243C351.628 90.0664 352.081 90.2379 352.286 90.524C352.516 90.8471 352.59 91.2837 352.48 91.6635C352.421 91.8645 352.536 92.0738 352.736 92.1328C352.756 92.1391 352.776 92.1422 352.797 92.1454C352.977 92.1675 353.153 92.056 353.205 91.876C353.383 91.27 353.27 90.6009 352.902 90.0843C352.766 89.8928 352.583 89.7518 352.387 89.6318C353.029 89.5403 353.638 89.6476 354.083 89.9569C354.633 90.3389 354.979 91.1943 354.597 91.8108C354.488 91.9886 354.543 92.2222 354.721 92.3316C354.898 92.441 355.131 92.3863 355.241 92.2085C355.794 91.3121 355.46 89.9959 354.512 89.3362Z" fill="#B85C4B"/>
<path d="M369.029 221.304C369.859 237.869 304.097 227.848 300.979 222.511L308.811 163.628C308.811 163.628 308.811 163.618 308.822 163.598C309.074 163.013 313.04 153.537 314.291 147.797H353.048C354.403 158.875 362.754 165.556 363.158 165.828C363.168 165.828 363.168 165.828 363.168 165.828C363.168 165.828 363.228 166.656 363.279 166.928C365.92 180.817 367.495 190.712 369.029 221.304Z" fill="#F5BA01"/>
<path d="M320.168 157.925C323.701 157.544 327.25 157.304 330.803 157.209C334.331 157.115 337.863 157.165 341.386 157.356C343.382 157.465 345.376 157.619 347.365 157.819C347.556 157.838 347.554 157.541 347.365 157.521C343.829 157.167 340.279 156.955 336.725 156.888C333.196 156.822 329.665 156.899 326.143 157.117C324.148 157.242 322.155 157.412 320.168 157.627C319.981 157.649 319.978 157.945 320.168 157.925Z" fill="#89496B"/>
<path d="M320.301 160.436C319.738 164.023 320.133 167.774 321.641 171.094C323.003 174.096 325.315 176.651 328.209 178.243C331.044 179.801 334.342 180.322 337.502 179.582C339.061 179.217 340.561 178.561 341.867 177.631C343.235 176.657 344.353 175.393 345.181 173.933C347.102 170.544 347.403 166.562 347.405 162.748C347.405 162.235 347.401 161.723 347.395 161.209C347.393 161.018 347.095 161.018 347.097 161.209C347.141 165.042 347.105 169.03 345.52 172.597C344.84 174.127 343.887 175.529 342.632 176.644C341.457 177.689 340.055 178.474 338.565 178.971C335.554 179.979 332.271 179.793 329.376 178.495C326.476 177.193 324.048 174.913 322.5 172.144C320.756 169.023 320.11 165.359 320.426 161.814C320.465 161.38 320.518 160.947 320.586 160.516C320.617 160.327 320.331 160.246 320.301 160.436Z" fill="#89496B"/>
<path d="M346.195 199.537C350.366 200.422 354.71 200.428 358.884 199.56C360.079 199.311 361.257 198.99 362.412 198.601C362.592 198.54 362.515 198.253 362.333 198.315C358.33 199.664 354.057 200.165 349.85 199.79C348.648 199.683 347.454 199.502 346.274 199.251C346.087 199.211 346.007 199.497 346.195 199.537Z" fill="#89496B"/>
<path d="M305.922 198.531C308.837 199.201 311.852 199.421 314.832 199.171C315.676 199.101 316.516 198.992 317.351 198.849C317.539 198.817 317.459 198.531 317.272 198.563C314.366 199.061 311.38 199.11 308.459 198.7C307.633 198.584 306.813 198.432 306.001 198.244C305.815 198.201 305.736 198.488 305.922 198.531Z" fill="#89496B"/>
<path d="M350.127 147.797L353.047 116.728L346.437 115.038L342.753 147.797H350.127Z" fill="#F5BA01"/>
<path d="M325.13 147.797L323.757 115.662L317.405 117.57L316.872 147.797H325.13Z" fill="#F5BA01"/>
<path d="M357.385 117.839C370.148 122.035 374.349 159.9 374.355 171.068C374.364 184.637 364.308 192.795 348.421 180.858C336.459 171.871 318.435 148.484 318.435 148.484L325.451 140.611L357.266 167.978L351.856 139.296L357.385 117.839Z" fill="#E0AA8F"/>
<path d="M325.981 142.124C324.63 140.81 325.674 130.123 323.428 129.7C321.374 129.313 319.853 133.666 320.66 135.899C318.379 133.969 311.785 123.855 309.88 125.501C308.472 126.718 314.284 133.761 314.284 133.761C314.284 133.761 306.653 126.329 305.114 128.221C303.576 130.112 312.247 136.718 312.247 136.718C312.247 136.718 304.561 131.549 303.591 133.262C302.637 134.946 311.043 139.651 311.043 139.651C311.043 139.651 303.875 136.937 303.401 137.931C302.927 138.925 306.911 141.594 310.513 142.724C314.07 148.208 319.801 149.324 319.801 149.324L325.981 142.124Z" fill="#E0AA8F"/>
<path d="M376.115 157.713C368.774 161.318 353.7 161.062 353.7 161.062L353.019 155.762L352.339 150.538L350.91 139.456L357.389 117.836C367.625 120.943 372.38 135.699 374.504 146.351C374.882 148.248 375.176 150.018 375.404 151.567C375.949 155.263 376.115 157.713 376.115 157.713Z" fill="#002BDC"/>
<path d="M375.403 151.566C368.003 153.304 360.534 154.704 353.019 155.762L352.339 150.538C359.785 149.487 367.178 148.089 374.504 146.35C374.883 148.248 375.177 150.017 375.403 151.566Z" fill="#1738CA"/>
<path d="M350.774 139.752C351.416 143.847 351.874 147.971 352.144 152.107C352.22 153.261 352.281 154.416 352.327 155.571C352.334 155.762 352.632 155.763 352.625 155.571C352.456 151.417 352.102 147.269 351.561 143.146C351.409 141.986 351.242 140.828 351.061 139.673C351.031 139.484 350.745 139.564 350.774 139.752Z" fill="#362549"/>
<path d="M302.691 223.014C306.71 223.99 310.774 224.78 314.866 225.381C318.933 225.977 323.026 226.389 327.129 226.612C331.239 226.836 335.36 226.873 339.473 226.722C343.605 226.571 347.732 226.23 351.833 225.701C355.909 225.175 359.961 224.464 363.971 223.564C364.472 223.451 364.974 223.336 365.475 223.218C365.661 223.174 365.582 222.887 365.396 222.932C361.41 223.873 357.38 224.632 353.324 225.203C349.242 225.779 345.133 226.164 341.015 226.362C336.903 226.559 332.783 226.569 328.67 226.392C324.551 226.214 320.441 225.849 316.356 225.296C312.297 224.746 308.263 224.008 304.273 223.086C303.771 222.971 303.271 222.852 302.771 222.73C302.584 222.682 302.505 222.968 302.691 223.014Z" fill="#89496B"/>
<path d="M383.346 339.692C386.896 337.034 391.798 337.817 395.259 340.208C398.527 342.466 400.997 346.003 402.7 349.548C404.244 352.762 405.279 356.22 406.114 359.678C407.043 363.523 407.703 367.436 408.137 371.366C408.557 375.179 408.796 379.039 408.597 382.875C408.579 383.21 409.102 383.209 409.119 382.875C409.303 379.319 409.107 375.744 408.747 372.206C408.336 368.166 407.691 364.143 406.771 360.188C405.927 356.563 404.864 352.946 403.283 349.566C401.616 346.005 399.193 342.504 396.03 340.124C392.375 337.375 386.968 336.331 383.081 339.24C382.817 339.439 383.077 339.893 383.346 339.692Z" fill="#235723"/>
<path d="M397.531 339.262C393.304 336.461 388.533 337.202 383.552 338.155C381.84 334.934 377.938 333.214 374.308 333.574C371.692 333.834 369.259 335.047 367.264 336.781C367.371 336.822 367.484 336.853 367.589 336.897C368.733 337.371 370.133 338.222 370.08 339.64C370.029 341.04 368.963 342.088 367.597 342.186C366.27 342.282 364.912 341.755 363.701 341.189C362.329 343.583 361.44 346.26 360.839 348.964C359.349 355.647 359.5 362.69 361.276 369.303C369.069 370.721 377.061 370.05 384.66 367.813C386.006 367.418 387.337 366.953 388.639 366.422C387.983 365.699 387.314 364.986 386.667 364.256C385.574 363.022 384.05 361.015 385.183 359.333C386.042 358.056 387.913 358.434 389.163 358.755C391.144 359.264 393.069 359.867 394.858 360.881C395.375 361.173 395.875 361.493 396.361 361.832C399.64 358.982 402.094 355.03 402.544 350.709C402.995 346.353 401.18 341.68 397.531 339.262Z" fill="#85D881"/>
<path d="M409.859 321.321C406.371 321.631 403.412 323.872 401.503 326.717C399.175 330.183 398.298 334.407 397.469 338.431C395.613 347.441 394.602 356.625 394.449 365.821C394.363 371.022 394.556 376.225 395.015 381.405C395.045 381.738 395.567 381.741 395.537 381.405C394.755 372.601 394.756 363.734 395.554 354.931C395.96 350.449 396.572 345.984 397.388 341.558C398.138 337.493 398.85 333.22 400.588 329.438C402.313 325.687 405.529 322.226 409.858 321.843C410.191 321.814 410.194 321.291 409.859 321.321Z" fill="#235723"/>
<path d="M437.142 341.056C436.24 341.405 435.315 341.721 434.366 341.915C433.67 342.057 432.873 342.181 432.181 341.951C430.87 341.515 430.771 339.765 431.62 338.857C432.687 337.715 434.538 337.324 436.007 337.044C436.909 336.871 437.835 336.734 438.759 336.661C438.131 333.825 437.373 330.994 436.447 328.106C435.162 324.098 433.358 320.163 430.497 317.089C430.463 317.133 430.431 317.179 430.398 317.223C429.535 318.367 428.579 319.649 427.33 320.4C426.923 320.645 426.421 320.835 425.948 320.678C425.434 320.506 425.148 319.997 425.089 319.484C425.017 318.844 425.216 318.18 425.441 317.588C425.732 316.818 426.11 316.084 426.515 315.37C426.721 315.007 426.943 314.653 427.167 314.302C424.516 312.625 421.397 311.72 418.313 312.147C413.971 312.748 409.34 316.5 409.177 320.88C404.535 318.888 398.745 320.633 395.519 324.52C392.293 328.407 391.552 334.03 393.085 338.843C393.745 340.912 394.788 342.829 396.105 344.552C397.322 343.267 398.76 342.19 400.318 341.306C401.456 340.66 402.644 340.115 403.849 339.604C404.956 339.134 406.077 338.639 407.27 338.438C408.39 338.249 409.602 338.34 410.418 339.22C411.267 340.137 411.194 341.379 410.726 342.461C410.201 343.676 409.267 344.723 408.387 345.693C407.399 346.779 406.324 347.784 405.211 348.739C404.495 349.354 403.759 349.945 403.017 350.528C407.233 352.957 412.057 354.207 416.901 354.724C425.034 355.591 433.373 354.471 440.989 351.489C440.63 347.551 440.139 343.793 439.451 340.079C438.689 340.427 437.921 340.758 437.142 341.056Z" fill="#85D881"/>
<path d="M421.076 407.402H384.403L379.819 375.611H425.66L421.076 407.402Z" fill="#9B9A9A"/>
<path d="M427.692 380.872H377.189L375.611 375.611H429.27L427.692 380.872Z" fill="#797474"/>
<path d="M90.9259 344.533C91.4594 342.032 90.6934 339.408 89.4477 337.176C88.202 334.943 86.4965 333.008 84.9551 330.968C83.4137 328.928 81.9986 326.706 81.4778 324.203C80.8318 321.099 81.6156 317.905 82.1291 314.777C82.6425 311.649 82.8308 308.226 81.1737 305.523C78.2909 300.82 71.3563 300.464 67.6012 296.423C64.5437 293.134 63.9745 287.792 60.231 285.312C57.4029 283.438 53.3711 283.944 50.7776 286.13C48.1841 288.317 46.9921 291.893 47.2614 295.275C47.5307 298.656 49.1289 301.834 51.2984 304.441C52.8598 306.318 54.7684 308.015 55.6122 310.305C57.4503 315.293 53.6436 321.302 56.1435 325.994C58.2678 329.98 63.8398 330.82 66.547 334.436C68.5124 337.062 68.5881 340.63 69.9264 343.625C71.8403 347.911 76.4717 350.423 81.0601 350.405C85.2581 350.387 89.8854 349.413 90.9259 344.533Z" fill="#F5C351"/>
<path d="M56.1288 287.893C62.4689 297.356 68.0905 307.295 72.9313 317.606C77.7785 327.931 81.8429 338.622 85.0771 349.56C86.8963 355.711 88.4492 361.939 89.737 368.223C89.8044 368.552 90.3073 368.412 90.2399 368.084C87.9452 356.887 84.8004 345.869 80.837 335.149C76.8936 324.482 72.1506 314.11 66.6532 304.153C63.5347 298.505 60.1711 292.992 56.5791 287.631C56.3939 287.352 55.9415 287.613 56.1288 287.893Z" fill="#602323"/>
<path d="M84.9629 339.147C81.5235 336.036 79.3435 331.569 79.0068 326.943C78.7596 323.547 79.4645 320.163 79.7475 316.769C80.0305 313.376 79.8338 309.76 77.9968 306.893C74.6289 301.636 66.8452 300.441 63.8172 294.982C61.7045 291.173 62.5956 286.364 64.4432 282.419C66.2907 278.475 69.0084 274.969 70.6634 270.94C72.1985 267.203 72.7677 263.074 72.3026 259.06C71.9123 255.694 70.8149 252.448 70.3036 249.099C69.7922 245.75 69.9395 242.105 71.8197 239.286C74.6047 235.112 80.7449 234.021 85.2691 236.192C89.7933 238.362 92.6803 243.143 93.5483 248.086C94.8887 255.717 92.1416 264.25 96.0587 270.934C99.0604 276.056 105.395 278.813 107.598 284.326C109.174 288.265 108.253 292.751 106.813 296.741C105.373 300.73 103.418 304.605 102.914 308.818C102.419 312.966 103.369 317.133 104.259 321.214C105.149 325.296 105.989 329.506 105.276 333.622C104.593 337.57 101.742 342.159 97.7526 343.559C93.6809 344.984 87.8752 341.781 84.9629 339.147Z" fill="#DBAC4D"/>
<path d="M82.8553 240.744C87.37 256.918 90.7369 273.41 92.9127 290.06C95.0706 306.567 96.0691 323.225 95.8955 339.871C95.7976 349.24 95.3252 358.604 94.4845 367.936C94.454 368.27 94.9769 368.268 95.0064 367.936C95.7566 359.604 96.2142 351.247 96.3731 342.882C96.532 334.519 96.3931 326.149 95.9607 317.795C95.5261 309.399 94.7939 301.019 93.7659 292.674C92.7506 284.432 91.4491 276.224 89.8604 268.072C88.2601 259.862 86.3694 251.708 84.1894 243.631C83.9169 242.621 83.6392 241.613 83.3582 240.606C83.2678 240.282 82.7648 240.419 82.8553 240.744Z" fill="#602323"/>
<path d="M96.038 341.979C95.0237 338.97 95.5929 335.623 96.8113 332.691C98.0297 329.759 99.8572 327.128 101.469 324.393C103.08 321.657 104.509 318.713 104.794 315.551C105.148 311.629 103.726 307.801 102.646 304.014C101.567 300.229 100.846 296.033 102.505 292.462C105.391 286.25 113.895 284.82 117.952 279.301C121.254 274.808 121.196 268.135 125.46 264.541C128.68 261.827 133.727 261.876 137.238 264.202C140.749 266.53 142.731 270.772 142.88 274.982C143.029 279.191 141.511 283.339 139.206 286.864C137.547 289.402 135.435 291.768 134.72 294.714C133.164 301.129 138.717 308.001 136.302 314.144C134.25 319.365 127.496 321.195 124.672 326.043C122.621 329.563 123.037 333.975 121.813 337.861C120.062 343.421 114.708 347.181 109.044 347.812C103.866 348.392 98.0171 347.849 96.038 341.979Z" fill="#F5C351"/>
<path d="M132.027 269.249C124.725 281.435 118.494 294.257 113.41 307.524C108.321 320.805 104.383 334.527 101.663 348.487C100.142 356.296 99.0042 364.177 98.2509 372.097C98.2193 372.431 98.7412 372.429 98.7727 372.097C100.118 357.96 102.707 343.948 106.486 330.26C110.244 316.647 115.171 303.357 121.211 290.591C124.619 283.385 128.383 276.349 132.48 269.513C132.651 269.223 132.2 268.96 132.027 269.249Z" fill="#602323"/>
<path d="M108.646 412.533H82.3838L74.7969 362.927H116.232L108.646 412.533Z" fill="#9B9A9A"/>
<path d="M117.837 357.53H73.1924V365.992H117.837V357.53Z" fill="#797474"/>
</svg>
