<svg width="112" height="112" viewBox="0 0 112 112" fill="none" xmlns="http://www.w3.org/2000/svg">
<rect x="1.5" y="1.5" width="109" height="109" rx="10.5" stroke="#002BDC" stroke-width="3"/>
<path d="M44.4277 35.6045H32.9883" stroke="#002BDC" stroke-width="3" stroke-linecap="round" stroke-linejoin="round"/>
<path d="M44.4277 40.9851H32.9883" stroke="#002BDC" stroke-width="3" stroke-linecap="round" stroke-linejoin="round"/>
<path d="M26.8262 28.0844L38.3856 16.9995M26.8262 28.0844H38.3856V16.9995M26.8262 28.0844V46.138M38.3856 16.9995H64.6644V59.1383" stroke="#002BDC" stroke-width="3" stroke-linecap="round" stroke-linejoin="round"/>
<path d="M54.5121 23.5103C55.0587 24.2761 55.6216 25.2911 55.7352 26.4267H58.9522C59.2338 26.4267 59.4621 26.7531 59.4621 27.1558C59.4621 27.5585 59.2338 27.8849 58.9522 27.8849H55.7352C55.4878 30.3582 53.5988 32.2595 51.8005 32.2595H48.9647L55.2333 38.8205C55.4324 39.1052 55.4324 39.5669 55.2333 39.8516C55.0341 40.1363 54.7113 40.1363 54.5121 39.8516L47.373 32.046C47.0518 31.5866 47.2793 30.8013 47.7336 30.8013H51.8131C53.0466 30.8013 54.0755 29.5489 54.3118 27.8849H47.7336C47.452 27.8849 47.2237 27.5585 47.2237 27.1558C47.2237 26.7531 47.452 26.4267 47.7336 26.4267H54.3118C54.0755 24.7627 53.0466 23.5103 51.8131 23.5103H47.7336C47.452 23.5103 47.2237 23.1839 47.2237 22.7812C47.2237 22.3786 47.452 22.0521 47.7336 22.0521H51.8131H58.9522C59.2338 22.0521 59.4621 22.3786 59.4621 22.7812C59.4621 23.1839 59.2338 23.5103 58.9522 23.5103H54.5121Z" fill="#002BDC" stroke="#002BDC"/>
<path d="M83.9082 29.3938C85.841 29.3938 87.4079 30.961 87.4082 32.8938V64.3958C86.4409 64.0955 85.4382 63.8782 84.4082 63.7512V32.8938C84.4079 32.6179 84.1842 32.3938 83.9082 32.3938L72.6074 32.3958V29.3958L83.9082 29.3938Z" fill="#002BDC"/>
<path d="M65.543 21.0339H71.7027V35.0087V59.5867" stroke="#002BDC" stroke-width="3" stroke-linecap="round" stroke-linejoin="round"/>
<path d="M53.1045 45.5349C55.0373 45.5352 56.6045 47.1021 56.6045 49.0349V57.5867C56.6048 57.8626 56.8285 58.0867 57.1045 58.0867L75.0938 58.0847C77.0332 58.0849 78.6032 59.6618 78.5938 61.6013L78.5811 64.0144C77.5429 64.2396 76.5387 64.558 75.5771 64.9607L75.5938 61.5867C75.5951 61.3097 75.3707 61.0849 75.0938 61.0847L57.1045 61.0867C55.1717 61.0867 53.6048 59.5194 53.6045 57.5867V49.0349C53.6045 48.7589 53.3805 48.5351 53.1045 48.5349L20.1416 48.532C19.866 48.532 19.6424 48.7554 19.6416 49.031L19.5352 86.2732C19.5346 86.5497 19.7586 86.7742 20.0352 86.7742H65.4229C65.7341 87.8176 66.1355 88.8209 66.6191 89.7742H20.0352C18.0984 89.7742 16.5298 88.2011 16.5352 86.2644L16.6416 49.0222C16.6471 47.093 18.2124 45.5318 20.1416 45.532L53.1045 45.5349Z" fill="#002BDC"/>
<path d="M82.2656 69.6029C88.7006 69.6029 93.9646 74.9257 93.9648 81.5511C93.9648 88.1768 88.7007 93.5004 82.2656 93.5004C75.8306 93.5003 70.5664 88.1767 70.5664 81.5511C70.5666 74.9258 75.8308 69.603 82.2656 69.6029Z" stroke="#002BDC" stroke-width="3"/>
<path d="M76.1055 81.3737L79.7557 85.1393L87.5449 77.9667" stroke="#002BDC" stroke-width="3" stroke-linecap="round" stroke-linejoin="round"/>
</svg>
