<svg width="43" height="48" viewBox="0 0 43 48" fill="none" xmlns="http://www.w3.org/2000/svg">
<path d="M7.31348 32.2524L13.2339 28.7691C14.3851 28.1056 17.2796 26.9777 19.6478 27.7738L28.5284 30.7598C29.4066 31.0915 31.0307 32.2527 30.5019 34.2431C30.0085 35.2384 29.0218 36.2336 26.5549 35.2384L19.6478 32.7503" stroke="#144BCC" stroke-width="2" stroke-linecap="round" stroke-linejoin="round"/>
<path d="M12.7412 41.2094C13.728 40.7118 15.2081 39.7165 18.6617 40.7118C20.219 41.1606 22.6086 42.7022 25.5689 41.2094L40.37 33.2475C42.7382 31.9736 42.0146 30.0627 41.3567 29.2665C40.37 28.0722 38.7254 28.4371 37.9031 28.7689L30.5026 32.7498" stroke="#144BCC" stroke-width="2" stroke-linecap="round" stroke-linejoin="round"/>
<path d="M28.0352 30.262L31.4888 28.596C32.311 28.2643 33.9556 27.8994 34.9424 29.0937" stroke="#144BCC" stroke-width="2" stroke-linecap="round" stroke-linejoin="round"/>
<rect x="1.36095" y="0.364653" width="4.92211" height="15.8139" rx="1" transform="matrix(0.864159 -0.503219 0.496788 0.867872 0.00371685 32.7731)" stroke="#144BCC" stroke-width="2"/>
<path d="M34 9.5L36 20.5L38 8.5" stroke="#144BCC" stroke-width="2" stroke-linecap="round" stroke-linejoin="round"/>
<circle cx="36" cy="22.5" r="2" stroke="#144BCC" stroke-width="2"/>
<path d="M17 15L24 15" stroke="#144BCC" stroke-width="2" stroke-linecap="round" stroke-linejoin="round"/>
<path d="M17 19H24" stroke="#144BCC" stroke-width="2" stroke-linecap="round" stroke-linejoin="round"/>
<path d="M19 15C22 15 24.5 21.5 17 22.5L22 26" stroke="#144BCC" stroke-width="2" stroke-linecap="round" stroke-linejoin="round"/>
<path d="M10 10.5L4 8L21 1L38 8L31 10.5" stroke="#144BCC" stroke-width="2" stroke-linecap="round" stroke-linejoin="round"/>
<path d="M14 15H11V10C14.7321 8 24 6.5 31 10V15H27" stroke="#144BCC" stroke-width="2" stroke-linecap="round" stroke-linejoin="round"/>
</svg>
