<svg width="112" height="112" viewBox="0 0 112 112" fill="none" xmlns="http://www.w3.org/2000/svg">
<rect x="1.5" y="1.5" width="109" height="109" rx="10.5" fill="white"/>
<rect x="1.5" y="1.5" width="109" height="109" rx="10.5" stroke="#002BDC" stroke-width="3"/>
<path d="M32.4543 69.7674L42.6399 63.7747C44.6205 62.6332 49.6001 60.6927 53.6744 62.0624L68.9528 67.1995C70.4636 67.7702 73.2577 69.7678 72.348 73.1923C71.4992 74.9045 69.8016 76.6167 65.5576 74.9045L53.6744 70.6239" stroke="#002BDC" stroke-width="3" stroke-linecap="round" stroke-linejoin="round"/>
<path d="M41.791 85.1774C43.4886 84.3213 46.035 82.6091 51.9766 84.3213C54.656 85.0934 58.767 87.7457 63.8598 85.1774L89.3238 71.4797C93.3981 69.288 92.1532 66.0006 91.0214 64.6308C89.3238 62.5761 86.4945 63.2039 85.0798 63.7747L72.3478 70.6235" stroke="#002BDC" stroke-width="3" stroke-linecap="round" stroke-linejoin="round"/>
<path d="M68.1038 66.3431L74.0454 63.4771C75.46 62.9063 78.2894 62.2785 79.987 64.3332" stroke="#002BDC" stroke-width="3" stroke-linecap="round" stroke-linejoin="round"/>
<mask id="path-5-inside-1_3934_111" fill="white">
<rect width="11.9089" height="30.6472" rx="2" transform="matrix(0.864159 -0.503219 0.496788 0.867872 19.8713 69.4021)"/>
</mask>
<rect width="11.9089" height="30.6472" rx="2" transform="matrix(0.864159 -0.503219 0.496788 0.867872 19.8713 69.4021)" stroke="#002BDC" stroke-width="6" mask="url(#path-5-inside-1_3934_111)"/>
<path d="M78.3655 30.6235L81.8063 49.548L85.2471 28.9031" stroke="#002BDC" stroke-width="3" stroke-linecap="round" stroke-linejoin="round"/>
<circle cx="81.806" cy="52.9891" r="3.66123" stroke="#002BDC" stroke-width="3"/>
<path d="M49.1182 40.0859H61.161" stroke="#002BDC" stroke-width="3" stroke-linecap="round" stroke-linejoin="round"/>
<path d="M49.1182 46.9673H61.161" stroke="#002BDC" stroke-width="3" stroke-linecap="round" stroke-linejoin="round"/>
<path d="M52.559 40.0859C57.7202 40.0859 62.0212 51.2686 49.1182 52.989L57.7202 59.0104" stroke="#002BDC" stroke-width="3" stroke-linecap="round" stroke-linejoin="round"/>
<path d="M37.0754 32.3441L26.7529 28.0431L55.9999 16.0002L85.2469 28.0431L73.204 32.3441" stroke="#002BDC" stroke-width="3" stroke-linecap="round" stroke-linejoin="round"/>
<path d="M43.9569 40.0859H38.7957V31.4839C45.2163 28.0431 61.161 25.4625 73.2038 31.4839V40.0859H66.3222" stroke="#002BDC" stroke-width="3" stroke-linecap="round" stroke-linejoin="round"/>
</svg>
