<svg width="112" height="112" viewBox="0 0 112 112" fill="none" xmlns="http://www.w3.org/2000/svg">
<rect x="1.5" y="1.5" width="109" height="109" rx="10.5" stroke="#0B0B1E" stroke-width="3"/>
<circle cx="56.0233" cy="37.3924" r="18.8924" stroke="#0B0B1E" stroke-width="3"/>
<path d="M58.0348 29.8878C58.5913 30.7066 59.2421 31.7918 59.3578 33.006L62.3003 33.006C62.587 33.006 62.8195 33.3551 62.8195 33.7856C62.8195 34.2161 62.587 34.5651 62.3003 34.5651L59.3578 34.5651C59.1058 37.2096 57.3222 39.2425 55.4912 39.2425H52.1312L58.5137 46.2575C58.7165 46.5619 58.7165 47.0555 58.5137 47.3599C58.311 47.6644 57.9822 47.6644 57.7794 47.3599L50.5105 39.0141C50.1835 38.523 50.4151 37.6834 50.8777 37.6834H55.0313C56.2873 37.6834 57.3349 36.3443 57.5754 34.5651H50.8777C50.5909 34.5651 50.3585 34.2161 50.3585 33.7856C50.3585 33.3551 50.5909 33.006 50.8777 33.006H57.5754C57.3349 31.2269 56.2873 29.8878 55.0313 29.8878H50.8777C50.5909 29.8878 50.3585 29.5388 50.3585 29.1083C50.3585 28.6778 50.5909 28.3287 50.8777 28.3287H55.0313H62.3003C62.587 28.3287 62.8195 28.6778 62.8195 29.1083C62.8195 29.5388 62.587 29.8878 62.3003 29.8878L58.0348 29.8878Z" fill="#0B0B1E" stroke="#0B0B1E"/>
<path d="M32.3491 24.9304C28.9494 28.8956 23.8523 39.0918 32.3498 49.8544" stroke="#0B0B1E" stroke-width="3"/>
<path d="M24.1875 26.7889L32.2316 24.9304L33.9764 32.0912" stroke="#0B0B1E" stroke-width="3"/>
<path d="M79.9283 49.8543C83.3279 45.8891 88.4251 35.6929 79.9276 24.9302" stroke="#0B0B1E" stroke-width="3"/>
<path d="M86.9302 49.5533L79.1271 51.2104L77.2303 43.9194" stroke="#0B0B1E" stroke-width="3"/>
<path d="M29.9434 65.2158L40.9201 58.6173C43.156 57.3287 48.7777 55.1379 53.3773 56.6843L70.6257 62.4838C72.3313 63.1281 75.4857 65.3833 74.4587 69.2492C73.5004 71.1822 71.5839 73.1152 66.7927 71.1822L53.3773 66.3498" stroke="#0B0B1E" stroke-width="3" stroke-linecap="round" stroke-linejoin="round"/>
<path d="M39.959 82.7798C41.8755 81.8133 44.7502 79.8803 51.4579 81.8133C54.4827 82.685 59.1239 85.6793 64.8733 82.7798L93.6207 67.3159C98.2203 64.8417 96.8148 61.1303 95.5372 59.5839C93.6207 57.2643 90.4265 57.9731 88.8295 58.6174L74.4558 66.3494" stroke="#0B0B1E" stroke-width="3" stroke-linecap="round" stroke-linejoin="round"/>
<path d="M69.6641 61.5187L76.3718 58.283C77.9689 57.6387 81.2717 57.2321 83.1882 59.5517" stroke="#0B0B1E" stroke-width="3" stroke-linecap="round" stroke-linejoin="round"/>
<mask id="path-11-inside-1_4177_2928" fill="white">
<rect width="13.4444" height="34.5989" rx="2" transform="matrix(0.864159 -0.503219 0.496788 0.867872 15.2129 64.9727)"/>
</mask>
<rect width="13.4444" height="34.5989" rx="2" transform="matrix(0.864159 -0.503219 0.496788 0.867872 15.2129 64.9727)" stroke="#0B0B1E" stroke-width="6" mask="url(#path-11-inside-1_4177_2928)"/>
</svg>
