<svg width="112" height="112" viewBox="0 0 112 112" fill="none" xmlns="http://www.w3.org/2000/svg">
<rect x="1.5" y="1.5" width="109" height="109" rx="10.5" stroke="#0B0B1E" stroke-width="3"/>
<path d="M18.0234 65.613L45.1057 46.394L72.1879 65.613" stroke="#0B0B1E" stroke-width="3" stroke-linecap="round" stroke-linejoin="round"/>
<path d="M25.0117 60.368V47.2642H33.7479V55.1265" stroke="#0B0B1E" stroke-width="3" stroke-linejoin="round"/>
<path d="M38.125 92.6942V74.3489H52.1029V92.6942" stroke="#0B0B1E" stroke-width="3" stroke-linecap="round" stroke-linejoin="round"/>
<path d="M25.0117 61.2439V93.5632H45.2897L66.9455 93.5665M65.2451 61.2439V70.8533" stroke="#0B0B1E" stroke-width="3"/>
<path d="M44.665 57.5034C46.9727 57.5035 48.8438 59.3746 48.8438 61.6821C48.8435 63.9895 46.9726 65.8598 44.665 65.8599C42.3574 65.8599 40.4865 63.9895 40.4863 61.6821C40.4863 59.3746 42.3572 57.5034 44.665 57.5034Z" stroke="#0B0B1E" stroke-width="3"/>
<path d="M56.3125 47.2404L49.341 42.2083L51.8567 38.7232L54.2282 39.1094L55.4864 37.3664L53.7434 36.1083L58.7761 29.1363C61.2638 25.6299 64.1731 24.416 67.9247 23.8099L63.5204 29.9096C61.9476 32.0884 64.8768 33.5398 65.7483 34.1689L60.7155 41.1408L58.9725 39.8827L57.7143 41.6257L58.8283 43.7553L56.3125 47.2404Z" stroke="#0B0B1E" stroke-width="3" stroke-linecap="round" stroke-linejoin="round"/>
<path d="M62.9766 40.7776L70.0601 45.8905" stroke="#0B0B1E" stroke-width="3" stroke-linecap="round" stroke-linejoin="round"/>
<path d="M66.0488 36.5286L73.1324 41.6415" stroke="#0B0B1E" stroke-width="3" stroke-linecap="round" stroke-linejoin="round"/>
<path d="M74.1522 40.2241L69.0391 47.3074L79.6645 54.9768C81.6205 56.3887 84.3508 55.9476 85.7628 53.9916C87.1747 52.0356 86.7337 49.3054 84.7776 47.8935L74.1522 40.2241Z" stroke="#0B0B1E" stroke-width="3" stroke-linecap="round" stroke-linejoin="round"/>
<path d="M79.1741 70.8535H60.8281V77.8422H79.1741V70.8535Z" stroke="#0B0B1E" stroke-width="3" stroke-linecap="round" stroke-linejoin="round"/>
<path d="M74.8093 87.4512H67.8203V97.0606H74.8093V87.4512Z" stroke="#0B0B1E" stroke-width="3" stroke-linecap="round" stroke-linejoin="round"/>
<path d="M79.1712 74.3481H83.5393V83.9576H71.3086V87.452" stroke="#0B0B1E" stroke-width="3" stroke-linecap="round" stroke-linejoin="round"/>
</svg>
