<svg width="112" height="112" viewBox="0 0 112 112" fill="none" xmlns="http://www.w3.org/2000/svg">
<rect x="1.5" y="1.5" width="109" height="109" rx="10.5" stroke="#002BDC" stroke-width="3"/>
<path d="M18.0234 65.6127L45.1057 46.3938L72.1879 65.6127" stroke="#002BDC" stroke-width="3" stroke-linecap="round" stroke-linejoin="round"/>
<path d="M25.0117 60.3677V47.2639H33.7479V55.1262" stroke="#002BDC" stroke-width="3" stroke-linejoin="round"/>
<path d="M38.125 92.694V74.3486H52.1029V92.694" stroke="#002BDC" stroke-width="3" stroke-linecap="round" stroke-linejoin="round"/>
<path d="M25.0117 61.2437V93.563H45.2897L66.9455 93.5663M65.2451 61.2437V70.853" stroke="#002BDC" stroke-width="3"/>
<path d="M44.665 57.5032C46.9727 57.5033 48.8438 59.3744 48.8438 61.6819C48.8435 63.9892 46.9726 65.8595 44.665 65.8596C42.3574 65.8596 40.4865 63.9893 40.4863 61.6819C40.4863 59.3743 42.3572 57.5032 44.665 57.5032Z" stroke="#002BDC" stroke-width="3"/>
<path d="M56.3125 47.2401L49.341 42.208L51.8567 38.723L54.2282 39.1092L55.4864 37.3662L53.7434 36.108L58.7761 29.1361C61.2638 25.6296 64.1731 24.4158 67.9247 23.8097L63.5204 29.9094C61.9476 32.0881 64.8768 33.5396 65.7483 34.1686L60.7155 41.1406L58.9725 39.8824L57.7143 41.6254L58.8283 43.7551L56.3125 47.2401Z" stroke="#002BDC" stroke-width="3" stroke-linecap="round" stroke-linejoin="round"/>
<path d="M62.9766 40.7773L70.0601 45.8903" stroke="#002BDC" stroke-width="3" stroke-linecap="round" stroke-linejoin="round"/>
<path d="M66.0488 36.5283L73.1324 41.6413" stroke="#002BDC" stroke-width="3" stroke-linecap="round" stroke-linejoin="round"/>
<path d="M74.1522 40.2238L69.0391 47.3071L79.6645 54.9766C81.6205 56.3885 84.3508 55.9474 85.7628 53.9914C87.1747 52.0354 86.7337 49.3051 84.7776 47.8933L74.1522 40.2238Z" stroke="#002BDC" stroke-width="3" stroke-linecap="round" stroke-linejoin="round"/>
<path d="M79.1741 70.8533H60.8281V77.842H79.1741V70.8533Z" stroke="#002BDC" stroke-width="3" stroke-linecap="round" stroke-linejoin="round"/>
<path d="M74.8093 87.4509H67.8203V97.0604H74.8093V87.4509Z" stroke="#002BDC" stroke-width="3" stroke-linecap="round" stroke-linejoin="round"/>
<path d="M79.1712 74.3479H83.5393V83.9574H71.3086V87.4517" stroke="#002BDC" stroke-width="3" stroke-linecap="round" stroke-linejoin="round"/>
</svg>
