<svg width="69" height="57" viewBox="0 0 69 57" fill="none" xmlns="http://www.w3.org/2000/svg">
<path d="M9 40.5V1C25.8099 2.24138 31.3374 6.27586 32 8.13793V46C26.0938 42.7724 14.2058 41.2241 9 40.5Z" stroke="#0C4F6A" stroke-width="2" stroke-linecap="round" stroke-linejoin="round"/>
<path d="M13.1484 9.83447C17.1645 10.3365 25.8593 11.7623 28.5099 13.4491" stroke="#0C4F6A" stroke-width="2" stroke-linecap="round" stroke-linejoin="round"/>
<path d="M13.1484 16.1562C17.1645 16.6583 25.8593 18.084 28.5099 19.7709" stroke="#0C4F6A" stroke-width="2" stroke-linecap="round" stroke-linejoin="round"/>
<path d="M13.1484 22.1836C17.1645 22.6856 25.8593 24.1114 28.5099 25.7982" stroke="#0C4F6A" stroke-width="2" stroke-linecap="round" stroke-linejoin="round"/>
<path d="M13.1484 28.2065C17.1645 28.7086 25.8593 30.1343 28.5099 31.8212" stroke="#0C4F6A" stroke-width="2" stroke-linecap="round" stroke-linejoin="round"/>
<path d="M60 39.7931V1C42.4593 2.24138 36.6914 6.27586 36 8.13793V46C42.163 42.7724 54.5679 40.5172 60 39.7931Z" stroke="#0C4F6A" stroke-width="2" stroke-linecap="round" stroke-linejoin="round"/>
<path d="M1 9H5.14762V43.9286C18.5476 44.8812 28.0127 47.9506 34.181 50.9143C44.901 45.8337 58.4286 44.1402 63.5333 43.9286V9H68V52.9143H39.9238C35.5848 58.5028 30.4587 55.2428 28.4381 52.9143H1V9Z" stroke="#0C4F6A" stroke-width="2" stroke-linecap="round" stroke-linejoin="round"/>
<path d="M40.5645 5.31116V13.7453L44.7813 9.52821L48.697 12.2392V3.20264" stroke="#0C4F6A" stroke-width="2" stroke-linecap="round" stroke-linejoin="round"/>
<path d="M47.4746 18C51.5801 18 54.9082 21.3288 54.9082 25.4346C54.9079 29.5401 51.58 32.8682 47.4746 32.8682C43.3693 32.8681 40.0413 29.5401 40.041 25.4346C40.041 21.3288 43.3692 18.0001 47.4746 18Z" stroke="#0C4F6A" stroke-width="2"/>
<path d="M50.2686 21.75L50.3262 21.7539C50.4573 21.7719 50.5611 21.8494 50.6279 21.9385C50.7041 22.0401 50.744 22.169 50.7441 22.3008C50.7441 22.4327 50.7042 22.5623 50.6279 22.6641C50.5516 22.7658 50.4271 22.8524 50.2686 22.8525H48.8906C49.0181 23.0601 49.1337 23.2981 49.1963 23.5576H50.2686C50.4271 23.5578 50.5516 23.6443 50.6279 23.7461C50.7041 23.8478 50.7441 23.9766 50.7441 24.1084C50.7441 24.2404 50.7042 24.3699 50.6279 24.4717C50.5516 24.5734 50.4271 24.66 50.2686 24.6602H49.2021C49.0009 25.6689 48.1992 26.4678 47.3057 26.4678H46.458L48.7949 28.75L48.8096 28.7627L48.8203 28.7783C48.9022 28.8876 48.9365 29.0201 48.9365 29.1416C48.9365 29.2631 48.9022 29.3957 48.8203 29.5049C48.7364 29.6166 48.6088 29.6924 48.4609 29.6924C48.3243 29.6924 48.2066 29.6263 48.123 29.5283V29.5293L44.96 26.3047L44.9492 26.293L44.9385 26.2793C44.8103 26.1082 44.8001 25.8923 44.8516 25.7266C44.9009 25.5682 45.0435 25.3652 45.2988 25.3652H47.1055C47.416 25.3652 47.7374 25.1069 47.8916 24.6602H45.2988C45.1401 24.6602 45.0149 24.5735 44.9385 24.4717C44.8623 24.3699 44.8223 24.2403 44.8223 24.1084C44.8223 23.9767 44.8624 23.8477 44.9385 23.7461C45.0149 23.6442 45.1401 23.5576 45.2988 23.5576H47.8916C47.7374 23.1108 47.4161 22.8525 47.1055 22.8525H45.2988C45.1401 22.8525 45.0149 22.7659 44.9385 22.6641C44.8623 22.5623 44.8223 22.4327 44.8223 22.3008C44.8224 22.169 44.8624 22.0401 44.9385 21.9385C45.0149 21.8366 45.1401 21.75 45.2988 21.75H50.2686Z" fill="#0C4F6A" stroke="#0C4F6A" stroke-width="0.5"/>
</svg>
