<svg width="55" height="66" viewBox="0 0 55 66" fill="none" xmlns="http://www.w3.org/2000/svg">
<path d="M34.4551 31.5454L8.27333 31.5454" stroke="#5C3781" stroke-width="2" stroke-linecap="round" stroke-linejoin="round"/>
<path d="M25.7266 38.8181H8.27206" stroke="#5C3781" stroke-width="2" stroke-linecap="round" stroke-linejoin="round"/>
<path d="M34.4551 9.72729L21.3642 9.72729" stroke="#5C3781" stroke-width="2" stroke-linecap="round" stroke-linejoin="round"/>
<path d="M21.3633 46.0908H8.27241" stroke="#5C3781" stroke-width="2" stroke-linecap="round" stroke-linejoin="round"/>
<path d="M34.4551 17L17.0006 17" stroke="#5C3781" stroke-width="2" stroke-linecap="round" stroke-linejoin="round"/>
<path d="M34.4551 24.2727L8.27333 24.2727" stroke="#5C3781" stroke-width="2" stroke-linecap="round" stroke-linejoin="round"/>
<path d="M1 12.6364V53.3635H21.3636H27.1817M1 12.6364L13.3636 1.00002M1 12.6364H13.3636V1.00002M13.3636 1.00002H41.7272V14.0909V27.1818V38.8181" stroke="#5C3781" stroke-width="2" stroke-linecap="round" stroke-linejoin="round"/>
<path d="M42.9741 5.36365H49.0001V19.1818V32.9999V46.5M6.81836 54.6608V60.6362H35.0002" stroke="#5C3781" stroke-width="2" stroke-linecap="round" stroke-linejoin="round"/>
<circle cx="38.0921" cy="49.7269" r="11.3636" stroke="#5C3781" stroke-width="2"/>
<path d="M46.5 58L53.3614 64.9998" stroke="#5C3781" stroke-width="2" stroke-linecap="round"/>
<path d="M33.2779 49.7282L36.1899 52.6368L42.7355 46.0904" stroke="#5C3781" stroke-width="2" stroke-linecap="round" stroke-linejoin="round"/>
</svg>
