<svg width="73" height="68" viewBox="0 0 73 68" fill="none" xmlns="http://www.w3.org/2000/svg">
<path d="M12.4023 42.664L22.4409 37.0509C24.3928 35.9817 29.3005 34.1641 33.316 35.4471L48.3738 40.2587C49.8627 40.7933 52.6165 42.6644 51.7199 45.8719C50.8834 47.4756 49.2103 49.0793 45.0276 47.4756L33.316 43.4662" stroke="#235723" stroke-width="2" stroke-linecap="round" stroke-linejoin="round"/>
<path d="M21.6055 57.0976C23.2786 56.2958 25.7882 54.692 31.644 56.2958C34.2847 57.019 38.3364 59.5032 43.3556 57.0976L68.452 44.2677C72.4674 42.2149 71.2404 39.1357 70.125 37.8527C68.452 35.9282 65.6635 36.5162 64.2692 37.0508L51.7211 43.4658" stroke="#235723" stroke-width="2" stroke-linecap="round" stroke-linejoin="round"/>
<path d="M47.5332 39.456L53.389 36.7715C54.7833 36.2369 57.5717 35.6489 59.2448 37.5734" stroke="#235723" stroke-width="2" stroke-linecap="round" stroke-linejoin="round"/>
<rect x="1.3909" y="0.372402" width="9.59217" height="27.0828" rx="1" transform="matrix(0.874949 -0.484215 0.515953 0.856617 -0.0182082 43.0487)" stroke="#235723" stroke-width="2"/>
<path d="M14 27V5C14 2.79086 15.7909 1 18 1H56C58.2091 1 60 2.79086 60 5V27C60 29.2091 58.2091 31 56 31H18C15.7909 31 14 29.2091 14 27Z" stroke="#235723" stroke-width="2" stroke-linecap="round" stroke-linejoin="round"/>
<path d="M20 7L25 7" stroke="#235723" stroke-width="2" stroke-linecap="round" stroke-linejoin="round"/>
<path d="M31 7H53" stroke="#235723" stroke-width="2" stroke-linecap="round" stroke-linejoin="round"/>
<path d="M20 25L53 25" stroke="#235723" stroke-width="2" stroke-linecap="round" stroke-linejoin="round"/>
<path d="M51.498 20.5732L48.6237 16.3474V20.5732H46.541V11.0039H48.6237V15.2024L51.4736 11.0039H53.9216L50.6089 15.6931L54.0434 20.5732H51.498Z" fill="#235723"/>
<path d="M45.0294 20.5732H42.9468L39.4635 14.6708V20.5732H37.3809V11.0039H39.4635L42.9468 16.9336V11.0039H45.0294V20.5732Z" fill="#235723"/>
<path d="M33.7185 18.8829H30.5275L30.016 20.5732H27.8359L30.9295 11.0039H33.3409L36.4345 20.5732H34.23L33.7185 18.8829ZM33.1826 17.0835L32.123 13.5802L31.0756 17.0835H33.1826Z" fill="#235723"/>
<path d="M25.5492 15.6659C26.0445 15.784 26.4424 16.0612 26.7428 16.4974C27.0432 16.9245 27.1934 17.4152 27.1934 17.9696C27.1934 18.7693 26.9417 19.4054 26.4383 19.878C25.943 20.3414 25.2488 20.5732 24.3556 20.5732H20.373V11.0039H24.2217C25.0905 11.0039 25.7684 11.2266 26.2556 11.6718C26.7509 12.1171 26.9985 12.7215 26.9985 13.4848C26.9985 14.0483 26.8646 14.5163 26.5966 14.8889C26.3368 15.2615 25.9877 15.5205 25.5492 15.6659ZM22.4557 14.8752H23.8198C24.1608 14.8752 24.4206 14.7934 24.5992 14.6299C24.786 14.4572 24.8794 14.2073 24.8794 13.8801C24.8794 13.553 24.786 13.3031 24.5992 13.1304C24.4206 12.9577 24.1608 12.8714 23.8198 12.8714H22.4557V14.8752ZM23.9903 18.692C24.3394 18.692 24.6074 18.6057 24.7941 18.433C24.989 18.2513 25.0864 17.9923 25.0864 17.656C25.0864 17.3198 24.9849 17.0563 24.7819 16.8654C24.5871 16.6746 24.3151 16.5792 23.9659 16.5792H22.4557V18.692H23.9903Z" fill="#235723"/>
</svg>
