<svg width="112" height="112" viewBox="0 0 112 112" fill="none" xmlns="http://www.w3.org/2000/svg">
<g clip-path="url(#clip0_4177_1532)">
<path d="M53.9316 25.3767V29.0004L58.8039 33.787L58.8039 43.2761L71.9365 55.5442H77.9607V58.1922" stroke="#002BDC" stroke-width="3" stroke-linecap="round" stroke-linejoin="round"/>
<path d="M57.8926 55.6348C57.8926 53.2413 57.8926 52.1726 57.8926 49.7791L66.1891 57.7557V61.7396" stroke="#002BDC" stroke-width="3" stroke-linecap="round" stroke-linejoin="round"/>
<path d="M62.5352 16.7764V39.2559L69.8499 46.2012L74.6905 42.1701L81.298 47.9629" stroke="#002BDC" stroke-width="3" stroke-linejoin="round"/>
<path d="M47.6504 18.4045V29.3179L54.6266 36.6299V41.9774L49.9758 46.7793V52.5634" stroke="#002BDC" stroke-width="3" stroke-linecap="round" stroke-linejoin="round"/>
<path d="M67.2539 17.7048V37.1826L70.1528 40.1105L76.9611 33.9752" stroke="#002BDC" stroke-width="3" stroke-linecap="round" stroke-linejoin="round"/>
<path d="M37.4707 34.5471C38.5201 34.5472 39.3749 35.3997 39.375 36.4563C39.375 37.513 38.5201 38.3654 37.4707 38.3655C36.4212 38.3655 35.5664 37.513 35.5664 36.4563C35.5665 35.3997 36.4213 34.5471 37.4707 34.5471Z" stroke="#002BDC" stroke-width="3"/>
<path d="M37.4707 43.9229C38.5201 43.9229 39.3749 44.7755 39.375 45.832C39.375 46.8887 38.5201 47.7411 37.4707 47.7412C36.4212 47.7412 35.5664 46.8887 35.5664 45.832C35.5665 44.7754 36.4213 43.9229 37.4707 43.9229Z" stroke="#002BDC" stroke-width="3"/>
<path d="M79.1699 30.2854C80.2193 30.2855 81.0741 31.138 81.0742 32.1946C81.0742 33.2512 80.2193 34.1037 79.1699 34.1038C78.1204 34.1038 77.2656 33.2513 77.2656 32.1946C77.2657 31.138 78.1205 30.2854 79.1699 30.2854Z" stroke="#002BDC" stroke-width="3"/>
<path d="M82.5723 47.3325C83.6216 47.3326 84.4764 48.1851 84.4766 49.2417C84.4766 50.2984 83.6217 51.1508 82.5723 51.1509C81.5228 51.1509 80.668 50.2984 80.668 49.2417C80.6681 48.1851 81.5229 47.3325 82.5723 47.3325Z" stroke="#002BDC" stroke-width="3"/>
<path d="M78.3145 59.2651C77.2651 59.2652 76.4103 60.1178 76.4102 61.1743C76.4102 62.231 77.265 63.0834 78.3145 63.0835C79.3639 63.0835 80.2188 62.231 80.2188 61.1743C80.2186 60.1177 79.3639 59.2651 78.3145 59.2651Z" stroke="#002BDC" stroke-width="3"/>
<path d="M66.4023 62.6746C65.353 62.6746 64.4982 63.5272 64.498 64.5837C64.498 65.6404 65.3529 66.4929 66.4023 66.4929C67.4518 66.4929 68.3066 65.6404 68.3066 64.5837C68.3065 63.5271 67.4518 62.6746 66.4023 62.6746Z" stroke="#002BDC" stroke-width="3"/>
<path d="M57.8926 56.7083C56.8432 56.7083 55.9884 57.5609 55.9883 58.6174C55.9883 59.6741 56.8432 60.5265 57.8926 60.5266C58.9421 60.5266 59.7969 59.6741 59.7969 58.6174C59.7968 57.5608 58.942 56.7083 57.8926 56.7083Z" stroke="#002BDC" stroke-width="3"/>
<path d="M50.2344 53.2988C49.185 53.2989 48.3302 54.1514 48.3301 55.208C48.3301 56.2647 49.1849 57.1171 50.2344 57.1172C51.2839 57.1172 52.1387 56.2647 52.1387 55.208C52.1386 54.1514 51.2838 53.2988 50.2344 53.2988Z" stroke="#002BDC" stroke-width="3"/>
<path d="M54.4883 20.9087C53.4389 20.9088 52.5841 21.7613 52.584 22.8179C52.584 23.8745 53.4389 24.727 54.4883 24.7271C55.5378 24.7271 56.3926 23.8746 56.3926 22.8179C56.3925 21.7613 55.5377 20.9087 54.4883 20.9087Z" stroke="#002BDC" stroke-width="3"/>
<path d="M39.5938 36.7739H43.4234L49.051 30.4895" stroke="#002BDC" stroke-width="3" stroke-linejoin="round"/>
<path d="M39.1699 46.028H44.7017L53.8548 34.751" stroke="#002BDC" stroke-width="3" stroke-linejoin="round"/>
<path d="M47.7238 95.9627C48.0498 91.5443 47.3979 82.4908 42.8348 82.9252L36.3161 83.2514C34.6449 83.3537 31.323 82.7044 30.6511 79.4342C30.5653 79.0165 30.6121 78.5862 30.6843 78.166C30.9728 76.4846 31.0647 73.8671 29.6887 73.2555C29.2203 73.0505 28.231 72.3959 28.9025 71.5211C29.3134 70.9859 30.0795 70.3593 29.525 69.9747C29.2714 69.7988 28.8717 69.6476 28.3848 69.4528C28.1313 69.3079 27.7763 68.627 28.3848 67.497C28.8194 66.6278 29.2106 64.7807 27.2985 64.3461C25.5239 64.165 22.2139 63.2379 23.17 60.9779L29.1455 50.1129C30.0144 48.1572 28.687 44.6804 28.7107 43.7025C28.8193 39.2116 31.0357 28.7304 39.032 22.7329C44.4642 18.2057 59.3486 11.4115 75.4281 20.4512C80.2085 23.0951 89.7476 31.7075 89.6607 45.0064C89.552 48.5556 89.3347 54.8936 85.0976 61.8472C82.7685 65.6695 79.5179 69.3441 78.4702 74.2334C77.7097 77.7827 77.3403 86.511 81.9469 95.203" stroke="#002BDC" stroke-width="3" stroke-linecap="round" stroke-linejoin="round"/>
<rect x="1.5" y="1.5" width="109" height="109" rx="10.5" stroke="#002BDC" stroke-width="3"/>
</g>
<defs>
<clipPath id="clip0_4177_1532">
<rect width="112" height="112" fill="white"/>
</clipPath>
</defs>
</svg>
