<svg width="33" height="38" viewBox="0 0 33 38" fill="none" xmlns="http://www.w3.org/2000/svg">
<path d="M28 21L10 21" stroke="#002BDC" stroke-width="2" stroke-linecap="round" stroke-linejoin="round"/>
<path d="M28 16L13 16" stroke="#002BDC" stroke-width="2" stroke-linecap="round" stroke-linejoin="round"/>
<path d="M28 26L10 26" stroke="#002BDC" stroke-width="2" stroke-linecap="round" stroke-linejoin="round"/>
<path d="M28 31L10 31" stroke="#002BDC" stroke-width="2" stroke-linecap="round" stroke-linejoin="round"/>
<path d="M21 8H28V12H21V8Z" stroke="#002BDC" stroke-width="2" stroke-linecap="round" stroke-linejoin="round"/>
<path d="M6 12.5V37H32V4H17" stroke="#002BDC" stroke-width="2" stroke-linecap="round" stroke-linejoin="round"/>
<path d="M1 11V2C1 1.44772 1.44772 1 2 1H16C16.5523 1 17 1.44772 17 2V11C17 11.5523 16.5523 12 16 12H2C1.44772 12 1 11.5523 1 11Z" stroke="#002BDC" stroke-width="2"/>
<path d="M1.5 1.5L9 7L16.5 1.5" stroke="#002BDC" stroke-width="2" stroke-linecap="round" stroke-linejoin="round"/>
<path d="M1.42188 10.5236L8.15872 5.76172" stroke="#002BDC" stroke-width="2"/>
<path d="M17 10.5236L10.2632 5.76172" stroke="#002BDC" stroke-width="2"/>
</svg>
