<svg width="38" height="46" viewBox="0 0 38 46" fill="none" xmlns="http://www.w3.org/2000/svg">
<path d="M24 22L6 22" stroke="#002BDC" stroke-width="2" stroke-linecap="round" stroke-linejoin="round"/>
<path d="M18 27H6" stroke="#002BDC" stroke-width="2" stroke-linecap="round" stroke-linejoin="round"/>
<path d="M24 7L15 7" stroke="#002BDC" stroke-width="2" stroke-linecap="round" stroke-linejoin="round"/>
<path d="M15 32H6" stroke="#002BDC" stroke-width="2" stroke-linecap="round" stroke-linejoin="round"/>
<path d="M24 12L12 12" stroke="#002BDC" stroke-width="2" stroke-linecap="round" stroke-linejoin="round"/>
<path d="M24 17L6 17" stroke="#002BDC" stroke-width="2" stroke-linecap="round" stroke-linejoin="round"/>
<path d="M1 9V37H15H19M1 9L9.5 1M1 9H9.5V1M9.5 1H29V10V19V27" stroke="#002BDC" stroke-width="2" stroke-linecap="round" stroke-linejoin="round"/>
<path d="M29.8571 4H34V13.5V23V34.5M5 37.8919V42H27" stroke="#002BDC" stroke-width="2" stroke-linecap="round" stroke-linejoin="round"/>
<circle cx="26.5" cy="34.5" r="7.5" stroke="#002BDC" stroke-width="2"/>
<path d="M31.9707 39.9707L37.0001 45.0001" stroke="#002BDC" stroke-width="2" stroke-linecap="round"/>
<path d="M23.1897 34.5009L25.1917 36.5006L29.6918 31.9999" stroke="#002BDC" stroke-width="2" stroke-linecap="round" stroke-linejoin="round"/>
</svg>
