<svg width="42" height="50" viewBox="0 0 42 50" fill="none" xmlns="http://www.w3.org/2000/svg">
<path fill-rule="evenodd" clip-rule="evenodd" d="M26.0068 2.00002C26.2308 1.99828 26.4543 2.08869 26.6153 2.24604L32.6724 8.36537C32.8362 8.52897 32.9295 8.76102 32.9295 8.99366V28.4565C32.5576 28.4183 32.1801 28.3983 31.798 28.3983C31.597 28.3983 31.3973 28.4038 31.199 28.4145V9.86795H26.0068C25.5538 9.86777 25.142 9.45133 25.1419 8.99366V3.74862H3.73051V38.7175H20.8772C20.8658 38.9218 20.8595 39.1276 20.8595 39.3347C20.8595 39.7168 20.8795 40.0942 20.9177 40.4661H2.86563C2.41255 40.4661 2.00005 40.0495 2.00001 39.5918V2.87432C1.99815 2.44279 2.35862 2.04086 2.78385 2.00002H26.0068ZM26.8724 8.11936H29.982L26.8724 4.97793V8.11936Z" fill="#002BDC"/>
<path d="M23.1808 32.5982C22.7548 33.1422 22.3785 33.7271 22.0603 34.3468H7.19226C6.7144 34.3468 6.32673 33.9552 6.32664 33.4725C6.32664 32.9896 6.71434 32.5982 7.19226 32.5982H23.1808Z" fill="#002BDC"/>
<path d="M27.7373 27.2316C28.2151 27.2316 28.6028 27.6232 28.6029 28.1059C28.6029 28.5888 28.2152 28.9802 27.7373 28.9802H7.19226C6.71434 28.9802 6.32664 28.5888 6.32664 28.1059C6.32679 27.6232 6.71444 27.2316 7.19226 27.2316H27.7373Z" fill="#002BDC"/>
<path d="M27.7373 21.8659C28.2152 21.8659 28.6029 22.2574 28.6029 22.7402C28.6029 23.223 28.2152 23.6145 27.7373 23.6145H7.19226C6.71434 23.6145 6.32664 23.223 6.32664 22.7402C6.32668 22.2574 6.71437 21.8659 7.19226 21.8659H27.7373Z" fill="#002BDC"/>
<path d="M15.3718 5.96124C15.8497 5.96124 16.2374 6.35275 16.2374 6.83554C16.2374 7.31837 15.8497 7.70983 15.3718 7.70983H13.8984C14.1414 8.10204 14.3106 8.54443 14.4119 9.02091H15.3718C15.8496 9.02091 16.2373 9.41244 16.2374 9.8952C16.2374 10.378 15.8497 10.7695 15.3718 10.7695H14.4119C14.042 12.5328 12.5809 13.829 10.9509 13.8292H8.81447L12.5193 17.5724C12.8516 17.8918 12.8669 18.4846 12.5458 18.8157C12.2064 19.1655 11.622 19.1477 11.3023 18.8157L6.11005 13.5699C5.87228 13.3403 5.80539 12.9553 5.89419 12.6551C5.98856 12.3364 6.29661 12.0997 6.62426 12.0673C8.02749 12.1189 9.5237 12.0581 10.9509 12.0813C11.4489 12.0811 12.2131 11.5444 12.5731 10.7695H6.71856C6.24079 10.7694 5.85368 10.378 5.85368 9.8952C5.85381 9.41248 6.24087 9.02098 6.71856 9.02091H12.5731C12.211 8.2519 11.4465 7.71001 10.9509 7.70983H6.71856C6.24079 7.70977 5.85368 7.31833 5.85368 6.83554C5.85374 6.3528 6.24083 5.96131 6.71856 5.96124H15.3718Z" fill="#002BDC"/>
<path d="M27.7373 16.5001C28.2152 16.5001 28.6029 16.8915 28.6029 17.3744C28.6028 17.8571 28.2151 18.2487 27.7373 18.2487H17.576C17.0982 18.2487 16.7105 17.8571 16.7104 17.3744C16.7104 16.8915 17.0981 16.5001 17.576 16.5001H27.7373Z" fill="#002BDC"/>
<path fill-rule="evenodd" clip-rule="evenodd" d="M31.7664 31.0934C36.2984 31.0934 39.9782 34.7725 39.9782 39.3036C39.9782 43.8346 36.2984 47.5137 31.7664 47.5137C27.2345 47.5137 23.5547 43.8346 23.5547 39.3036C23.5547 34.7725 27.2345 31.0934 31.7664 31.0934ZM31.7664 32.2663C27.8821 32.2663 24.7278 35.4199 24.7278 39.3036C24.7278 43.1872 27.8821 46.3409 31.7664 46.3409C35.6508 46.3409 38.8051 43.1872 38.8051 39.3036C38.8051 35.4199 35.6508 32.2663 31.7664 32.2663Z" fill="#002BDC"/>
<path d="M31.7667 30.6411C36.5485 30.6413 40.431 34.5229 40.431 39.3038C40.4309 44.0846 36.5484 47.9663 31.7667 47.9665C26.9848 47.9665 23.1025 44.0847 23.1024 39.3038C23.1024 34.5228 26.9848 30.6411 31.7667 30.6411ZM31.7664 31.0934C27.2345 31.0934 23.5547 34.7725 23.5547 39.3036C23.5547 43.8346 27.2345 47.5137 31.7664 47.5137C36.2984 47.5137 39.9782 43.8346 39.9782 39.3036C39.9782 34.7725 36.2984 31.0934 31.7664 31.0934ZM31.7664 32.2663C35.6508 32.2663 38.8051 35.4199 38.8051 39.3036C38.8051 43.1872 35.6508 46.3409 31.7664 46.3409C27.8821 46.3409 24.7278 43.1872 24.7278 39.3036C24.7278 35.4199 27.8821 32.2663 31.7664 32.2663ZM31.7667 32.719C28.1323 32.719 25.1806 35.6701 25.1806 39.3038C25.1807 42.9374 28.1324 45.8886 31.7667 45.8886C35.4009 45.8885 38.3526 42.9373 38.3528 39.3038C38.3528 35.6702 35.401 32.7191 31.7667 32.719Z" fill="#002BDC"/>
<path d="M34.867 36.374C35.2348 36.0061 35.8311 36.0061 36.1989 36.374C36.5668 36.7418 36.5668 37.3381 36.1989 37.7059L31.6776 42.2272C31.4933 42.4116 31.2406 42.5111 30.98 42.5024C30.7197 42.4937 30.4746 42.3776 30.303 42.1816L27.6656 39.1674C27.3231 38.776 27.3625 38.181 27.7539 37.8384C28.1453 37.4959 28.7403 37.5353 29.0829 37.9267L31.0573 40.1829L34.867 36.374Z" fill="#002BDC"/>
</svg>
