<svg width="215" height="40" viewBox="0 0 215 40" fill="none" xmlns="http://www.w3.org/2000/svg">
<g clip-path="url(#clip0_4425_129)">
<path d="M9.62404 33.1991H20.5313V39.4578H9.62404C4.59815 39.4578 0.534669 35.2595 0.534669 30.0697V11.8358H6.59934V30.0697C6.59934 31.7893 7.95893 33.1991 9.62404 33.1991Z" fill="#F3BA19"/>
<path d="M9.62404 39.4578H20.5313V33.1991H9.54766C7.95893 33.1526 6.67572 31.8513 6.59934 30.2401V30.0852H7.13401C7.13401 31.526 8.26445 32.6723 9.63932 32.6723H21.0812V40H9.63932C4.3079 40 0.0152763 35.5538 0.0152763 30.0852V11.2936H7.13401V30.0697H6.59934V11.8358H0.534669L0.534669 30.3176C0.656879 35.306 4.55232 39.3339 9.39489 39.4578H9.62404Z" fill="#F3BA19"/>
<path d="M23.4185 13.3075C23.4185 9.69791 20.5466 6.76995 17.0177 6.76995H0.534669V0.542215H17.0177C23.9226 0.542215 29.529 6.25871 29.529 13.3075C29.529 20.3563 23.9226 26.0728 17.0177 26.0728H11.6711V19.8451H17.0177C20.5618 19.8451 23.4185 16.9171 23.4185 13.3075Z" fill="#002BDC"/>
<path d="M29.5137 13.3075C29.5137 6.30519 23.999 0.619675 17.1705 0.542215H17.0025V0C24.2129 0 30.0484 5.96437 30.0484 13.3075C30.0484 20.6507 24.2129 26.615 17.0025 26.615H11.1211V19.3184H17.0025V19.8606H11.6558V26.0883H17.1705C23.999 25.9953 29.5137 20.3253 29.5137 13.323V13.3075ZM22.8838 13.3075C22.8838 9.99225 20.241 7.31216 17.0025 7.31216H0V0H17.0025V0.542215L0.534669 0.542215V6.76995H17.0177C20.5618 6.76995 23.4185 9.69791 23.4185 13.3075L23.4185 13.4779C23.3268 16.9481 20.5771 19.7521 17.1705 19.8451H17.0025V19.3029C20.241 19.3029 22.8838 16.6228 22.8838 13.3075Z" fill="#002BDC"/>
<path d="M172.163 12.7498C174.394 12.7498 176.181 13.4934 177.495 14.9651C178.839 16.4214 179.511 18.4198 179.511 20.9915V32.2696H173.691V21.7816C173.691 20.4957 173.355 19.4888 172.698 18.7761C172.041 18.0635 171.14 17.7072 170.025 17.7072C168.91 17.7072 168.024 18.0635 167.351 18.7761C166.695 19.4888 166.358 20.4957 166.358 21.7816V32.2696H160.508V12.9667H166.358V15.5229C166.954 14.6708 167.749 14.0046 168.757 13.5089C169.765 12.9977 170.896 12.7498 172.148 12.7498H172.163Z" fill="#121220"/>
<path d="M136.157 22.5717C136.157 20.5887 136.524 18.8536 137.257 17.3509C138.006 15.8482 139.029 14.7018 140.297 13.8962C141.58 13.0906 143.001 12.6878 144.574 12.6878C145.919 12.6878 147.095 12.9667 148.103 13.5244C149.127 14.0821 149.921 14.8102 150.471 15.7088V12.9822H156.322V32.2851H150.471V29.5585C149.906 30.457 149.096 31.1851 148.073 31.7428C147.064 32.3005 145.888 32.5794 144.544 32.5794C142.986 32.5794 141.58 32.1766 140.297 31.371C139.014 30.5345 138.006 29.3726 137.257 27.8699C136.524 26.3517 136.157 24.6011 136.157 22.6181V22.5717ZM150.456 22.6026C150.456 21.1309 150.043 19.969 149.218 19.1015C148.424 18.2494 147.446 17.8157 146.27 17.8157C145.094 17.8157 144.116 18.2494 143.291 19.1015C142.497 19.938 142.1 21.0844 142.1 22.5562C142.1 24.0279 142.497 25.2053 143.291 26.0883C144.116 26.9404 145.109 27.3741 146.27 27.3741C147.431 27.3741 148.409 26.9404 149.218 26.0883C150.043 25.2363 150.456 24.0744 150.456 22.5871V22.6026Z" fill="#121220"/>
<path d="M124.227 32.5329C122.363 32.5329 120.667 32.1301 119.17 31.3246C117.688 30.519 116.512 29.3571 115.641 27.8699C114.801 26.3672 114.373 24.6166 114.373 22.6181C114.373 20.6197 114.801 18.9001 115.672 17.3974C116.543 15.8792 117.719 14.7173 119.231 13.8962C120.744 13.0906 122.424 12.6878 124.288 12.6878C126.151 12.6878 127.847 13.0906 129.344 13.8962C130.856 14.7018 132.033 15.8637 132.903 17.3974C133.774 18.9001 134.202 20.6352 134.202 22.6181C134.202 24.6011 133.759 26.3517 132.873 27.8699C132.002 29.3726 130.811 30.519 129.283 31.3246C127.771 32.1301 126.09 32.5329 124.227 32.5329ZM124.227 27.4206C125.342 27.4206 126.289 27.0023 127.068 26.1813C127.862 25.3447 128.259 24.1673 128.259 22.6181C128.259 21.0689 127.878 19.8916 127.099 19.055C126.35 18.2184 125.418 17.8157 124.288 17.8157C123.157 17.8157 122.195 18.2339 121.446 19.055C120.698 19.8606 120.316 21.0535 120.316 22.6181C120.316 24.1828 120.682 25.3447 121.416 26.1813C122.164 27.0178 123.096 27.4206 124.227 27.4206Z" fill="#121220"/>
<path d="M111.288 6.66149V32.2695H105.437V6.66149H111.288Z" fill="#121220"/>
<path d="M92.345 32.5329C90.4813 32.5329 88.7857 32.1301 87.2886 31.3246C85.8068 30.519 84.6305 29.3571 83.7598 27.8699C82.9196 26.3672 82.4918 24.6166 82.4918 22.6181C82.4918 20.6197 82.9196 18.9001 83.7903 17.3974C84.6611 15.8792 85.8373 14.7173 87.3497 13.8962C88.862 13.0906 90.5424 12.6878 92.4061 12.6878C94.2698 12.6878 95.9655 13.0906 97.4626 13.8962C98.9749 14.7018 100.151 15.8637 101.022 17.3974C101.893 18.9001 102.32 20.6352 102.32 22.6181C102.32 24.6011 101.877 26.3517 100.991 27.8699C100.121 29.3726 98.9291 30.519 97.4015 31.3246C95.8891 32.1301 94.2087 32.5329 92.345 32.5329ZM92.345 27.4206C93.4602 27.4206 94.4073 27.0023 95.1864 26.1813C95.9808 25.3447 96.378 24.1673 96.378 22.6181C96.378 21.0689 95.996 19.8916 95.217 19.055C94.4684 18.2184 93.5366 17.8157 92.4061 17.8157C91.2757 17.8157 90.3133 18.2339 89.5647 19.055C88.8162 19.8606 88.4343 21.0535 88.4343 22.6181C88.4343 24.1828 88.8009 25.3447 89.5342 26.1813C90.2827 27.0178 91.2146 27.4206 92.345 27.4206Z" fill="#121220"/>
<path d="M62.0216 15.7862C62.0216 17.196 61.7008 18.4818 61.0592 19.6592C60.4176 20.8056 59.4399 21.7506 58.1109 22.4632C56.7819 23.1758 55.1473 23.5322 53.1919 23.5322H49.5715V32.2541H43.7207V7.97832H53.1919C55.1015 7.97832 56.7207 8.31914 58.0498 8.98529C59.3788 9.65144 60.3718 10.5809 61.0287 11.7583C61.6855 12.9357 62.0216 14.2835 62.0216 15.8017V15.7862ZM52.7489 18.8381C53.8641 18.8381 54.7043 18.5748 55.239 18.048C55.7889 17.5213 56.0639 16.7622 56.0639 15.8017C56.0639 14.8412 55.7889 14.0821 55.239 13.5554C54.689 13.0287 53.8641 12.7653 52.7489 12.7653H49.5715V18.8536H52.7489V18.8381Z" fill="#121220"/>
<path d="M203.205 21.8435L199.401 27.3896L189.807 27.4206L200.134 12.471V7.97832H183.178V12.8118H193.428L183.178 27.7614V32.2696H202.487L208.383 23.6561L203.205 21.8435Z" fill="#002BDC"/>
<path d="M79.5455 13.2043C79.5455 13.2043 79.5455 13.1268 79.5455 13.1113C79.4233 12.4917 79.2552 11.903 78.9497 11.3608C78.8122 11.1284 78.6595 10.927 78.4914 10.6946C79.3163 10.6946 80.1565 10.6946 80.9814 10.6946C81.0425 10.6946 81.0884 10.6791 81.1189 10.6172C81.5772 9.90453 82.5396 8.4328 82.5244 8.40182C82.4938 8.40182 67.3703 8.41731 67.3398 8.47927C66.8815 9.1919 66.4232 9.90453 65.9802 10.6017C65.9649 10.6326 65.9343 10.6481 65.9343 10.6946C65.9649 10.6946 66.0107 10.6946 66.0413 10.6946C67.4772 10.7101 68.9285 10.6481 70.3645 10.7566C71.0213 10.8031 71.6782 10.9115 72.3045 11.1284C73.2975 11.4692 74.0766 12.6368 74.5196 13.6283C74.5196 13.6593 74.5654 13.6903 74.5501 13.7367H74.4279C72.1212 13.7367 69.7992 13.7367 67.4925 13.7367C67.4161 13.7367 67.3703 13.7677 67.3245 13.8297C66.8815 14.5268 66.4232 14.676 65.9802 15.3886C65.9649 15.4196 65.9343 15.4506 65.9343 15.4971H66.0413C68.9438 15.4971 71.8462 15.4971 74.7487 15.4971C74.8404 15.4971 74.8709 15.5281 74.8709 15.621C74.8557 16.1787 74.7182 16.7209 74.4738 17.2167C74.0002 18.1462 73.2669 18.7969 72.3351 19.2306C71.388 19.6644 70.395 20.2156 69.3715 20.2466C69.0049 20.2466 68.623 20.2466 68.2563 20.2466C67.7675 20.2466 67.2939 20.2466 66.8051 20.2466C66.7134 20.2466 66.6982 21.322 66.6829 21.9882C66.6829 22.0502 75.1917 32.9254 75.4514 33.2663C76.7958 33.2663 80.4468 33.2663 80.9203 33.2663C80.9203 33.2353 72.6101 23.2585 72.4726 23.0726C72.5031 23.0416 75.6348 22.8402 77.6818 20.1447C78.6747 18.8278 79.1941 17.2322 79.6219 15.621C79.6219 15.59 79.6219 15.5436 79.6371 15.5126C80.0802 15.5126 80.5079 15.5126 80.9509 15.5126C81.012 15.5126 81.0578 15.4971 81.0884 15.4351C81.5467 14.7225 82.005 14.0099 82.4632 13.2972C82.4632 13.2818 82.5091 13.2663 82.4938 13.2198H82.3869C81.4397 13.2198 80.4926 13.2198 79.5455 13.2198V13.2043Z" fill="#F3BA19"/>
<path d="M77.9197 13.2043C77.9197 13.2043 77.9197 13.1268 77.9197 13.1114C77.7975 12.4917 77.6294 11.903 77.3239 11.3608C77.1864 11.1284 77.0337 10.927 76.8656 10.6946C77.6906 10.6946 78.5308 10.6946 79.3557 10.6946C79.4168 10.6946 79.4626 10.6791 79.4931 10.6172C79.9514 9.90454 80.9138 8.43281 80.8986 8.40183C80.868 8.40183 65.7445 8.41732 65.714 8.47929C65.2557 9.19191 64.7974 9.90454 64.3544 10.6017C64.3391 10.6327 64.3086 10.6481 64.3086 10.6946C64.3391 10.6946 64.3849 10.6946 64.4155 10.6946C65.8515 10.7101 67.3027 10.6481 68.7387 10.7566C69.3956 10.8031 70.0524 10.9115 70.6788 11.1284C71.6717 11.4692 72.4508 12.0889 72.8938 13.0804C72.8938 13.1114 72.9396 13.1423 72.9244 13.1888H72.8022C70.4954 13.1888 68.1735 13.1888 65.8667 13.1888C65.7904 13.1888 65.7445 13.2198 65.6987 13.2818C65.2557 13.9789 64.7974 14.676 64.3544 15.3887C64.3391 15.4196 64.3086 15.4506 64.3086 15.4971H64.4155C67.318 15.4971 70.2205 15.4971 73.123 15.4971C73.2146 15.4971 73.2452 15.5281 73.2452 15.621C73.2299 16.1787 73.0924 16.721 72.848 17.2167C72.3744 18.1462 71.6412 18.7969 70.7093 19.2306C69.7622 19.6644 68.7692 19.8503 67.7457 19.8813C67.3791 19.8813 66.9972 19.8813 66.6305 19.8813C66.1417 19.8813 65.6681 19.8813 65.1793 19.8813C65.0876 19.8813 65.0724 21.322 65.0571 21.9882C65.0571 22.0502 73.566 32.9255 73.8257 33.2663C75.17 33.2663 78.821 33.2663 79.2946 33.2663C79.2946 33.2353 70.2816 21.8798 70.1441 21.6938C70.1746 21.6629 71.4884 21.5389 72.0994 21.3995C73.4285 21.0742 74.6353 20.532 75.7046 19.6489C76.9573 18.5955 77.5836 17.2167 77.9961 15.621C77.9961 15.5901 77.9961 15.5436 78.0114 15.5126C78.4544 15.5126 78.8821 15.5126 79.3251 15.5126C79.3862 15.5126 79.432 15.4971 79.4626 15.4351C79.9209 14.7225 80.3792 14.0099 80.8375 13.2973C80.8375 13.2818 80.8833 13.2663 80.868 13.2198H80.7611C79.814 13.2198 78.8668 13.2198 77.9197 13.2198V13.2043Z" fill="#002BDC"/>
<path d="M215 20.5467L212.291 22.3646L208.394 16.4271L201.229 18.5067L200.332 15.3466L209.786 12.6027L215 20.5467Z" fill="#F3BA19"/>
<path d="M214.009 23.4746L211.3 25.2925L207.403 19.355L200.239 21.4346L199.341 18.2745L208.796 15.5306L214.009 23.4746Z" fill="#002BDC"/>
</g>
<defs>
<clipPath id="clip0_4425_129">
<rect width="215" height="40" fill="white"/>
</clipPath>
</defs>
</svg>
