<svg width="183" height="40" viewBox="0 0 183 40" fill="none" xmlns="http://www.w3.org/2000/svg">
<path d="M9.67204 32.9042H20.6371L20.6371 39.1016H9.67204C4.62553 39.1016 0.534521 34.9396 0.534521 29.8054L0.534521 11.7295H6.6262L6.6262 29.8054C6.6262 31.5168 7.98987 32.9042 9.67204 32.9042Z" fill="#F5BA01"/>
<path d="M9.67204 39.1016H20.6371L20.6371 32.9042H9.67204L9.59343 32.9032C7.99986 32.8621 6.71044 31.5758 6.63014 29.965L6.6262 29.8054L7.16069 29.8055C7.16071 31.234 8.29596 32.3722 9.67198 32.3722H21.1715L21.1715 39.6337H9.67198C4.31939 39.6336 1.71394e-05 35.2224 8.04606e-07 29.8055L0 11.1975H7.16069L7.16069 29.8055L6.6262 29.8054L6.6262 11.7295H0.534521L0.534521 29.8054L0.537594 30.0455C0.660759 34.9889 4.57703 38.9732 9.43607 39.0985L9.67204 39.1016Z" fill="#F5BA01"/>
<path d="M23.5304 13.1813C23.5304 9.60307 20.6476 6.70237 17.0915 6.70237H0.534462V0.531998H17.0915C24.0343 0.531998 29.6626 6.19527 29.6626 13.1813C29.6626 20.1673 24.0343 25.8305 17.0915 25.8305H11.7129V19.6601H17.0915C20.6476 19.6601 23.5304 16.7595 23.5304 13.1813Z" fill="#002BDC"/>
<path d="M29.6626 13.1813C29.6626 6.24981 24.1219 0.620503 17.2539 0.533037L17.0915 0.531998L17.0915 0C24.335 1.61174e-05 30.1971 5.90689 30.1971 13.1812C30.1971 20.4556 24.335 26.3625 17.0915 26.3625H11.1785V19.128H17.0915L17.0915 19.6601H11.7129V25.8305H17.0915L17.2539 25.8295C24.1219 25.742 29.6626 20.1127 29.6626 13.1813ZM22.9959 13.1812C22.9959 9.89144 20.347 7.23447 17.0915 7.23445H0V0H17.0915L17.0915 0.531998H0.534462V6.70237H17.0915C20.6476 6.70237 23.5304 9.60307 23.5304 13.1813L23.5283 13.3485C23.4415 16.7938 20.6818 19.5706 17.2578 19.658L17.0915 19.6601L17.0915 19.128C20.347 19.128 22.9959 16.4711 22.9959 13.1812Z" fill="#002BDC"/>
<path d="M172.551 26.2598H182.228V30.7342H166.335V26.5794L175.948 12.7727H166.335V8.29836H182.228V12.4531L172.551 26.2598Z" fill="#0B0B1E"/>
<path d="M156.022 12.7086C158.116 12.7086 159.782 13.3904 161.021 14.754C162.281 16.0963 162.912 17.95 162.912 20.315V30.734H157.464V21.0501C157.464 19.8569 157.154 18.9301 156.535 18.2696C155.915 17.6091 155.082 17.2788 154.036 17.2788C152.989 17.2788 152.156 17.6091 151.536 18.2696C150.917 18.9301 150.607 19.8569 150.607 21.0501V30.734H145.127V12.9003H150.607V15.2654C151.162 14.477 151.91 13.8591 152.85 13.4117C153.79 12.9429 154.847 12.7086 156.022 12.7086Z" fill="#0B0B1E"/>
<path d="M122.289 21.7852C122.289 19.9528 122.631 18.3441 123.315 16.9592C124.02 15.5743 124.97 14.5089 126.166 13.7632C127.363 13.0175 128.698 12.6446 130.172 12.6446C131.432 12.6446 132.532 12.9003 133.472 13.4117C134.434 13.923 135.171 14.5942 135.683 15.4251V12.9003H141.163V30.7339H135.683V28.2091C135.149 29.0401 134.402 29.7112 133.44 30.2226C132.5 30.7339 131.4 30.9896 130.14 30.9896C128.687 30.9896 127.363 30.6167 126.166 29.871C124.97 29.104 124.02 28.028 123.315 26.6431C122.631 25.2368 122.289 23.6175 122.289 21.7852ZM135.683 21.8171C135.683 20.4535 135.299 19.3775 134.53 18.5892C133.782 17.8008 132.864 17.4066 131.774 17.4066C130.685 17.4066 129.755 17.8008 128.986 18.5892C128.239 19.3562 127.865 20.4215 127.865 21.7852C127.865 23.1488 128.239 24.2354 128.986 25.0451C129.755 25.8334 130.685 26.2276 131.774 26.2276C132.864 26.2276 133.782 25.8334 134.53 25.0451C135.299 24.2567 135.683 23.1807 135.683 21.8171Z" fill="#0B0B1E"/>
<path d="M111.115 30.9896C109.363 30.9896 107.782 30.6167 106.372 29.871C104.984 29.1253 103.884 28.0599 103.072 26.675C102.281 25.2901 101.886 23.6708 101.886 21.8171C101.886 19.9847 102.292 18.3761 103.104 16.9912C103.916 15.5849 105.027 14.5089 106.436 13.7632C107.846 13.0175 109.427 12.6446 111.179 12.6446C112.931 12.6446 114.511 13.0175 115.921 13.7632C117.331 14.5089 118.442 15.5849 119.254 16.9912C120.066 18.3761 120.472 19.9847 120.472 21.8171C120.472 23.6495 120.055 25.2688 119.222 26.675C118.41 28.0599 117.289 29.1253 115.857 29.871C114.447 30.6167 112.867 30.9896 111.115 30.9896ZM111.115 26.2595C112.162 26.2595 113.048 25.876 113.774 25.109C114.522 24.3419 114.896 23.2447 114.896 21.8171C114.896 20.3896 114.533 19.2923 113.806 18.5252C113.102 17.7582 112.226 17.3747 111.179 17.3747C110.111 17.3747 109.224 17.7582 108.519 18.5252C107.814 19.271 107.462 20.3683 107.462 21.8171C107.462 23.2447 107.804 24.3419 108.487 25.109C109.192 25.876 110.068 26.2595 111.115 26.2595Z" fill="#0B0B1E"/>
<path d="M99.0055 7.08358V30.7339H93.526V7.08358H99.0055Z" fill="#0B0B1E"/>
<path d="M81.2618 30.9896C79.5101 30.9896 77.9293 30.6167 76.5193 29.871C75.1308 29.1253 74.0306 28.0599 73.2188 26.675C72.4284 25.2901 72.0332 23.6708 72.0332 21.8171C72.0332 19.9847 72.4391 18.3761 73.2509 16.9912C74.0627 15.5849 75.1735 14.5089 76.5834 13.7632C77.9933 13.0175 79.5742 12.6446 81.3259 12.6446C83.0776 12.6446 84.6584 13.0175 86.0683 13.7632C87.4782 14.5089 88.5891 15.5849 89.4009 16.9912C90.2126 18.3761 90.6185 19.9847 90.6185 21.8171C90.6185 23.6495 90.2019 25.2688 89.3688 26.675C88.557 28.0599 87.4355 29.1253 86.0042 29.871C84.5943 30.6167 83.0135 30.9896 81.2618 30.9896ZM81.2618 26.2595C82.3085 26.2595 83.1951 25.876 83.9214 25.109C84.6691 24.3419 85.0429 23.2447 85.0429 21.8171C85.0429 20.3896 84.6798 19.2923 83.9534 18.5252C83.2485 17.7582 82.3726 17.3747 81.3259 17.3747C80.2577 17.3747 79.3712 17.7582 78.6662 18.5252C77.9613 19.271 77.6088 20.3683 77.6088 21.8171C77.6088 23.2447 77.9506 24.3419 78.6342 25.109C79.3392 25.876 80.215 26.2595 81.2618 26.2595Z" fill="#0B0B1E"/>
<path d="M64.8968 15.8726C65.5376 14.8925 66.3387 14.1255 67.3 13.5715C68.2614 12.9962 69.3295 12.7086 70.5044 12.7086V18.4933H68.9984C67.6312 18.4933 66.6058 18.7916 65.9222 19.3882C65.2386 19.9635 64.8968 20.9862 64.8968 22.4563V30.734H59.4173V12.9003H64.8968V15.8726Z" fill="#0B0B1E"/>
<path d="M56.5644 15.5213C56.5644 16.821 56.2653 18.0142 55.6672 19.1008C55.069 20.1661 54.1505 21.029 52.9114 21.6896C51.6724 22.3501 50.1343 22.6803 48.2972 22.6803H44.9006V30.7342H39.4211V8.29836H48.2972C50.0916 8.29836 51.6083 8.6073 52.8474 9.2252C54.0864 9.84309 55.0156 10.6954 55.6351 11.782C56.2547 12.8686 56.5644 14.1151 56.5644 15.5213ZM47.8806 18.3338C48.9274 18.3338 49.7071 18.0887 50.2198 17.5987C50.7325 17.1086 50.9888 16.4162 50.9888 15.5213C50.9888 14.6264 50.7325 13.934 50.2198 13.4439C49.7071 12.9539 48.9274 12.7088 47.8806 12.7088H44.9006V18.3338H47.8806Z" fill="#0B0B1E"/>
</svg>
