<svg width="112" height="112" viewBox="0 0 112 112" fill="none" xmlns="http://www.w3.org/2000/svg">
<rect x="1.5" y="1.5" width="109" height="109" rx="10.5" stroke="#002BDC" stroke-width="3"/>
<mask id="path-2-inside-1_4177_2237" fill="white">
<rect width="11.7373" height="30.2054" rx="2" transform="matrix(0.864163 -0.503212 0.496795 0.867868 20.3926 68.7859)"/>
</mask>
<rect width="11.7373" height="30.2054" rx="2" transform="matrix(0.864163 -0.503212 0.496795 0.867868 20.3926 68.7859)" stroke="#002BDC" stroke-width="6" mask="url(#path-2-inside-1_4177_2237)"/>
<path d="M48.0117 30.5662H61.4291C69.8095 30.5662 85.5063 48.1613 74.6047 62.6587" stroke="#002BDC" stroke-width="3" stroke-linecap="round" stroke-linejoin="round"/>
<path d="M48.0117 30.5662C36.7819 33.0475 25.9711 52.0713 38.0648 64.4782" stroke="#002BDC" stroke-width="3" stroke-linecap="round" stroke-linejoin="round"/>
<path d="M32.7949 69.1468L42.8338 63.2405C44.7858 62.1155 49.6937 60.2029 53.7093 61.553L68.7677 66.6159C70.2567 67.1784 73.0106 69.1472 72.114 72.5223C71.2774 74.2098 69.6042 75.8973 65.4214 74.2098L53.7093 69.991" stroke="#002BDC" stroke-width="3" stroke-linecap="round" stroke-linejoin="round"/>
<path d="M41.9941 84.3336C43.6673 83.4898 46.177 81.8023 52.033 83.4898C54.6738 84.2508 58.7257 86.8649 63.7451 84.3336L88.8424 70.8334C92.8579 68.6734 91.631 65.4333 90.5155 64.0833C88.8424 62.0582 86.0538 62.677 84.6595 63.2395L72.1109 69.9896" stroke="#002BDC" stroke-width="3" stroke-linecap="round" stroke-linejoin="round"/>
<path d="M67.9258 65.7732L73.7818 62.9485C75.1761 62.386 77.9647 61.7672 79.6378 63.7923" stroke="#002BDC" stroke-width="3" stroke-linecap="round" stroke-linejoin="round"/>
<path d="M51.6504 24.8748L53.2249 29.5982" stroke="#002BDC" stroke-width="3" stroke-linecap="round" stroke-linejoin="round"/>
<path d="M57.9492 24.8748L56.3747 29.5982" stroke="#002BDC" stroke-width="3" stroke-linecap="round" stroke-linejoin="round"/>
<path d="M66.6719 39.0447C68.4713 40.5715 72.2502 45.2281 72.9699 51.6406" stroke="#002BDC" stroke-width="3" stroke-linecap="round" stroke-linejoin="round"/>
<path d="M48.433 30.5645L43.1667 22.6701C41.9283 19.2861 45.7451 14.7092 50.8054 18.3215C51.8586 19.4493 55.2916 21.067 58.6621 19.2626C60.1662 18.4573 63.1898 17.074 65.6458 18.3215C66.6294 18.8211 70.0106 21.146 67.3917 24.9136L61.0721 30.5646" stroke="#002BDC" stroke-width="3" stroke-linecap="round" stroke-linejoin="round"/>
<path d="M85.4258 42.741V30.5479" stroke="#002BDC" stroke-width="3" stroke-linecap="round" stroke-linejoin="round"/>
<path d="M51.5527 54.9333L59.6815 41.3855" stroke="#002BDC" stroke-width="3" stroke-linecap="round" stroke-linejoin="round"/>
<path d="M80.0039 37.3218L85.4231 42.741L90.8422 37.3218" stroke="#002BDC" stroke-width="3" stroke-linecap="round" stroke-linejoin="round"/>
<path d="M50.1953 40.1765C51.6116 40.1766 52.7598 41.3248 52.7598 42.741C52.7597 44.1571 51.6115 45.3054 50.1953 45.3054C48.7791 45.3054 47.6309 44.1571 47.6309 42.741C47.6309 41.3247 48.779 40.1765 50.1953 40.1765Z" stroke="#002BDC" stroke-width="3"/>
<path d="M61.0371 51.0144C62.4533 51.0144 63.6016 52.1626 63.6016 53.5789C63.6015 54.995 62.4533 56.1433 61.0371 56.1433C59.6209 56.1433 58.4727 54.995 58.4727 53.5789C58.4727 52.1626 59.6208 51.0144 61.0371 51.0144Z" stroke="#002BDC" stroke-width="3"/>
</svg>
