<svg width="100" height="100" viewBox="0 0 100 100" fill="none" xmlns="http://www.w3.org/2000/svg">
<g clip-path="url(#clip0_4177_1651)">
<path d="M49.8468 99.9944C36.5341 99.9944 24.0134 94.7957 14.6028 85.3471C5.1843 75.9096 0 63.3576 0 50.007C0 36.6565 5.18389 24.1002 14.5948 14.6629C28.6816 0.536152 49.7488 -3.82043 68.2699 3.55687L66.6018 7.76432C49.7608 1.05355 30.6077 5.022 17.787 17.8675C9.22792 26.4509 4.51626 37.8632 4.51626 50.0073C4.51626 62.1514 9.22742 73.5633 17.787 82.1471C26.3466 90.7309 37.7262 95.4555 49.8358 95.4555C61.9455 95.4555 73.3252 90.731 81.8847 82.1471C94.7254 69.2699 98.6706 50.0193 91.9282 33.1075L96.1238 31.4269C103.534 50.0195 99.1982 71.1897 85.0801 85.3526C75.6694 94.79 63.1529 99.9999 49.8361 99.9999L49.8468 99.9944Z" fill="#002BDC"/>
<path d="M49.8467 82.7498C41.1235 82.7498 32.9318 79.3416 26.7674 73.1635C14.0437 60.3927 14.0437 39.6327 26.7674 26.8618C35.5765 18.0277 48.8667 14.9876 60.6323 19.0972L59.1478 23.3791C49.0063 19.8297 37.5526 22.4506 29.9702 30.0664C19.0006 41.0672 19.0006 58.9588 29.9702 69.9586C35.283 75.2865 42.3499 78.2207 49.8543 78.2207C57.3625 78.2207 64.4251 75.2865 69.7384 69.9586C77.3327 62.3428 79.946 50.8564 76.4068 40.6981L80.6649 39.2094C84.7745 51.0095 81.7313 64.337 72.9222 73.1705C66.7617 79.3485 58.5544 82.7567 49.8429 82.7567L49.8467 82.7498Z" fill="#002BDC"/>
<path d="M49.8468 65.5045C45.7176 65.5045 41.8463 63.8982 38.9202 60.9641C32.8964 54.9232 32.8964 45.0983 38.9202 39.0608C41.2211 36.7534 44.1157 35.2647 47.319 34.7358L48.0495 39.2018C45.7916 39.5779 43.7368 40.6357 42.1117 42.2654C37.8537 46.5355 37.8537 53.4928 42.1117 57.7631C44.1782 59.8355 46.9206 60.9755 49.8426 60.9755C52.7686 60.9755 55.511 59.8316 57.5736 57.7631C59.1987 56.1334 60.2612 54.0728 60.6285 51.8084L65.0818 52.541C64.5544 55.7456 63.0583 58.6681 60.7574 60.9637C57.8431 63.8863 53.9601 65.5042 49.8307 65.5042L49.8468 65.5045Z" fill="#002BDC"/>
<path d="M51.4416 51.6126L48.2461 48.4081L70.5174 26.0736L68.1734 17.835C67.9469 17.0476 68.1734 16.1975 68.7438 15.6138L83.6586 0.664627C84.2055 0.116163 85.0025 -0.122807 85.7681 0.0613249C86.5299 0.233693 87.1432 0.79391 87.3932 1.52646L90.159 9.61621L98.515 12.6562C99.2338 12.9265 99.7845 13.5416 99.9447 14.2937C100.117 15.0498 99.8783 15.8373 99.3432 16.3857L84.6193 31.1513C84.0373 31.735 83.2012 31.9505 82.4044 31.735L73.7164 29.2748L51.4416 51.6126ZM74.8769 24.8985L82.35 27.014L93.6317 15.7003L87.6001 13.4987C86.9556 13.2597 86.4595 12.7543 86.2329 12.108L84.2874 6.43539L72.8768 17.8784L74.8769 24.8985Z" fill="#002BDC"/>
</g>
<defs>
<clipPath id="clip0_4177_1651">
<rect width="100" height="100" fill="white"/>
</clipPath>
</defs>
</svg>
