<svg width="112" height="112" viewBox="0 0 112 112" fill="none" xmlns="http://www.w3.org/2000/svg">
<rect x="1.5" y="1.5" width="109" height="109" rx="10.5" stroke="#002BDC" stroke-width="3"/>
<path d="M32.7949 69.1456L42.8337 63.2391C44.7857 62.114 49.6935 60.2014 53.709 61.5515L68.7672 66.6146C70.2562 67.1772 73.01 69.146 72.1134 72.5212C71.2768 74.2088 69.6037 75.8963 65.4209 74.2088L53.709 69.9898" stroke="#002BDC" stroke-width="3" stroke-linecap="round" stroke-linejoin="round"/>
<path d="M41.9961 84.3336C43.6692 83.4898 46.1789 81.8022 52.0349 83.4898C54.6756 84.2508 58.7274 86.8649 63.7467 84.3336L88.8436 70.8329C92.8591 68.6728 91.6322 65.4327 90.5168 64.0826C88.8436 62.0575 86.0551 62.6763 84.6608 63.2388L72.1124 69.9891" stroke="#002BDC" stroke-width="3" stroke-linecap="round" stroke-linejoin="round"/>
<path d="M67.9297 65.7702L73.7856 62.9453C75.1799 62.3828 77.9684 61.764 79.6416 63.7891" stroke="#002BDC" stroke-width="3" stroke-linecap="round" stroke-linejoin="round"/>
<mask id="path-5-inside-1_4177_1925" fill="white">
<rect width="11.7373" height="30.2061" rx="2" transform="matrix(0.864153 -0.503229 0.496778 0.867878 20.3926 68.7849)"/>
</mask>
<rect width="11.7373" height="30.2061" rx="2" transform="matrix(0.864153 -0.503229 0.496778 0.867878 20.3926 68.7849)" stroke="#002BDC" stroke-width="6" mask="url(#path-5-inside-1_4177_1925)"/>
<path d="M48.0195 30.5656H61.4367C69.817 30.5656 85.5136 48.1613 74.6122 62.6591" stroke="#002BDC" stroke-width="3" stroke-linecap="round" stroke-linejoin="round"/>
<path d="M48.0195 30.5656C36.7899 33.047 25.9793 52.0714 38.0728 64.4787" stroke="#002BDC" stroke-width="3" stroke-linecap="round" stroke-linejoin="round"/>
<path d="M51.6484 24.8724L53.2229 29.596" stroke="#002BDC" stroke-width="3" stroke-linecap="round" stroke-linejoin="round"/>
<path d="M57.9512 24.8724L56.3767 29.596" stroke="#002BDC" stroke-width="3" stroke-linecap="round" stroke-linejoin="round"/>
<path d="M66.6719 39.0439C68.4713 40.5708 72.2501 45.2276 72.9698 51.6402" stroke="#002BDC" stroke-width="3" stroke-linecap="round" stroke-linejoin="round"/>
<path d="M48.4329 30.5651L43.1667 22.6704C41.9284 19.2863 45.7451 14.7093 50.8053 18.3217C51.8585 19.4495 55.2914 21.0673 58.6618 19.2628C60.1659 18.4575 63.1895 17.0741 65.6455 18.3217C66.6291 18.8213 70.0102 21.1463 67.3914 24.9139L61.0719 30.5651" stroke="#002BDC" stroke-width="3" stroke-linecap="round" stroke-linejoin="round"/>
<path d="M57.1719 35.7747V38.0461C57.7536 38.1476 58.2831 38.3014 58.7588 38.51C59.6967 38.9214 60.4156 39.5213 60.9023 40.3127L61.0791 40.6174C61.4622 41.3454 61.6494 42.1959 61.6494 43.1604V43.4104H57.792V43.1604C57.7919 42.7816 57.6969 42.4588 57.5137 42.1829L57.5059 42.1711V42.1702C57.3351 41.8813 57.0764 41.6419 56.7168 41.4563C56.3669 41.2757 55.9064 41.178 55.3232 41.178C54.812 41.178 54.3868 41.2479 54.042 41.3801C53.6981 41.512 53.4523 41.697 53.2881 41.927L53.2842 41.9319C53.1225 42.1464 53.0381 42.4062 53.0381 42.7229C53.0381 43.1014 53.1815 43.4486 53.4902 43.7717L53.6094 43.8772C53.913 44.1135 54.3901 44.2822 55.0762 44.3567H55.0752L56.2334 44.4436H56.2344C58.092 44.592 59.6025 45.0765 60.7471 45.9143C61.9132 46.768 62.4941 47.9769 62.4941 49.509C62.4941 50.5608 62.2233 51.469 61.6689 52.219C61.1167 52.9661 60.3185 53.5235 59.293 53.9016L59.2939 53.9026C58.6911 54.1282 58.0136 54.2825 57.2637 54.3723V57.2014H53.7715V54.3391C53.0474 54.2358 52.3972 54.0698 51.8242 53.8333L51.8213 53.8323C50.7951 53.3935 50.0067 52.7735 49.4727 51.967L49.4717 51.9651C48.9398 51.1463 48.6777 50.1927 48.6777 49.1145V48.8645H52.5352V49.1145C52.5352 49.4724 52.6344 49.8127 52.8379 50.1389L52.916 50.2483C53.1142 50.5004 53.4125 50.7199 53.8252 50.8997C54.287 51.0861 54.8899 51.1848 55.6436 51.1848C56.6567 51.1848 57.3931 51.0128 57.8838 50.6995L57.8867 50.6975C58.3886 50.3855 58.6142 49.9932 58.6143 49.509C58.6143 49.0919 58.4284 48.7489 58.0156 48.468L58.0107 48.4651C57.5924 48.1677 56.8917 47.9546 55.8701 47.8538V47.8528L54.7109 47.7659H54.707C53.0434 47.6168 51.6962 47.1374 50.6875 46.3088L50.6855 46.3079C49.6598 45.4496 49.1572 44.2424 49.1572 42.7229C49.1572 41.6774 49.4024 40.7855 49.9092 40.0637C50.4133 39.3313 51.134 38.7919 52.0566 38.4407L52.4092 38.3127C52.804 38.1822 53.2279 38.0846 53.6797 38.0159V35.7747H57.1719Z" fill="#002BDC" stroke="#002BDC" stroke-width="0.5"/>
</svg>
