<svg width="112" height="112" viewBox="0 0 112 112" fill="none" xmlns="http://www.w3.org/2000/svg">
<g clip-path="url(#clip0_4177_1588)">
<path d="M17.5469 93.9998V71.2051C17.5469 70.6528 17.9946 70.2051 18.5469 70.2051H29.966C30.5182 70.2051 30.966 70.6528 30.966 71.2051V93.9998C30.966 94.5521 30.5182 94.9998 29.966 94.9998H18.5469C17.9946 94.9998 17.5469 94.5521 17.5469 93.9998Z" stroke="#002BDC" stroke-width="3"/>
<path d="M60.9043 94.0001V52.6094C60.9043 52.0571 61.352 51.6094 61.9043 51.6094H73.3234C73.8757 51.6094 74.3234 52.0571 74.3234 52.6094V94.0001C74.3234 94.5524 73.8757 95.0001 73.3234 95.0001H61.9043C61.352 95.0001 60.9043 94.5524 60.9043 94.0001Z" stroke="#002BDC" stroke-width="3"/>
<path d="M39.2227 94.0001V63.9736C39.2227 63.4213 39.6704 62.9736 40.2227 62.9736H51.6417C52.194 62.9736 52.6417 63.4213 52.6417 63.9736V94.0001C52.6417 94.5524 52.194 95.0001 51.6417 95.0001H40.2227C39.6704 95.0001 39.2227 94.5524 39.2227 94.0001Z" stroke="#002BDC" stroke-width="3"/>
<path d="M82.5801 93.9999V39.1787C82.5801 38.6264 83.0278 38.1787 83.5801 38.1787H94.9992C95.5514 38.1787 95.9992 38.6264 95.9992 39.1787V93.9999C95.9992 94.5522 95.5514 94.9999 94.9992 94.9999H83.5801C83.0278 94.9999 82.5801 94.5522 82.5801 93.9999Z" stroke="#002BDC" stroke-width="3"/>
<path d="M16 52.6425C28.5589 52.9868 59.354 46.5471 82.0632 18.0332" stroke="#002BDC" stroke-width="3" stroke-linecap="round"/>
<path d="M71.7422 17H83.6129V28.3642" stroke="#002BDC" stroke-width="3" stroke-linecap="round" stroke-linejoin="round"/>
<rect x="1.5" y="1.5" width="109" height="109" rx="10.5" stroke="#002BDC" stroke-width="3"/>
</g>
<defs>
<clipPath id="clip0_4177_1588">
<rect width="112" height="112" fill="white"/>
</clipPath>
</defs>
</svg>
