<svg width="112" height="112" viewBox="0 0 112 112" fill="none" xmlns="http://www.w3.org/2000/svg">
<rect x="1.5" y="1.5" width="109" height="109" rx="10.5" fill="white"/>
<rect x="1.5" y="1.5" width="109" height="109" rx="10.5" stroke="#002BDC" stroke-width="3"/>
<path d="M32.5383 69.2901L42.6877 63.3186C44.6612 62.1812 49.6231 60.2476 53.6828 61.6125L68.9068 66.7313C70.4123 67.3 73.1965 69.2905 72.29 72.7027C71.4442 74.4089 69.7526 76.115 65.5237 74.4089L53.6828 70.1435" stroke="#002BDC" stroke-width="3" stroke-linecap="round" stroke-linejoin="round"/>
<path d="M41.8416 84.6449C43.5331 83.7918 46.0705 82.0857 51.9909 83.7918C54.6607 84.5612 58.7571 87.2041 63.8318 84.6449L89.2052 70.9959C93.2649 68.8121 92.0245 65.5363 90.8968 64.1714C89.2052 62.124 86.3859 62.7496 84.9763 63.3183L72.2896 70.1428" stroke="#002BDC" stroke-width="3" stroke-linecap="round" stroke-linejoin="round"/>
<path d="M68.0608 65.8779L73.9812 63.0221C75.3909 62.4534 78.2101 61.8278 79.9017 63.8751" stroke="#002BDC" stroke-width="3" stroke-linecap="round" stroke-linejoin="round"/>
<path d="M40.2074 90.2634L40.4204 90.6354L38.6845 91.6463L38.4715 91.2742L40.2074 90.2634ZM29.6893 65.85C30.0851 66.0027 30.4334 66.287 30.6614 66.6852L42.4252 87.2362C42.6532 87.6346 42.7237 88.0815 42.6568 88.5037L29.6893 65.85ZM35.7349 92.5322C35.3396 92.3791 34.991 92.0955 34.7634 91.6978L22.9996 71.1469L22.91 70.9708C22.7537 70.6196 22.7114 70.241 22.7685 69.8802L35.7349 92.5322ZM23.7081 68.5024L28.0365 65.9819C28.4331 65.751 28.8768 65.679 29.2959 65.7446L22.8747 69.4839C23.0056 69.1428 23.2316 68.8361 23.5425 68.6102L23.7081 68.5024Z" fill="#002BDC" stroke="#002BDC" stroke-width="3"/>
<path d="M50.8574 30.2855H64.4224C72.895 30.2855 89.3075 47.3427 78.286 61.9998" stroke="#002BDC" stroke-width="3" stroke-linecap="round" stroke-linejoin="round"/>
<path d="M50.8574 30.2855C39.504 32.7942 28.5743 52.0277 40.8011 64.5713" stroke="#002BDC" stroke-width="3" stroke-linecap="round" stroke-linejoin="round"/>
<path d="M54.5303 24.53L56.1221 29.3055" stroke="#002BDC" stroke-width="3" stroke-linecap="round" stroke-linejoin="round"/>
<path d="M60.8984 24.53L59.3066 29.3055" stroke="#002BDC" stroke-width="3" stroke-linecap="round" stroke-linejoin="round"/>
<path d="M69.7144 38.8572C71.5336 40.4008 75.354 45.1088 76.0817 51.5919" stroke="#002BDC" stroke-width="3" stroke-linecap="round" stroke-linejoin="round"/>
<path d="M51.2763 30.2857L45.952 22.3042C44.7 18.8829 48.5588 14.2556 53.6747 17.9077C54.7396 19.0479 58.2103 20.6835 61.6178 18.8592C63.1385 18.045 66.1954 16.6464 68.6784 17.9077C69.6729 18.4129 73.0913 20.7634 70.4435 24.5724L64.0544 30.2857" stroke="#002BDC" stroke-width="3" stroke-linecap="round" stroke-linejoin="round"/>
<path d="M50.8574 37.1429H62.8574" stroke="#002BDC" stroke-width="3" stroke-linecap="round" stroke-linejoin="round"/>
<path d="M50.8574 44H62.8574" stroke="#002BDC" stroke-width="3" stroke-linecap="round" stroke-linejoin="round"/>
<path d="M54.286 37.1429C59.4289 37.1429 63.7146 48.2858 50.8574 50.0001L59.4289 56.0001" stroke="#002BDC" stroke-width="3" stroke-linecap="round" stroke-linejoin="round"/>
</svg>
