<svg width="112" height="112" viewBox="0 0 112 112" fill="none" xmlns="http://www.w3.org/2000/svg">
<g clip-path="url(#clip0_4177_1238)">
<path d="M32.5391 69.7185L42.6884 63.7471C44.6619 62.6097 49.6238 60.6761 53.6835 62.041L68.9076 67.1598C70.413 67.7285 73.1972 69.7189 72.2907 73.1312C71.4449 74.8373 69.7534 76.5434 65.5245 74.8373L53.6835 70.572" stroke="#0B0B1E" stroke-width="3" stroke-linecap="round" stroke-linejoin="round"/>
<path d="M41.8418 85.0734C43.5334 84.2203 46.0707 82.5142 51.9912 84.2203C54.661 84.9897 58.7574 87.6325 63.8321 85.0734L89.2054 71.4244C93.2652 69.2405 92.0247 65.9648 90.897 64.5999C89.2054 62.5525 86.3862 63.1781 84.9766 63.7468L72.2899 70.5713" stroke="#0B0B1E" stroke-width="3" stroke-linecap="round" stroke-linejoin="round"/>
<path d="M68.0605 66.3065L73.981 63.4507C75.3906 62.882 78.2099 62.2564 79.9015 64.3037" stroke="#0B0B1E" stroke-width="3" stroke-linecap="round" stroke-linejoin="round"/>
<path d="M40.2074 90.6918L40.4204 91.0639L38.6845 92.0748L38.4715 91.7027L40.2074 90.6918ZM29.6893 66.2785C30.0851 66.4312 30.4334 66.7155 30.6614 67.1137L42.4252 87.6646C42.6532 88.063 42.7237 88.51 42.6568 88.9322L29.6893 66.2785ZM35.7349 92.9606C35.3396 92.8076 34.991 92.524 34.7634 92.1263L22.9996 71.5753L22.91 71.3992C22.7537 71.0481 22.7114 70.6695 22.7685 70.3087L35.7349 92.9606ZM23.7081 68.9309L28.0365 66.4104C28.4331 66.1794 28.8768 66.1074 29.2959 66.1731L22.8747 69.9123C23.0056 69.5713 23.2316 69.2646 23.5425 69.0387L23.7081 68.9309Z" fill="#0B0B1E" stroke="#0B0B1E" stroke-width="3"/>
<path d="M50.8574 30.7141H64.4224C72.895 30.7141 89.3075 47.7713 78.286 62.4284" stroke="#0B0B1E" stroke-width="3" stroke-linecap="round" stroke-linejoin="round"/>
<path d="M50.8574 30.7141C39.504 33.2228 28.5743 52.4563 40.8011 64.9998" stroke="#0B0B1E" stroke-width="3" stroke-linecap="round" stroke-linejoin="round"/>
<path d="M54.5293 24.9587L56.1211 29.7343" stroke="#0B0B1E" stroke-width="3" stroke-linecap="round" stroke-linejoin="round"/>
<path d="M60.8984 24.9587L59.3066 29.7343" stroke="#0B0B1E" stroke-width="3" stroke-linecap="round" stroke-linejoin="round"/>
<path d="M69.7148 39.2859C71.5341 40.8295 75.3545 45.5375 76.0822 52.0206" stroke="#0B0B1E" stroke-width="3" stroke-linecap="round" stroke-linejoin="round"/>
<path d="M51.2767 30.7143L45.9525 22.7328C44.7005 19.3115 48.5593 14.6842 53.6752 18.3363C54.7401 19.4765 58.2108 21.1121 61.6183 19.2878C63.139 18.4736 66.1959 17.075 68.6789 18.3363C69.6734 18.8414 73.0917 21.192 70.444 25.001L64.0549 30.7143" stroke="#0B0B1E" stroke-width="3" stroke-linecap="round" stroke-linejoin="round"/>
<path d="M50.8574 37.5715H62.8574" stroke="#0B0B1E" stroke-width="3" stroke-linecap="round" stroke-linejoin="round"/>
<path d="M50.8574 44.4285H62.8574" stroke="#0B0B1E" stroke-width="3" stroke-linecap="round" stroke-linejoin="round"/>
<path d="M54.286 37.5715C59.4289 37.5715 63.7146 48.7144 50.8574 50.4287L59.4289 56.4287" stroke="#0B0B1E" stroke-width="3" stroke-linecap="round" stroke-linejoin="round"/>
<rect x="1.5" y="1.5" width="109" height="109" rx="10.5" stroke="#0B0B1E" stroke-width="3"/>
</g>
<defs>
<clipPath id="clip0_4177_1238">
<rect width="112" height="112" fill="white"/>
</clipPath>
</defs>
</svg>
