<svg width="30" height="33" viewBox="0 0 30 33" fill="none" xmlns="http://www.w3.org/2000/svg">
<path d="M3.47852 9.09772L14.6088 0.75L25.7391 9.09772" stroke="#002BDC" stroke-width="1.5" stroke-linecap="round" stroke-linejoin="round"/>
<path d="M6.26172 6.31482V1.44531H9.73994V4.22789" stroke="#002BDC" stroke-width="1.5" stroke-linejoin="round"/>
<path d="M11.8262 18.837V12.5762H17.3913V20.2283" stroke="#002BDC" stroke-width="1.5" stroke-linecap="round" stroke-linejoin="round"/>
<path d="M6.26172 6.31445V21.6186M22.9572 20.0076V7.0101" stroke="#002BDC" stroke-width="1.5"/>
<circle cx="14.6087" cy="7.01109" r="2.03257" stroke="#002BDC" stroke-width="1.5"/>
<path d="M5.08789 22.1419L9.20641 19.7188C10.0072 19.2572 12.0207 18.4726 13.6681 19.0264L19.8459 21.1036C20.4568 21.3344 21.5866 22.1421 21.2188 23.5268C20.8756 24.2191 20.1891 24.9114 18.4731 24.2191L13.6681 22.4883" stroke="#002BDC" stroke-width="1.5" stroke-linecap="round" stroke-linejoin="round"/>
<path d="M8.86328 28.3721C9.5497 28.0259 10.5793 27.3336 12.9818 28.0259C14.0652 28.3381 15.7275 29.4106 17.7867 28.3721L28.0831 22.8335C29.7305 21.9473 29.2271 20.618 28.7695 20.0641C28.0831 19.2333 26.939 19.4872 26.367 19.718L21.2189 22.4873" stroke="#002BDC" stroke-width="1.5" stroke-linecap="round" stroke-linejoin="round"/>
<path d="M19.502 20.7577L21.9044 19.5988C22.4764 19.368 23.6205 19.1142 24.3069 19.945" stroke="#002BDC" stroke-width="1.5" stroke-linecap="round" stroke-linejoin="round"/>
<rect x="1.02071" y="0.27349" width="3.31532" height="10.8921" rx="1.25" transform="matrix(0.864159 -0.503219 0.496788 0.867872 0.00278764 22.5439)" stroke="#002BDC" stroke-width="1.5"/>
</svg>
