<svg width="34" height="42" viewBox="0 0 34 42" fill="none" xmlns="http://www.w3.org/2000/svg">
<path d="M24 22L6 22" stroke="#002BDC" stroke-width="2" stroke-linecap="round" stroke-linejoin="round"/>
<path d="M24 27L6 27" stroke="#002BDC" stroke-width="2" stroke-linecap="round" stroke-linejoin="round"/>
<path d="M24 32H6" stroke="#002BDC" stroke-width="2" stroke-linecap="round" stroke-linejoin="round"/>
<path d="M16 17H6" stroke="#002BDC" stroke-width="2" stroke-linecap="round" stroke-linejoin="round"/>
<path d="M1 9V37H29V1H9.5M1 9L9.5 1M1 9H9.5V1" stroke="#002BDC" stroke-width="2" stroke-linecap="round" stroke-linejoin="round"/>
<path d="M29 4H33V41H5V37" stroke="#002BDC" stroke-width="2" stroke-linecap="round" stroke-linejoin="round"/>
<path d="M21.5446 5.05238C21.9465 5.60503 22.4165 6.33757 22.5 7.15714L24.625 7.15714C24.8321 7.15714 25 7.39273 25 7.68333C25 7.97394 24.8321 8.20952 24.625 8.20952L22.5 8.20952C22.3181 9.99452 21.0299 11.3667 19.7076 11.3667H17.281L21.8904 16.1017C22.0369 16.3072 22.0369 16.6404 21.8904 16.8459C21.744 17.0514 21.5066 17.0514 21.3601 16.8459L16.1106 11.2125C15.8744 10.8811 16.0417 10.3143 16.3757 10.3143H19.3755C20.2825 10.3143 21.0391 9.41042 21.2128 8.20952H16.3757C16.1686 8.20952 16.0008 7.97394 16.0008 7.68333C16.0008 7.39273 16.1686 7.15714 16.3757 7.15714H21.2128C21.0391 5.95625 20.2825 5.05238 19.3755 5.05238H16.3757C16.1686 5.05238 16.0008 4.8168 16.0008 4.52619C16.0008 4.23558 16.1686 4 16.3757 4H19.3755H24.625C24.8321 4 25 4.23558 25 4.52619C25 4.8168 24.8321 5.05238 24.625 5.05238L21.5446 5.05238Z" fill="#002BDC" stroke="#002BDC"/>
</svg>
