<svg width="112" height="112" viewBox="0 0 112 112" fill="none" xmlns="http://www.w3.org/2000/svg">
<g clip-path="url(#clip0_4177_1384)">
<path d="M79.7871 57.4717L56.6355 57.4717" stroke="#0B0B1E" stroke-width="3" stroke-linecap="round" stroke-linejoin="round"/>
<path d="M70.2012 65.4231H51.083" stroke="#0B0B1E" stroke-width="3" stroke-linecap="round" stroke-linejoin="round"/>
<path d="M79.7734 33.8638H65.4348" stroke="#0B0B1E" stroke-width="3" stroke-linecap="round" stroke-linejoin="round"/>
<path d="M65.4258 73.3884H51.0872" stroke="#0B0B1E" stroke-width="3" stroke-linecap="round" stroke-linejoin="round"/>
<path d="M79.7637 41.5256H60.6455" stroke="#0B0B1E" stroke-width="3" stroke-linecap="round" stroke-linejoin="round"/>
<path d="M79.7871 49.4578L53.9642 49.4578" stroke="#0B0B1E" stroke-width="3" stroke-linecap="round" stroke-linejoin="round"/>
<path d="M43.1191 36.7454L56.6612 23.9999M43.1191 36.7454H56.6612V23.9999M43.1191 36.7454V41.9998M56.6612 23.9999H87.7282V38.3385V52.6771V61.9169M80.0059 83.2947L65.4237 83.2947H43.1191V66.4998" stroke="#0B0B1E" stroke-width="3" stroke-linecap="round" stroke-linejoin="round"/>
<path d="M87.7412 62.3672C94.2354 62.3672 99.5 67.6318 99.5 74.126C99.5 80.6202 94.2354 85.8848 87.7412 85.8848C81.247 85.8848 75.9824 80.6202 75.9824 74.126C75.9824 67.6318 81.247 62.3672 87.7412 62.3672Z" stroke="#0B0B1E" stroke-width="3"/>
<path d="M82.5811 74.1282L85.7039 77.2474L92.7234 70.227" stroke="#0B0B1E" stroke-width="3" stroke-linecap="round" stroke-linejoin="round"/>
<path d="M17.303 51.5329H25.763M12 60.4436H20.4601M20.6999 70.001H25.8781M14.209 70.001H16.1052M35.0254 42.3347H50.5598L42.2456 56.5238H51.2891L28.6074 83.2952L35.9735 63.5335H27.1487L35.0254 42.3347Z" stroke="#0B0B1E" stroke-width="3" stroke-linecap="round" stroke-linejoin="round"/>
<rect x="1.5" y="1.5" width="109" height="109" rx="10.5" stroke="#0B0B1E" stroke-width="3"/>
</g>
<defs>
<clipPath id="clip0_4177_1384">
<rect width="112" height="112" fill="white"/>
</clipPath>
</defs>
</svg>
