<svg width="112" height="112" viewBox="0 0 112 112" fill="none" xmlns="http://www.w3.org/2000/svg">
<rect x="1.5" y="1.5" width="109" height="109" rx="10.5" stroke="#0B0B1E" stroke-width="3"/>
<path d="M82.1377 38.5504C83.7368 38.5504 85.0332 39.8472 85.0332 41.4469C85.0331 43.0465 83.7367 44.3434 82.1377 44.3434C80.5388 44.3433 79.2423 43.0465 79.2422 41.4469C79.2422 39.8472 80.5387 38.5505 82.1377 38.5504Z" fill="#0B0B1E" stroke="#0B0B1E" stroke-width="3"/>
<line x1="82.1758" y1="31.2239" x2="82.1758" y2="40.5952" stroke="#0B0B1E" stroke-width="3" stroke-linecap="round"/>
<line x1="91.6211" y1="41.4816" x2="85.1059" y2="41.4816" stroke="#0B0B1E" stroke-width="3" stroke-linecap="round"/>
<path d="M82.1367 19.7679V24.5953" stroke="#0B0B1E" stroke-width="3" stroke-linecap="round" stroke-linejoin="round"/>
<line x1="87.9629" y1="19.5002" x2="76.3105" y2="19.5002" stroke="#0B0B1E" stroke-width="3" stroke-linecap="round"/>
<mask id="path-7-inside-1_4177_2186" fill="white">
<path d="M82.376 23.8616C92.2121 23.8616 100.187 31.8367 100.187 41.6741L100.181 42.1331C99.9438 51.4908 92.4906 59.0532 83.1787 59.4661C83.3602 58.4587 83.4668 57.4491 83.5059 56.4426C91.157 55.8655 97.1863 49.4746 97.1865 41.6741C97.1865 33.4932 90.5549 26.8616 82.376 26.8616C78.4694 26.8618 74.9158 28.3747 72.2695 30.8469C71.676 30.2526 71.0713 29.6869 70.457 29.1555C70.326 29.0422 70.1914 28.929 70.0547 28.8147C73.2539 25.7475 77.5944 23.8618 82.376 23.8616Z"/>
</mask>
<path d="M82.376 23.8616C92.2121 23.8616 100.187 31.8367 100.187 41.6741L100.181 42.1331C99.9438 51.4908 92.4906 59.0532 83.1787 59.4661C83.3602 58.4587 83.4668 57.4491 83.5059 56.4426C91.157 55.8655 97.1863 49.4746 97.1865 41.6741C97.1865 33.4932 90.5549 26.8616 82.376 26.8616C78.4694 26.8618 74.9158 28.3747 72.2695 30.8469C71.676 30.2526 71.0713 29.6869 70.457 29.1555C70.326 29.0422 70.1914 28.929 70.0547 28.8147C73.2539 25.7475 77.5944 23.8618 82.376 23.8616Z" fill="#0B0B1E"/>
<path d="M82.376 23.8616V20.8616H82.3759L82.376 23.8616ZM100.187 41.6741L103.186 41.7124C103.186 41.6996 103.187 41.6868 103.187 41.6741L100.187 41.6741ZM100.181 42.1331L103.18 42.209C103.18 42.1964 103.18 42.1839 103.18 42.1714L100.181 42.1331ZM83.1787 59.4661L80.2263 58.934C80.0645 59.8316 80.3199 60.754 80.9201 61.4406C81.5204 62.1273 82.4005 62.5035 83.3116 62.4631L83.1787 59.4661ZM83.5059 56.4426L83.2802 53.4511C81.7598 53.5658 80.5673 54.8027 80.5081 56.3262L83.5059 56.4426ZM97.1865 41.6741L100.187 41.6742V41.6741L97.1865 41.6741ZM82.376 26.8616V23.8616L82.3758 23.8616L82.376 26.8616ZM72.2695 30.8469L70.1469 32.9669C71.2902 34.1117 73.1353 34.1436 74.3175 33.0391L72.2695 30.8469ZM70.457 29.1555L72.4196 26.8866L72.4196 26.8865L70.457 29.1555ZM70.0547 28.8147L67.9785 26.6492C67.3627 27.2396 67.0274 28.0642 67.0564 28.9167C67.0854 29.7693 67.4761 30.5692 68.1305 31.1164L70.0547 28.8147ZM82.376 23.8616V26.8616C90.5549 26.8616 97.1865 33.4933 97.1865 41.6741L100.187 41.6741L103.187 41.6741C103.187 30.1802 93.8692 20.8616 82.376 20.8616V23.8616ZM100.187 41.6741L97.1868 41.6358L97.1809 42.0948L100.181 42.1331L103.18 42.1714L103.186 41.7124L100.187 41.6741ZM100.181 42.1331L97.1816 42.0571C96.9847 49.8363 90.7865 56.1258 83.0458 56.469L83.1787 59.4661L83.3116 62.4631C94.1946 61.9805 102.903 53.1453 103.18 42.209L100.181 42.1331ZM83.1787 59.4661L86.1312 59.9981C86.3384 58.8479 86.4593 57.6991 86.5036 56.559L83.5059 56.4426L80.5081 56.3262C80.4742 57.1991 80.382 58.0696 80.2263 58.934L83.1787 59.4661ZM83.5059 56.4426L83.7315 59.4341C92.9357 58.7399 100.186 51.0559 100.187 41.6742L97.1865 41.6741L94.1865 41.674C94.1864 47.8934 89.3784 52.9912 83.2802 53.4511L83.5059 56.4426ZM97.1865 41.6741L100.187 41.6741C100.187 31.8366 92.212 23.8616 82.376 23.8616V26.8616V29.8616C88.8978 29.8616 94.1865 35.1498 94.1865 41.6741L97.1865 41.6741ZM82.376 26.8616L82.3758 23.8616C77.6794 23.8618 73.4014 25.684 70.2215 28.6547L72.2695 30.8469L74.3175 33.0391C76.4302 31.0654 79.2594 29.8617 82.3761 29.8616L82.376 26.8616ZM72.2695 30.8469L74.3922 28.727C73.7517 28.0857 73.0938 27.4697 72.4196 26.8866L70.457 29.1555L68.4944 31.4245C69.0488 31.904 69.6002 32.4195 70.1469 32.9669L72.2695 30.8469ZM70.457 29.1555L72.4196 26.8865C72.2688 26.7561 72.1184 26.6297 71.9788 26.513L70.0547 28.8147L68.1305 31.1164C68.2644 31.2282 68.3832 31.3283 68.4945 31.4245L70.457 29.1555ZM70.0547 28.8147L72.1309 30.9802C74.7944 28.4265 78.3994 26.8617 82.3761 26.8616L82.376 23.8616L82.3759 20.8616C76.7894 20.8618 71.7133 23.0684 67.9785 26.6492L70.0547 28.8147Z" fill="#0B0B1E" mask="url(#path-7-inside-1_4177_2186)"/>
<path d="M30.4082 69.127L40.066 63.444C41.9439 62.3615 46.6655 60.5213 50.5287 61.8203L65.0154 66.6918C66.4479 67.233 69.0973 69.1273 68.2347 72.3747C67.4298 73.9984 65.8202 75.6221 61.7961 73.9984L50.5287 69.9392" stroke="#0B0B1E" stroke-width="3" stroke-linecap="round" stroke-linejoin="round"/>
<path d="M39.252 83.7376C40.8616 82.9258 43.276 81.3021 48.9098 82.9258C51.4503 83.658 55.3483 86.1732 60.1772 83.7376L84.3218 70.748C88.1849 68.6697 87.0045 65.5522 85.9314 64.2532C84.3218 62.3048 81.639 62.9001 80.2977 63.4414L68.2254 69.9362" stroke="#0B0B1E" stroke-width="3" stroke-linecap="round" stroke-linejoin="round"/>
<path d="M64.209 65.8797L69.8427 63.1618C71.1841 62.6206 73.8668 62.0252 75.4764 63.9737" stroke="#0B0B1E" stroke-width="3" stroke-linecap="round" stroke-linejoin="round"/>
<mask id="path-12-inside-2_4177_2186" fill="white">
<rect width="11.2921" height="29.0619" rx="2" transform="matrix(0.864132 -0.503266 0.496741 0.867899 18.4707 68.7771)"/>
</mask>
<rect width="11.2921" height="29.0619" rx="2" transform="matrix(0.864132 -0.503266 0.496741 0.867899 18.4707 68.7771)" stroke="#0B0B1E" stroke-width="6" mask="url(#path-12-inside-2_4177_2186)"/>
<path d="M47.8438 32.0063H60.7517C68.8141 32.0063 84.1048 48.7453 73.6171 62.6944" stroke="#0B0B1E" stroke-width="3" stroke-linecap="round" stroke-linejoin="round"/>
<path d="M47.8438 32.0063C44.7277 32.695 41.6452 34.7077 39.1153 37.5099M37.7187 64.1598C34.7543 61.1181 33.6902 58.6149 33.229 55.1152" stroke="#0B0B1E" stroke-width="3" stroke-linecap="round" stroke-linejoin="round"/>
<path d="M51.3359 26.5267L52.8507 31.0715" stroke="#0B0B1E" stroke-width="3" stroke-linecap="round" stroke-linejoin="round"/>
<path d="M57.3965 26.5267L55.8817 31.0715" stroke="#0B0B1E" stroke-width="3" stroke-linecap="round" stroke-linejoin="round"/>
<path d="M65.791 40.1637C67.5222 41.6327 71.1575 46.1133 71.85 52.2832" stroke="#0B0B1E" stroke-width="3" stroke-linecap="round" stroke-linejoin="round"/>
<path d="M48.2437 32.0042L43.1773 24.4084C41.986 21.1524 45.6578 16.7486 50.526 20.2243C51.5393 21.3094 54.842 22.8659 58.0844 21.1297C59.5315 20.3549 62.4403 19.0239 64.8031 20.2243C65.7494 20.705 69.0022 22.942 66.4827 26.567L60.403 32.0043" stroke="#0B0B1E" stroke-width="3" stroke-linecap="round" stroke-linejoin="round"/>
<line x1="38.8672" y1="37.5826" x2="26.6429" y2="37.5826" stroke="#0B0B1E" stroke-width="3" stroke-linecap="round"/>
<line x1="37.9102" y1="46.1467" x2="23.7828" y2="46.1467" stroke="#0B0B1E" stroke-width="3" stroke-linecap="round"/>
<line x1="33.1543" y1="54.7108" x2="20.93" y2="54.7108" stroke="#0B0B1E" stroke-width="3" stroke-linecap="round"/>
<line x1="21.7344" y1="37.5826" x2="18.0737" y2="37.5826" stroke="#0B0B1E" stroke-width="3" stroke-linecap="round"/>
<line x1="18.8848" y1="46.1467" x2="16.1756" y2="46.1467" stroke="#0B0B1E" stroke-width="3" stroke-linecap="round"/>
<line x1="16.0234" y1="54.7108" x2="13.3143" y2="54.7108" stroke="#0B0B1E" stroke-width="3" stroke-linecap="round"/>
<path d="M54.5159 40.9582C55.09 41.7626 55.6813 42.829 55.8006 44.022H59.1796C59.4754 44.022 59.7152 44.3649 59.7152 44.7879C59.7152 45.211 59.4754 45.5539 59.1796 45.5539H55.8006C55.5407 48.1522 53.5566 50.1496 51.6678 50.1496H48.6892L55.2734 57.0422C55.4826 57.3414 55.4826 57.8263 55.2734 58.1255C55.0642 58.4246 54.7251 58.4246 54.5159 58.1255L47.0173 49.9253C46.6799 49.4427 46.9189 48.6177 47.3961 48.6177H51.681C52.9766 48.6177 54.0573 47.302 54.3055 45.5539H47.3961C47.1003 45.5539 46.8604 45.211 46.8604 44.7879C46.8604 44.3649 47.1003 44.022 47.3961 44.022H54.3055C54.0573 42.2739 52.9766 40.9582 51.681 40.9582H47.3961C47.1003 40.9582 46.8604 40.6152 46.8604 40.1922C46.8604 39.7692 47.1003 39.4263 47.3961 39.4263H51.681H59.1796C59.4754 39.4263 59.7152 39.7692 59.7152 40.1922C59.7152 40.6152 59.4754 40.9582 59.1796 40.9582H54.5159Z" fill="#0B0B1E" stroke="#0B0B1E"/>
</svg>
