<svg width="34" height="34" viewBox="0 0 34 34" fill="none" xmlns="http://www.w3.org/2000/svg">
<path d="M5.5293 21.752L5.08984 21.3125L2.00977 18.2314C1.7018 17.9231 1.52075 17.5106 1.50195 17.0752C1.48345 16.6444 1.62491 16.2217 1.89941 15.8896L2.03516 15.7412L5.08984 12.6875L5.5293 12.248V7.27148C5.52946 6.83208 5.69627 6.40903 5.99512 6.08691C6.29184 5.76719 6.6973 5.57025 7.13184 5.53516L7.2832 5.5293H12.248L15.7676 2.00977C16.076 1.70178 16.4884 1.52072 16.9238 1.50195C17.354 1.48347 17.7756 1.62474 18.1074 1.89844L18.2568 2.03516L21.3125 5.08984L21.752 5.5293H26.7275C27.167 5.52938 27.5899 5.69529 27.9121 5.99414C28.2316 6.29055 28.4275 6.69576 28.4629 7.12988L28.4707 7.30664V12.248L31.9902 15.7676C32.2984 16.076 32.4793 16.4892 32.498 16.9248C32.5164 17.3547 32.375 17.7757 32.1016 18.1074L31.9795 18.2393L28.9082 21.3125L28.4688 21.752V26.7285C28.4688 27.1681 28.3028 27.5918 28.0039 27.9141C27.7091 28.2318 27.3064 28.4269 26.875 28.4639L26.7041 28.4707H21.7529L21.3145 28.9102L18.2334 31.9902C17.925 32.2982 17.5126 32.4793 17.0771 32.498C16.644 32.5166 16.2196 32.3731 15.8867 32.0957L15.7432 31.9639L12.25 28.4707H7.27148C6.83191 28.4708 6.40827 28.3048 6.08594 28.0059C5.76788 27.7109 5.57202 27.3078 5.53516 26.876L5.5293 26.7041V21.752Z" stroke="#002BDC" stroke-width="3"/>
</svg>
