<svg width="112" height="112" viewBox="0 0 112 112" fill="none" xmlns="http://www.w3.org/2000/svg">
<rect x="1.5" y="1.5" width="109" height="109" rx="10.5" stroke="#002BDC" stroke-width="3"/>
<path d="M32.7949 69.1457L42.8337 63.2392C44.7857 62.1142 49.6935 60.2016 53.709 61.5516L68.7672 66.6148C70.2562 67.1773 73.01 69.1461 72.1134 72.5213C71.2768 74.2089 69.6037 75.8965 65.4209 74.2089L53.709 69.9899" stroke="#002BDC" stroke-width="3" stroke-linecap="round" stroke-linejoin="round"/>
<path d="M41.9961 84.3337C43.6692 83.4899 46.1789 81.8023 52.0349 83.4899C54.6756 84.2509 58.7274 86.8651 63.7467 84.3337L88.8436 70.833C92.8591 68.6729 91.6322 65.4328 90.5168 64.0827C88.8436 62.0576 86.0551 62.6764 84.6608 63.2389L72.1124 69.9893" stroke="#002BDC" stroke-width="3" stroke-linecap="round" stroke-linejoin="round"/>
<path d="M67.9297 65.7703L73.7856 62.9455C75.1799 62.3829 77.9684 61.7642 79.6416 63.7893" stroke="#002BDC" stroke-width="3" stroke-linecap="round" stroke-linejoin="round"/>
<mask id="path-5-inside-1_4177_1969" fill="white">
<rect width="11.7373" height="30.2061" rx="2" transform="matrix(0.864153 -0.503229 0.496778 0.867878 20.3926 68.7849)"/>
</mask>
<rect width="11.7373" height="30.2061" rx="2" transform="matrix(0.864153 -0.503229 0.496778 0.867878 20.3926 68.7849)" stroke="#002BDC" stroke-width="6" mask="url(#path-5-inside-1_4177_1969)"/>
<path d="M48.0176 30.5656H61.4347C69.8151 30.5656 85.5116 48.1613 74.6102 62.6591" stroke="#002BDC" stroke-width="3" stroke-linecap="round" stroke-linejoin="round"/>
<path d="M48.0176 30.5656C36.7879 33.047 25.9773 52.0714 38.0708 64.4787" stroke="#002BDC" stroke-width="3" stroke-linecap="round" stroke-linejoin="round"/>
<path d="M51.6504 24.8724L53.2249 29.596" stroke="#002BDC" stroke-width="3" stroke-linecap="round" stroke-linejoin="round"/>
<path d="M57.9512 24.8724L56.3767 29.596" stroke="#002BDC" stroke-width="3" stroke-linecap="round" stroke-linejoin="round"/>
<path d="M66.6699 39.0438C68.4693 40.5706 72.2481 45.2275 72.9679 51.6401" stroke="#002BDC" stroke-width="3" stroke-linecap="round" stroke-linejoin="round"/>
<path d="M48.4349 30.5651L43.1687 22.6704C41.9303 19.2863 45.747 14.7093 50.8072 18.3217C51.8605 19.4495 55.2934 21.0673 58.6638 19.2628C60.1679 18.4575 63.1914 17.0741 65.6474 18.3217C66.631 18.8213 70.0122 21.1463 67.3933 24.9139L61.0738 30.5651" stroke="#002BDC" stroke-width="3" stroke-linecap="round" stroke-linejoin="round"/>
<path d="M56.0894 39.4667C56.6415 40.2755 57.0205 41.3475 57.1353 42.5469H60.7781C61.0626 42.5469 61.2933 42.8916 61.2933 43.3169C61.2933 43.7422 61.0626 44.0869 60.7781 44.0869H57.1353C56.8853 46.6991 55.3823 48.7072 53.5655 48.7072H50.6877L57.0209 55.6366C57.2221 55.9373 57.2221 56.4248 57.0209 56.7256C56.8197 57.0263 56.4935 57.0263 56.2923 56.7256L49.0797 48.4816C48.7551 47.9965 48.985 47.1671 49.444 47.1671H53.5655C54.8117 47.1671 55.8512 45.8444 56.0899 44.0869H49.444C49.1594 44.0869 48.9288 43.7422 48.9288 43.3169C48.9288 42.8916 49.1594 42.5469 49.444 42.5469H56.0899C55.8512 40.7895 54.8117 39.4667 53.5655 39.4667H49.444C49.1594 39.4667 48.9288 39.122 48.9288 38.6967C48.9288 38.2714 49.1594 37.9266 49.444 37.9266H53.5655H60.7781C61.0626 37.9266 61.2933 38.2714 61.2933 38.6967C61.2933 39.122 61.0626 39.4667 60.7781 39.4667H56.0894Z" fill="#002BDC" stroke="#002BDC"/>
<path d="M85.0703 27.4631V48.39" stroke="#002BDC" stroke-width="3" stroke-linecap="round" stroke-linejoin="round"/>
<path d="M79.3691 32.2193L85.0763 27.4631L90.7835 32.2193" stroke="#002BDC" stroke-width="3" stroke-linecap="round" stroke-linejoin="round"/>
</svg>
