<svg width="100" height="86" viewBox="0 0 100 86" fill="none" xmlns="http://www.w3.org/2000/svg">
<g clip-path="url(#clip0_4177_1431)">
<path d="M99.8391 82.7436L99.8168 82.6854L99.8123 82.6764L83.1735 39.7441H83.169C82.8342 38.8841 82.0351 38.2929 81.1154 38.2301C80.1913 38.1674 79.3208 38.6422 78.8699 39.453L68.1065 58.8924L64.1646 47.0221H64.1601C63.8387 46.0456 62.928 45.3872 61.9056 45.3872H51.4726L40.477 23.323V20.5863L55.8302 12.8866H55.8257C56.6337 12.4835 57.1426 11.6549 57.1426 10.7501C57.1426 9.84522 56.6337 9.01664 55.8257 8.61347L39.1606 0.250838C39.1338 0.2374 39.1025 0.232921 39.0713 0.219483C39.0177 0.197088 38.9641 0.18365 38.9106 0.165733C38.6829 0.0806291 38.4374 0.0313556 38.1918 0.0179167C38.1561 0.0179167 38.1293 0 38.0936 0C38.0802 0 38.0668 0.00895724 38.0534 0.00895724C37.7811 0.0134373 37.5088 0.0716669 37.2543 0.170214C37.1873 0.197088 37.1293 0.223962 37.0668 0.255317C36.8436 0.335942 36.6382 0.470317 36.482 0.653967C36.4552 0.680842 36.424 0.69428 36.3972 0.721154C36.2141 0.91376 36.0623 1.13771 35.9552 1.37959C35.9284 1.43782 35.9061 1.50053 35.8838 1.56324H35.8793C35.7766 1.82752 35.7186 2.10523 35.7141 2.38741V23.2831L20.0044 52.5541H11.9063C10.8795 52.5541 9.96877 53.2125 9.64729 54.189L0.125005 82.8556C0.102684 83.111 0.0580411 83.3618 0 83.6126C0 83.644 0.0178571 83.6753 0.0178571 83.7067V83.7022C0.0357143 83.8679 0.0669646 84.0337 0.116071 84.1904C0.142857 84.3338 0.183035 84.4726 0.232139 84.607C0.303567 84.7369 0.383922 84.8578 0.477671 84.9743C0.558027 85.1042 0.656242 85.2296 0.763385 85.3416C0.870528 85.4311 0.982139 85.5073 1.10268 85.5745C1.24106 85.6775 1.38839 85.7626 1.5491 85.8298C1.58035 85.8432 1.59821 85.8656 1.62946 85.8746V85.8791C1.87053 85.9597 2.12499 86 2.37945 86H97.6205C97.9152 86 98.2054 85.9463 98.4822 85.8388L98.5089 85.8208C98.6964 85.7313 98.8705 85.6193 99.0312 85.4849C99.1205 85.4312 99.2054 85.3729 99.2902 85.3102C99.3973 85.1848 99.4911 85.046 99.5714 84.8981C99.6563 84.7906 99.7366 84.6786 99.7991 84.5577C99.8348 84.4413 99.8616 84.3248 99.8795 84.2083C99.942 84.0247 99.9777 83.8366 99.9911 83.644L100 83.6126C99.9375 83.3259 99.8837 83.0347 99.8391 82.7436ZM71.1294 63.2732L80.5713 46.2211L94.1382 81.2208H48.9016L56.3079 64.5002H69.0485C69.9101 64.5002 70.7097 64.0302 71.1294 63.2732ZM40.478 15.2474V6.25317L49.4378 10.7503L40.478 15.2474ZM13.6209 57.3335H21.4289C22.3039 57.3335 23.1119 56.8497 23.527 56.0793L38.0184 29.0741L47.8711 48.8449C48.2729 49.6557 49.0988 50.1662 50.0006 50.1662H60.1881L63.3622 59.7203H54.764C53.8221 59.7203 52.9694 60.2757 52.5855 61.1402L43.6927 81.2206H5.68361L13.6209 57.3335Z" fill="#002BDC"/>
<path d="M69.2187 16.7206C69.2187 17.3566 69.4687 17.9613 69.9151 18.4093C70.3616 18.8617 70.9687 19.1125 71.6027 19.1125H76.1919C77.5044 19.1125 78.5714 18.042 78.5714 16.7207C78.5714 15.4039 77.5044 14.3333 76.1919 14.3333H71.6027C70.9687 14.3333 70.3616 14.5842 69.9151 15.0321C69.4686 15.48 69.2187 16.089 69.2187 16.7206Z" fill="#002BDC"/>
<path d="M69.9107 5.05698L67.366 7.61462C66.9151 8.06253 66.6562 8.67171 66.6562 9.30779C66.6562 9.94383 66.9062 10.553 67.3526 11.0054C67.8035 11.4533 68.4107 11.7042 69.0446 11.7042C69.6786 11.6997 70.2857 11.4444 70.7322 10.992L73.2813 8.43436C73.7278 7.98645 73.9822 7.37727 73.9822 6.74567C73.9867 6.10962 73.7322 5.5005 73.2858 5.04802C72.8394 4.60011 72.2322 4.34927 71.5982 4.34927C70.9643 4.34927 70.3572 4.60459 69.9107 5.05698Z" fill="#002BDC"/>
<path d="M67.3661 25.8314L69.9153 28.389H69.9108C70.8438 29.3207 72.3483 29.3207 73.2813 28.389C74.2099 27.4574 74.2099 25.9434 73.2813 25.0117L70.7322 22.4541C70.2858 21.9972 69.6786 21.7419 69.0446 21.7419C68.4107 21.7374 67.8036 21.9928 67.3526 22.4407C66.9062 22.8931 66.6562 23.5022 66.6562 24.1383C66.6562 24.7744 66.9152 25.3834 67.3661 25.8314Z" fill="#002BDC"/>
<path d="M18.875 16.7208C18.875 16.0892 18.625 15.4801 18.1785 15.0321C17.7321 14.5841 17.125 14.3333 16.4955 14.3333H11.9062C10.5893 14.3333 9.52232 15.4038 9.52232 16.7207C9.52232 18.042 10.5893 19.1125 11.9062 19.1125H16.4955C17.1249 19.1125 17.732 18.8617 18.1785 18.4093C18.625 17.9614 18.875 17.3569 18.875 16.7208Z" fill="#002BDC"/>
<path d="M20.7322 7.61462L18.183 5.05698C17.2544 4.12531 15.7455 4.12531 14.817 5.05698C13.8839 5.98864 13.8839 7.50259 14.817 8.43426L17.3661 10.9919C18.2947 11.9191 19.7991 11.9146 20.7232 10.9874C21.6518 10.0557 21.6518 8.55076 20.7322 7.61462Z" fill="#002BDC"/>
<path d="M16.5005 29.0878C17.13 29.0878 17.7371 28.8369 18.1836 28.389L20.7327 25.8314C21.6524 24.8952 21.6479 23.3902 20.7193 22.463C19.7952 21.5358 18.2952 21.5269 17.3666 22.4541L14.8175 25.0117C14.1345 25.6925 13.9336 26.7183 14.2997 27.6141C14.6702 28.5054 15.5362 29.0878 16.5005 29.0878Z" fill="#002BDC"/>
</g>
<defs>
<clipPath id="clip0_4177_1431">
<rect width="100" height="86" fill="white"/>
</clipPath>
</defs>
</svg>
