<svg width="120" height="120" viewBox="0 0 120 120" fill="none" xmlns="http://www.w3.org/2000/svg">
<circle opacity="0.5" cx="60" cy="60" r="60" fill="#F5BA01"/>
<path d="M63.5 99.7801C59.3114 102.452 54.3365 104 49 104C34.0883 104 22 91.9117 22 77C22 62.0883 34.0883 50 49 50C59.4012 50 68.4288 55.8814 72.9384 64.5" stroke="#614A0F" stroke-width="4"/>
<circle cx="49" cy="77" r="14" stroke="#614A0F" stroke-width="4"/>
<path d="M37.2461 18H60.7539C61.3928 18 61.9936 18.3052 62.3701 18.8213L69.665 28.8213C70.1772 29.5235 70.1772 30.4765 69.665 31.1787L62.3701 41.1787C61.9936 41.6948 61.3928 42 60.7539 42H37.2461C36.6072 42 36.0064 41.6948 35.6299 41.1787L28.335 31.1787C27.8228 30.4765 27.8228 29.5235 28.335 28.8213L35.6299 18.8213C35.9594 18.3696 36.4607 18.0791 37.0088 18.0137L37.2461 18Z" stroke="#614A0F" stroke-width="4" stroke-linejoin="round"/>
<path d="M53 18L61.5 30L53 42" stroke="#614A0F" stroke-width="4"/>
<path d="M44.5 18L36 30L44.5 42" stroke="#614A0F" stroke-width="4"/>
<path d="M49 18V42" stroke="#614A0F" stroke-width="4"/>
<path d="M48 42H68L59.5 53.5" stroke="#614A0F" stroke-width="4" stroke-linejoin="round"/>
<path d="M50 42H30L38 53" stroke="#614A0F" stroke-width="4" stroke-linejoin="round"/>
<path d="M85.5 60.042L90.5 63.1848L87.1667 71.042" stroke="#614A0F" stroke-width="4" stroke-linejoin="round"/>
<path d="M79.3333 64L76 55H86L82.8785 64" stroke="#614A0F" stroke-width="4" stroke-linejoin="round"/>
<path d="M77 60L72 63.1429L75.3333 71" stroke="#614A0F" stroke-width="4" stroke-linejoin="round"/>
<path d="M86.8358 70.1162C81.5582 68.0946 77.5328 69.2739 76.1798 70.1162C73.6088 71.495 71.7082 73.2416 70.3283 75.1705C69.409 76.4556 68.7209 77.8217 68.2197 79.2138C67.3009 81.7659 67.0103 84.4056 67.0753 86.7949C67.1402 89.1772 67.5586 91.3104 68.0604 92.8596L64 98.4193C63.9986 101.957 66.1994 102.126 68.0604 101.957H93.4328C97.4939 101.957 98 100.946 98 98.4193L93.9403 92.8596C98.8119 79.921 91.2338 72.3063 86.8358 70.1162Z" stroke="#614A0F" stroke-width="4" stroke-linejoin="round"/>
<path d="M82.5291 78.619C83.1096 79.4693 83.508 80.5963 83.6286 81.8571H87.4584C87.7575 81.8571 88 82.2196 88 82.6667C88 83.1138 87.7575 83.4762 87.4584 83.4762H83.6286C83.3658 86.2223 81.7857 88.3333 79.8757 88.3333H76.8503L83.5084 95.6181C83.7199 95.9342 83.7199 96.4468 83.5084 96.7629C83.2969 97.079 82.9539 97.079 82.7424 96.7629L75.1597 88.0962C74.8185 87.5863 75.0602 86.7143 75.5427 86.7143H79.8757C81.1858 86.7143 82.2787 85.3237 82.5296 83.4762H75.5427C75.2436 83.4762 75.0011 83.1138 75.0011 82.6667C75.0011 82.2196 75.2436 81.8571 75.5427 81.8571H82.5296C82.2787 80.0096 81.1858 78.619 79.8757 78.619H75.5427C75.2436 78.619 75.0011 78.2566 75.0011 77.8095C75.0011 77.3624 75.2436 77 75.5427 77H79.8757H87.4584C87.7575 77 88 77.3624 88 77.8095C88 78.2566 87.7575 78.619 87.4584 78.619H82.5291Z" fill="#614A0F" stroke="#614A0F" stroke-width="2"/>
</svg>
