<svg width="112" height="112" viewBox="0 0 112 112" fill="none" xmlns="http://www.w3.org/2000/svg">
<rect x="1.5" y="1.5" width="109" height="109" rx="10.5" stroke="#002BDC" stroke-width="3"/>
<path d="M58.784 91.2595C55.0714 93.6276 50.6618 94.9998 45.9318 94.9998C32.7146 94.9998 22 84.2852 22 71.0681C22 57.851 32.7146 47.1364 45.9318 47.1364C55.151 47.1364 63.1527 52.3494 67.1499 59.9886" stroke="#002BDC" stroke-width="3"/>
<path d="M57.1133 71.068C57.1132 64.8925 52.1071 59.8864 45.9316 59.8864C39.7562 59.8864 34.7501 64.8926 34.75 71.068C34.75 77.2435 39.7562 82.2496 45.9316 82.2496V85.2496C38.0993 85.2496 31.75 78.9003 31.75 71.068C31.7501 63.2357 38.0994 56.8864 45.9316 56.8864C53.764 56.8864 60.1132 63.2357 60.1133 71.068C60.1133 78.9004 53.764 85.2496 45.9316 85.2496V82.2496C52.1072 82.2496 57.1133 77.2435 57.1133 71.068Z" fill="#002BDC"/>
<path d="M35.7314 18.5H56.0947C56.8844 18.5002 57.6279 18.8734 58.0996 19.5068L64.1504 27.6318C64.8102 28.5178 64.81 29.7321 64.1504 30.6182L58.0996 38.7441C57.6279 39.3775 56.8844 39.7508 56.0947 39.751H35.7314C34.9416 39.751 34.1983 39.3775 33.7266 38.7441L27.6758 30.6182C27.016 29.7321 27.016 28.5179 27.6758 27.6318L33.7266 19.5068C34.1983 18.8734 34.9416 18.5 35.7314 18.5Z" stroke="#002BDC" stroke-width="3" stroke-linejoin="round"/>
<path d="M49.4776 18.7727L57.0117 29.409L49.4776 40.0453" stroke="#002BDC" stroke-width="3"/>
<path d="M41.9423 18.7727L34.4082 29.409L41.9423 40.0453" stroke="#002BDC" stroke-width="3"/>
<path d="M45.9316 18.7727V40.0453" stroke="#002BDC" stroke-width="3"/>
<path d="M45.0463 40.045H62.7735L55.2395 50.2382M46.819 40.045H29.0918L36.1827 49.795" stroke="#002BDC" stroke-width="3" stroke-linejoin="round"/>
<path d="M78.2819 56.037L82.7137 58.8227L79.7592 65.787M72.8194 59.5452L69.8649 51.568H78.7285L75.9617 59.5452M70.7512 55.9998L66.3194 58.7855L69.274 65.7498M70.0242 64.9665C71.2234 64.2199 74.7914 63.1746 79.4693 64.9665C83.3675 66.9076 90.0845 73.657 85.7664 85.1253L89.3648 90.0532C89.3648 92.2931 88.9163 93.189 85.3167 93.189H62.8275C61.178 93.3383 59.2273 93.189 59.2285 90.0532L62.8275 85.1253C62.3827 83.7522 62.0118 81.8613 61.9543 79.7498C61.8967 77.632 62.1543 75.2923 62.9687 73.0302C63.413 71.7963 64.0229 70.5855 64.8377 69.4464C66.0607 67.7367 67.7454 66.1886 70.0242 64.9665Z" stroke="#002BDC" stroke-width="3" stroke-linejoin="round"/>
<path d="M75.6481 72.5023C76.1626 73.2559 76.5157 74.2548 76.6227 75.3724H80.0172C80.2824 75.3724 80.4973 75.6937 80.4973 76.09C80.4973 76.4862 80.2824 76.8075 80.0172 76.8075H76.6227C76.3898 79.2416 74.9892 81.1127 73.2962 81.1127H70.6146L76.5161 87.5696C76.7036 87.8498 76.7036 88.3041 76.5161 88.5843C76.3286 88.8645 76.0247 88.8645 75.8372 88.5843L69.1162 80.9025C68.8138 80.4505 69.0279 79.6776 69.4556 79.6776H73.2962C74.4575 79.6776 75.4262 78.4451 75.6486 76.8075H69.4556C69.1905 76.8075 68.9756 76.4862 68.9756 76.09C68.9756 75.6937 69.1905 75.3724 69.4556 75.3724H75.6486C75.4262 73.7349 74.4575 72.5023 73.2962 72.5023H69.4556C69.1905 72.5023 68.9756 72.1811 68.9756 71.7848C68.9756 71.3885 69.1905 71.0673 69.4556 71.0673H80.0172C80.2824 71.0673 80.4973 71.3885 80.4973 71.7848C80.4973 72.1811 80.2824 72.5023 80.0172 72.5023H75.6481Z" fill="#002BDC" stroke="#002BDC"/>
</svg>
